<?xml version="1.0" encoding="utf-8"?>
<!-- Generator: Adobe Illustrator 26.1.0, SVG Export Plug-In . SVG Version: 6.00 Build 0)  -->
<svg version="1.1" id="Calque_1" xmlns="http://www.w3.org/2000/svg" xmlns:xlink="http://www.w3.org/1999/xlink" x="0px" y="0px"
	 viewBox="0 0 467.3 94.8" style="enable-background:new 0 0 467.3 94.8;" xml:space="preserve">
<style type="text/css">
	.st0{fill:#FFFFFF;}
	.st1{fill:#C6E3DF;}
	.st2{fill:#52A79B;}
</style>
<path class="st0" d="M31.3,19.6c0,0.4-0.2,0.8-0.4,1.1c-0.3,0.4-0.8,0.6-1.3,0.6c-0.3,0-0.6-0.1-0.9-0.3c-2.8-1.9-6.2-2.9-9.6-2.9
	c-2.8,0-5.6,0.7-8,2.1c-2.4,1.4-4.3,3.4-5.6,5.8c-1.4,2.6-2.1,5.6-2.1,8.5c-0.1,3,0.7,6,2.1,8.6c1.3,2.4,3.3,4.4,5.7,5.8
	c2.4,1.4,5.2,2.1,8,2.1c3.4,0,6.7-1,9.5-2.8c0.3-0.2,0.6-0.3,0.9-0.3c0.5,0,1,0.2,1.3,0.7c0.3,0.3,0.4,0.7,0.4,1
	c0,0.6-0.3,1.1-0.8,1.3c-1.6,1-3.4,1.8-5.3,2.4c-2,0.6-4,0.9-6.1,1c-3.4,0-6.7-0.8-9.6-2.5c-2.9-1.6-5.4-4.1-7-7
	C0.8,41.7-0.1,38.1,0,34.5c0-3.5,0.8-7,2.6-10.1c1.6-2.9,4-5.4,7-7.1c2.9-1.7,6.3-2.6,9.7-2.5c2,0,4.1,0.3,6,0.9
	c1.9,0.5,3.7,1.4,5.3,2.5C31,18.5,31.3,19,31.3,19.6z"/>
<path class="st0" d="M44.2,53.2c-0.3,0.3-0.8,0.5-1.2,0.5c-0.9,0.1-1.6-0.6-1.7-1.5c0-0.1,0-0.1,0-0.2v-35c0-0.5,0.2-0.9,0.5-1.2
	c0.3-0.3,0.8-0.5,1.3-0.5c0.9,0,1.7,0.7,1.7,1.7c0,0,0,0,0,0v35C44.7,52.5,44.5,52.9,44.2,53.2z"/>
<path class="st0" d="M89.9,44.7c-4.6,8.8-15.4,12.3-24.3,7.7c-3.3-1.7-6-4.4-7.7-7.7c-1.6-3.1-2.4-6.6-2.4-10.1
	c-0.1-3.5,0.7-7,2.4-10.2c1.5-2.9,3.7-5.3,6.5-7c5.9-3.4,13.1-3.4,19,0c2.8,1.7,5,4.1,6.5,7c1.6,3.2,2.4,6.7,2.4,10.2
	C92.3,38.1,91.5,41.5,89.9,44.7z M86.8,26c-1.2-2.4-3-4.4-5.3-5.8c-4.8-2.8-10.6-2.8-15.4,0c-2.3,1.4-4.1,3.4-5.3,5.8
	c-1.3,2.7-1.9,5.6-1.9,8.5c-0.1,2.9,0.6,5.9,1.9,8.5c1.2,2.4,3,4.4,5.3,5.8c4.8,2.8,10.6,2.8,15.4,0c2.3-1.4,4.1-3.4,5.3-5.8
	c1.3-2.7,1.9-5.6,1.9-8.5C88.7,31.6,88.1,28.7,86.8,26L86.8,26z"/>
<path class="st0" d="M134.8,44.7c-4.6,8.8-15.4,12.3-24.3,7.7c-3.3-1.7-6-4.4-7.7-7.7c-1.6-3.1-2.4-6.6-2.4-10.1
	c-0.1-3.5,0.7-7,2.4-10.2c1.5-2.9,3.7-5.3,6.5-7c5.9-3.4,13.1-3.4,19,0c2.8,1.7,5,4.1,6.5,7c1.6,3.2,2.4,6.7,2.4,10.2
	C137.2,38.1,136.4,41.5,134.8,44.7z M131.8,26c-1.2-2.4-3-4.4-5.3-5.8c-4.8-2.8-10.6-2.8-15.4,0c-2.3,1.4-4.1,3.4-5.3,5.8
	c-1.3,2.7-1.9,5.6-1.9,8.5c-0.1,2.9,0.6,5.9,1.9,8.5c1.2,2.4,3,4.4,5.3,5.8c4.8,2.8,10.6,2.8,15.4,0c2.3-1.4,4.1-3.4,5.3-5.8
	c1.3-2.7,1.9-5.6,1.9-8.5C133.7,31.6,133.1,28.7,131.8,26L131.8,26z"/>
<path class="st0" d="M151.3,52.9c-2.2-1-4.2-2.4-5.9-4.1c-0.4-0.3-0.7-0.8-0.7-1.3c0-0.5,0.2-0.9,0.5-1.2c0.3-0.3,0.7-0.5,1.2-0.5
	c0.5,0,0.9,0.2,1.2,0.5c2.7,3.1,6.6,4.8,10.7,4.7c2.3,0.1,4.6-0.6,6.5-1.9c1.6-1.1,2.6-2.9,2.6-4.9c0.1-1.4-0.4-2.8-1.3-3.9
	c-0.9-1.1-2.1-2-3.4-2.5c-1.7-0.8-3.5-1.5-5.3-2c-2-0.6-4-1.3-5.9-2.3c-1.5-0.8-2.9-2-3.9-3.4c-1-1.6-1.6-3.5-1.5-5.3
	c0-1.8,0.5-3.6,1.6-5.1c1.1-1.6,2.6-2.8,4.4-3.5c2-0.9,4.3-1.3,6.5-1.3c2.1,0,4.3,0.4,6.3,1.1c1.8,0.6,3.4,1.8,4.7,3.2
	c0.4,0.4,0.7,1,0.8,1.6c0,0.4-0.2,0.8-0.5,1.1c-0.3,0.3-0.8,0.5-1.2,0.5c-0.4,0-0.7-0.1-0.9-0.4c-1.1-1.2-2.4-2.2-3.9-2.8
	c-1.6-0.7-3.4-1.1-5.1-1.1c-2.3-0.1-4.6,0.5-6.5,1.8c-1.6,1.1-2.6,2.9-2.5,4.8c-0.1,1.9,0.8,3.8,2.4,4.9c2.1,1.4,4.5,2.4,6.9,3.1
	c2.2,0.6,4.3,1.4,6.4,2.4c1.6,0.8,3,2,4,3.4c1.1,1.7,1.7,3.8,1.6,5.8c0,1.8-0.6,3.6-1.6,5.1c-1.2,1.6-2.7,2.8-4.5,3.6
	c-2.1,0.9-4.3,1.4-6.5,1.3C155.9,54.3,153.6,53.9,151.3,52.9z"/>
<path class="st0" d="M21.4,62.8c0,0.2-0.1,0.3-0.2,0.4c-0.1,0.1-0.3,0.2-0.4,0.2c-0.1,0-0.2,0-0.4-0.1c-0.3-0.2-0.7-0.2-1.1-0.2
	c-0.4,0-0.9,0.1-1.3,0.3c-0.4,0.2-0.6,0.5-0.8,0.9c-0.2,0.4-0.3,0.8-0.3,1.3c0,0.7,0.2,1.4,0.7,1.9c0.8,0.7,1.9,0.8,2.8,0.4
	c0.1-0.1,0.2-0.1,0.3-0.1c0.2,0,0.3,0.1,0.5,0.2c0.1,0.1,0.2,0.3,0.2,0.4c0,0.1,0,0.2-0.1,0.3c-0.1,0.1-0.1,0.2-0.2,0.2
	c-0.5,0.3-1.1,0.4-1.7,0.4c-0.6,0-1.3-0.1-1.9-0.4c-0.6-0.3-1-0.7-1.4-1.3c-0.4-0.6-0.5-1.3-0.5-2c0-0.7,0.2-1.3,0.5-1.9
	c0.3-0.6,0.8-1,1.3-1.3c0.6-0.3,1.3-0.5,1.9-0.5c0.6,0,1.2,0.1,1.7,0.4C21.3,62.4,21.4,62.6,21.4,62.8z"/>
<path class="st0" d="M28.3,68.6c0,0.2-0.1,0.3-0.2,0.4c-0.1,0.1-0.3,0.2-0.4,0.2c-0.1,0-0.2,0-0.3-0.1c-0.1-0.1-0.2-0.2-0.2-0.3
	l-0.5-1.3h-3.1l-0.5,1.3c0,0.1-0.1,0.2-0.2,0.3c-0.2,0.2-0.6,0.2-0.7,0c-0.1-0.1-0.1-0.2-0.1-0.4c0-0.1,0-0.1,0-0.2l2.6-6.2
	c0-0.1,0.1-0.2,0.2-0.3c0.1-0.1,0.2-0.1,0.4-0.1c0.1,0,0.2,0,0.3,0.1c0.1,0.1,0.2,0.2,0.2,0.3l2.6,6.1
	C28.2,68.5,28.3,68.5,28.3,68.6z M24,66.4h2.1L25,63.9L24,66.4z"/>
<path class="st0" d="M35,62.1c0.1,0.1,0.2,0.3,0.2,0.4v6.1c0,0.3-0.3,0.6-0.6,0.6c0,0,0,0,0,0c-0.1,0-0.2,0-0.3,0
	c-0.1,0-0.1-0.1-0.2-0.1l-3.8-4.8v4.4c0,0.2-0.1,0.3-0.2,0.4c-0.1,0.1-0.3,0.2-0.4,0.2c-0.2,0-0.3-0.1-0.4-0.2
	c-0.1-0.1-0.2-0.3-0.2-0.4v-6.1c0-0.3,0.3-0.6,0.6-0.6c0,0,0,0,0,0c0.1,0,0.2,0,0.3,0.1c0.1,0,0.2,0.1,0.2,0.2l3.8,4.8v-4.5
	c0-0.2,0.1-0.3,0.2-0.4c0.1-0.1,0.3-0.2,0.4-0.2C34.8,61.9,34.9,62,35,62.1z"/>
<path class="st0" d="M42.5,68.6c0,0.2-0.1,0.3-0.2,0.4c-0.1,0.1-0.3,0.2-0.4,0.2c-0.1,0-0.2,0-0.3-0.1c-0.1-0.1-0.2-0.2-0.2-0.3
	l-0.5-1.3h-3.1l-0.5,1.3c0,0.1-0.1,0.2-0.2,0.3c-0.2,0.2-0.6,0.2-0.7,0C36.1,69,36,68.8,36,68.7c0-0.1,0-0.1,0-0.2l2.6-6.2
	c0-0.1,0.1-0.2,0.2-0.3c0.1-0.1,0.2-0.1,0.4-0.1c0.1,0,0.2,0,0.3,0.1c0.1,0.1,0.2,0.2,0.2,0.3l2.6,6.1
	C42.5,68.5,42.5,68.5,42.5,68.6z M38.2,66.4h2.1l-1.1-2.4L38.2,66.4z"/>
<path class="st0" d="M48.1,62.4c0.5,0.3,0.8,0.8,1.1,1.3c0.5,1.2,0.5,2.5,0,3.7c-0.2,0.5-0.6,1-1.1,1.3c-0.5,0.3-1.1,0.5-1.7,0.5H44
	c-0.3,0-0.6-0.3-0.6-0.6c0,0,0,0,0,0v-6c0-0.3,0.3-0.6,0.6-0.6c0,0,0,0,0,0h2.5C47.1,61.9,47.6,62.1,48.1,62.4z M47.8,67.3
	c0.6-1.1,0.6-2.4,0-3.5c-0.3-0.5-0.8-0.7-1.4-0.7h-1.7V68h1.7C46.9,68,47.4,67.8,47.8,67.3L47.8,67.3z"/>
<path class="st0" d="M51.8,69c-0.1,0.1-0.3,0.2-0.5,0.2c-0.2,0-0.3-0.1-0.5-0.2c-0.1-0.1-0.2-0.3-0.2-0.5v-6c0-0.2,0.1-0.3,0.2-0.5
	c0.1-0.1,0.3-0.2,0.5-0.2c0.2,0,0.3,0.1,0.4,0.2c0.1,0.1,0.2,0.3,0.2,0.5v6C52,68.7,52,68.9,51.8,69z"/>
<path class="st0" d="M59.3,68.6c0,0.2-0.1,0.3-0.2,0.4c-0.1,0.1-0.3,0.2-0.4,0.2c-0.1,0-0.2,0-0.3-0.1c-0.1-0.1-0.2-0.2-0.2-0.3
	l-0.5-1.3h-3.1L54,68.8c0,0.1-0.1,0.2-0.2,0.3c-0.2,0.2-0.6,0.2-0.7,0c-0.1-0.1-0.1-0.2-0.1-0.4c0-0.1,0-0.1,0-0.2l2.6-6.2
	c0-0.1,0.1-0.2,0.2-0.3c0.1-0.1,0.2-0.1,0.4-0.1c0.1,0,0.2,0,0.3,0.1c0.1,0.1,0.2,0.2,0.2,0.3l2.6,6.1
	C59.3,68.5,59.3,68.5,59.3,68.6z M55,66.4h2.1l-1.1-2.4L55,66.4z"/>
<path class="st0" d="M66.1,62.1c0.1,0.1,0.2,0.3,0.2,0.4v6.1c0,0.3-0.3,0.6-0.6,0.6c0,0,0,0,0,0c-0.1,0-0.2,0-0.3,0
	c-0.1,0-0.1-0.1-0.2-0.1l-3.8-4.8v4.4c0,0.2-0.1,0.3-0.2,0.4c-0.1,0.1-0.3,0.2-0.4,0.2c-0.2,0-0.3-0.1-0.4-0.2
	c-0.1-0.1-0.2-0.3-0.2-0.4v-6.1c0-0.3,0.3-0.6,0.6-0.6c0,0,0,0,0,0c0.1,0,0.2,0,0.3,0.1c0.1,0,0.2,0.1,0.2,0.2l3.8,4.8v-4.5
	c0-0.2,0.1-0.3,0.2-0.4c0.1-0.1,0.3-0.2,0.4-0.2C65.9,61.9,66,62,66.1,62.1z"/>
<path class="st0" d="M71.8,69c-0.1,0.1-0.3,0.2-0.5,0.2c-0.2,0-0.3-0.1-0.5-0.2c-0.1-0.1-0.2-0.3-0.2-0.5v-6c0-0.2,0.1-0.3,0.2-0.5
	c0.1-0.1,0.3-0.2,0.5-0.2c0.2,0,0.3,0.1,0.4,0.2c0.1,0.1,0.2,0.3,0.2,0.5v6C72,68.7,71.9,68.9,71.8,69z"/>
<path class="st0" d="M79.4,62.1c0.1,0.1,0.2,0.3,0.2,0.4v6.1c0,0.3-0.3,0.6-0.6,0.6c0,0,0,0,0,0c-0.1,0-0.2,0-0.3,0
	c-0.1,0-0.1-0.1-0.2-0.1l-3.8-4.8v4.4c0,0.2-0.1,0.3-0.2,0.4c-0.1,0.1-0.3,0.2-0.4,0.2c-0.2,0-0.3-0.1-0.4-0.2
	c-0.1-0.1-0.2-0.3-0.2-0.4v-6.1c0-0.3,0.3-0.6,0.6-0.6c0,0,0,0,0,0c0.1,0,0.2,0,0.3,0.1c0.1,0,0.2,0.1,0.2,0.2l3.8,4.8v-4.5
	c0-0.2,0.1-0.3,0.2-0.4c0.1-0.1,0.3-0.2,0.4-0.2C79.2,61.9,79.3,62,79.4,62.1z"/>
<path class="st0" d="M86.4,62.1c0.1,0.1,0.2,0.3,0.2,0.4c0,0.2-0.1,0.3-0.2,0.4c-0.1,0.1-0.3,0.2-0.5,0.2h-1.6v5.4
	c0,0.2-0.1,0.3-0.2,0.5c-0.1,0.1-0.3,0.2-0.5,0.2c-0.2,0-0.4-0.1-0.5-0.2c-0.1-0.1-0.2-0.3-0.2-0.5v-5.4h-1.6
	c-0.2,0-0.3-0.1-0.5-0.2c-0.1-0.1-0.2-0.3-0.2-0.4c0-0.2,0.1-0.3,0.2-0.4c0.1-0.1,0.3-0.2,0.5-0.2h4.6C86.1,61.9,86.2,62,86.4,62.1z
	"/>
<path class="st0" d="M92.2,68.2c0.1,0.1,0.2,0.3,0.2,0.4c0,0.2-0.1,0.3-0.2,0.4c-0.1,0.1-0.3,0.2-0.5,0.2h-3.5
	c-0.3,0-0.6-0.3-0.6-0.6c0,0,0,0,0,0v-6c0-0.3,0.3-0.6,0.6-0.6c0,0,0,0,0,0h3.5c0.2,0,0.3,0.1,0.5,0.2c0.1,0.1,0.2,0.3,0.2,0.4
	c0,0.2-0.1,0.3-0.2,0.4c-0.1,0.1-0.3,0.2-0.5,0.2h-2.8v1.8h2.4c0.2,0,0.3,0.1,0.5,0.2c0.1,0.1,0.2,0.3,0.2,0.4
	c0,0.2-0.1,0.3-0.2,0.4c-0.1,0.1-0.3,0.2-0.5,0.2h-2.4V68h2.8C91.9,68,92.1,68.1,92.2,68.2z"/>
<path class="st0" d="M99.3,65.4c0.1,0.1,0.2,0.3,0.2,0.5v2.2c0,0.2-0.1,0.4-0.3,0.6c-0.7,0.4-1.4,0.6-2.2,0.6
	c-1.3,0-2.6-0.7-3.3-1.9c-0.7-1.2-0.7-2.6,0-3.8c0.3-0.6,0.8-1,1.4-1.4c0.6-0.3,1.2-0.5,1.9-0.5c0.6,0,1.2,0.1,1.8,0.4
	c0.2,0.1,0.3,0.3,0.3,0.5c0,0.2-0.1,0.3-0.2,0.5c-0.1,0.1-0.3,0.2-0.4,0.2c-0.1,0-0.2,0-0.3-0.1c-0.4-0.2-0.8-0.2-1.2-0.2
	c-0.4,0-0.9,0.1-1.2,0.3c-0.4,0.2-0.7,0.5-0.9,0.9c-0.4,0.8-0.4,1.7,0,2.5c0.2,0.4,0.5,0.7,0.9,0.9c0.4,0.2,0.8,0.3,1.2,0.3
	c0.2,0,0.4,0,0.6-0.1c0.2,0,0.4-0.1,0.6-0.1v-1.4h-1c-0.2,0-0.3-0.1-0.5-0.2c-0.2-0.2-0.2-0.6,0-0.9c0.1-0.1,0.3-0.2,0.5-0.2h1.7
	C99.1,65.3,99.2,65.3,99.3,65.4z"/>
<path class="st0" d="M106.6,68.4c0.1,0.1,0.1,0.2,0.1,0.3c0,0.1,0,0.2-0.1,0.3c-0.1,0.1-0.3,0.2-0.5,0.2c-0.2,0-0.3,0-0.5-0.1
	c-0.6-0.4-0.8-1.1-0.7-1.7c0-0.2-0.1-0.4-0.2-0.6c-0.2-0.2-0.4-0.2-0.7-0.2H102v2c0,0.2,0,0.3-0.2,0.5c-0.1,0.1-0.2,0.2-0.4,0.2
	c-0.2,0-0.4-0.1-0.5-0.2c-0.1-0.1-0.2-0.3-0.2-0.5v-6c0-0.3,0.3-0.6,0.6-0.6c0,0,0,0,0,0h3c0.4,0,0.7,0.1,1,0.3
	c0.3,0.2,0.6,0.5,0.8,0.8c0.2,0.4,0.3,0.7,0.3,1.1c0,0.4-0.1,0.7-0.3,1c-0.2,0.3-0.4,0.6-0.7,0.8c0.4,0.3,0.7,0.7,0.7,1.2
	c0,0.1,0,0.2,0,0.3c0,0.2,0,0.3,0.1,0.5c0,0.1,0.1,0.2,0.2,0.2C106.5,68.2,106.6,68.3,106.6,68.4z M104.7,65.3
	c0.1-0.1,0.2-0.3,0.3-0.5c0.1-0.2,0.1-0.4,0.1-0.6c0-0.2,0-0.4-0.1-0.5c-0.1-0.2-0.2-0.3-0.3-0.4c-0.1-0.1-0.2-0.1-0.4-0.1H102v2.4
	h2.3C104.4,65.5,104.6,65.4,104.7,65.3L104.7,65.3z"/>
<path class="st0" d="M113.6,68.6c0,0.2-0.1,0.3-0.2,0.4c-0.1,0.1-0.3,0.2-0.4,0.2c-0.1,0-0.2,0-0.3-0.1c-0.1-0.1-0.2-0.2-0.2-0.3
	l-0.5-1.3h-3.1l-0.5,1.3c0,0.1-0.1,0.2-0.2,0.3c-0.2,0.2-0.6,0.2-0.7,0c-0.1-0.1-0.1-0.2-0.1-0.4c0-0.1,0-0.1,0-0.2l2.6-6.2
	c0-0.1,0.1-0.2,0.2-0.3c0.1-0.1,0.2-0.1,0.4-0.1c0.1,0,0.2,0,0.3,0.1c0.1,0.1,0.2,0.2,0.2,0.3l2.6,6.1
	C113.6,68.5,113.6,68.5,113.6,68.6z M109.3,66.4h2.1l-1.1-2.4L109.3,66.4z"/>
<path class="st0" d="M119.2,62.1c0.1,0.1,0.2,0.3,0.2,0.4c0,0.2-0.1,0.3-0.2,0.4c-0.1,0.1-0.3,0.2-0.5,0.2h-1.6v5.4
	c0,0.2-0.1,0.3-0.2,0.5c-0.1,0.1-0.3,0.2-0.5,0.2c-0.2,0-0.3-0.1-0.5-0.2c-0.1-0.1-0.2-0.3-0.2-0.5v-5.4h-1.6
	c-0.2,0-0.3-0.1-0.5-0.2c-0.1-0.1-0.2-0.3-0.2-0.4c0-0.2,0.1-0.3,0.2-0.4c0.1-0.1,0.3-0.2,0.5-0.2h4.6C118.9,61.9,119,62,119.2,62.1
	z"/>
<path class="st0" d="M125,68.2c0.1,0.1,0.2,0.3,0.2,0.4c0,0.2-0.1,0.3-0.2,0.4c-0.1,0.1-0.3,0.2-0.5,0.2H121c-0.3,0-0.6-0.3-0.6-0.6
	c0,0,0,0,0,0v-6c0-0.3,0.3-0.6,0.6-0.6c0,0,0,0,0,0h3.5c0.2,0,0.3,0.1,0.5,0.2c0.1,0.1,0.2,0.3,0.2,0.4c0,0.2-0.1,0.3-0.2,0.4
	c-0.1,0.1-0.3,0.2-0.5,0.2h-2.8v1.8h2.4c0.2,0,0.3,0.1,0.5,0.2c0.1,0.1,0.2,0.3,0.2,0.4c0,0.2-0.1,0.3-0.2,0.4
	c-0.1,0.1-0.3,0.2-0.5,0.2h-2.4V68h2.8C124.7,68,124.9,68.1,125,68.2z"/>
<path class="st0" d="M131.1,62.4c0.5,0.3,0.8,0.8,1.1,1.3c0.5,1.2,0.5,2.5,0,3.7c-0.2,0.5-0.6,1-1.1,1.3c-0.5,0.3-1.1,0.5-1.7,0.5
	H127c-0.3,0-0.6-0.3-0.6-0.6c0,0,0,0,0,0v-6c0-0.3,0.3-0.6,0.6-0.6c0,0,0,0,0,0h2.5C130,61.9,130.6,62.1,131.1,62.4z M130.7,67.3
	c0.6-1.1,0.6-2.4,0-3.5c-0.3-0.5-0.8-0.7-1.4-0.7h-1.7V68h1.7C129.9,68,130.4,67.8,130.7,67.3L130.7,67.3z"/>
<path class="st0" d="M142.9,67.4c-0.3,0.6-0.7,1-1.3,1.4c-1.1,0.7-2.5,0.7-3.6,0c-0.5-0.3-1-0.8-1.3-1.4c-0.6-1.2-0.6-2.6,0-3.8
	c0.3-0.6,0.7-1,1.3-1.4c1.1-0.7,2.5-0.7,3.6,0c0.5,0.3,1,0.8,1.3,1.4C143.5,64.8,143.5,66.3,142.9,67.4z M141.7,64.3
	c-0.2-0.4-0.4-0.7-0.8-0.9c-0.3-0.2-0.7-0.3-1.1-0.3c-0.4,0-0.8,0.1-1.1,0.3c-0.3,0.2-0.6,0.5-0.8,0.9c-0.4,0.8-0.4,1.7,0,2.5
	c0.2,0.4,0.4,0.7,0.8,0.9c0.7,0.4,1.6,0.4,2.3,0c0.3-0.2,0.6-0.5,0.8-0.9C142.1,66,142.1,65.1,141.7,64.3L141.7,64.3z"/>
<path class="st0" d="M149.9,62.8c0,0.2-0.1,0.3-0.2,0.4c-0.1,0.1-0.3,0.2-0.4,0.2c-0.1,0-0.2,0-0.4-0.1c-0.3-0.2-0.7-0.2-1.1-0.2
	c-0.4,0-0.9,0.1-1.3,0.3c-0.4,0.2-0.6,0.5-0.8,0.9c-0.2,0.4-0.3,0.8-0.3,1.3c0,0.7,0.2,1.4,0.7,1.9c0.8,0.7,1.9,0.8,2.8,0.4
	c0.1-0.1,0.2-0.1,0.3-0.1c0.2,0,0.3,0.1,0.5,0.2c0.1,0.1,0.2,0.3,0.2,0.4c0,0.1,0,0.2-0.1,0.3c-0.1,0.1-0.1,0.2-0.2,0.2
	c-0.5,0.3-1.1,0.4-1.7,0.4c-0.6,0-1.3-0.1-1.9-0.4c-0.6-0.3-1-0.7-1.4-1.3c-0.4-0.6-0.5-1.3-0.5-2c0-0.7,0.2-1.3,0.5-1.9
	c0.3-0.6,0.8-1,1.3-1.3c0.6-0.3,1.3-0.5,1.9-0.5c0.6,0,1.2,0.1,1.7,0.4C149.8,62.4,149.9,62.6,149.9,62.8z"/>
<path class="st0" d="M155.5,68.2c0.1,0.1,0.2,0.3,0.2,0.4c0,0.2-0.1,0.3-0.2,0.4c-0.1,0.1-0.3,0.2-0.5,0.2h-3.5
	c-0.3,0-0.6-0.3-0.6-0.6c0,0,0,0,0,0v-6c0-0.3,0.3-0.6,0.6-0.6c0,0,0,0,0,0h3.5c0.2,0,0.3,0.1,0.5,0.2c0.1,0.1,0.2,0.3,0.2,0.4
	c0,0.2-0.1,0.3-0.2,0.4c-0.1,0.1-0.3,0.2-0.5,0.2h-2.8v1.8h2.4c0.2,0,0.3,0.1,0.5,0.2c0.1,0.1,0.2,0.3,0.2,0.4
	c0,0.2-0.1,0.3-0.2,0.4c-0.1,0.1-0.3,0.2-0.5,0.2h-2.4V68h2.8C155.3,68,155.4,68.1,155.5,68.2z"/>
<path class="st0" d="M162.6,68.6c0,0.2-0.1,0.3-0.2,0.4c-0.1,0.1-0.3,0.2-0.4,0.2c-0.1,0-0.2,0-0.3-0.1c-0.1-0.1-0.2-0.2-0.2-0.3
	l-0.5-1.3h-3.1l-0.5,1.3c0,0.1-0.1,0.2-0.2,0.3c-0.2,0.2-0.6,0.2-0.7,0c-0.1-0.1-0.1-0.2-0.1-0.4c0-0.1,0-0.1,0-0.2l2.6-6.2
	c0-0.1,0.1-0.2,0.2-0.3c0.1-0.1,0.2-0.1,0.4-0.1c0.1,0,0.2,0,0.3,0.1c0.1,0.1,0.2,0.2,0.2,0.3l2.6,6.1
	C162.6,68.5,162.6,68.5,162.6,68.6z M158.4,66.4h2.1l-1.1-2.4L158.4,66.4z"/>
<path class="st0" d="M169.4,62.1c0.1,0.1,0.2,0.3,0.2,0.4v6.1c0,0.3-0.3,0.6-0.6,0.6c0,0,0,0,0,0c-0.1,0-0.2,0-0.3,0
	c-0.1,0-0.1-0.1-0.2-0.1l-3.8-4.8v4.4c0,0.2-0.1,0.3-0.2,0.4c-0.1,0.1-0.3,0.2-0.4,0.2c-0.2,0-0.3-0.1-0.4-0.2
	c-0.1-0.1-0.2-0.3-0.2-0.4v-6.1c0-0.3,0.3-0.6,0.6-0.6c0,0,0,0,0,0c0.1,0,0.2,0,0.3,0.1c0.1,0,0.2,0.1,0.2,0.2l3.8,4.8v-4.5
	c0-0.2,0.1-0.3,0.2-0.4c0.1-0.1,0.3-0.2,0.4-0.2C169.2,61.9,169.3,62,169.4,62.1z"/>
<path class="st0" d="M77.1,78.4c-0.3,0.6-0.7,1-1.3,1.4c-1.1,0.7-2.5,0.7-3.6,0c-0.5-0.3-1-0.8-1.3-1.4c-0.6-1.2-0.6-2.6,0-3.8
	c0.3-0.6,0.7-1,1.3-1.4c1.1-0.7,2.5-0.7,3.6,0c0.5,0.3,1,0.8,1.3,1.4C77.7,75.8,77.7,77.3,77.1,78.4z M75.9,75.3
	c-0.2-0.4-0.4-0.7-0.8-0.9c-0.3-0.2-0.7-0.3-1.1-0.3c-0.4,0-0.8,0.1-1.1,0.3c-0.3,0.2-0.6,0.5-0.8,0.9c-0.4,0.8-0.4,1.7,0,2.5
	c0.2,0.4,0.4,0.7,0.8,0.9c0.7,0.4,1.6,0.4,2.3,0c0.3-0.2,0.6-0.5,0.8-0.9C76.3,77,76.3,76.1,75.9,75.3L75.9,75.3z"/>
<path class="st0" d="M84,76.8c0.2,0.3,0.4,0.7,0.3,1.2c0.1,0.7-0.2,1.3-0.7,1.7c-0.5,0.3-1.1,0.5-1.7,0.5h-2.6
	c-0.3,0-0.6-0.3-0.6-0.6c0,0,0,0,0,0v-6c0-0.3,0.3-0.6,0.6-0.6c0,0,0,0,0,0H82c1.3,0,2,0.6,2,1.9c0,0.3-0.1,0.6-0.2,0.8
	c-0.2,0.2-0.4,0.4-0.6,0.6C83.5,76.3,83.8,76.5,84,76.8z M82.4,74.3c-0.2-0.1-0.4-0.2-0.6-0.2h-1.7v1.6h1.7c0.2,0,0.4-0.1,0.5-0.2
	c0.2-0.1,0.2-0.3,0.2-0.6C82.6,74.8,82.6,74.5,82.4,74.3z M82.7,78.7c0.2-0.2,0.3-0.5,0.3-0.8c0-0.4-0.1-0.7-0.3-0.8
	C82.4,77,82.2,77,81.9,77h-1.8v2H82C82.2,79,82.5,78.9,82.7,78.7L82.7,78.7z"/>
<path class="st0" d="M86.5,80.1c-0.4-0.1-0.8-0.3-1.1-0.6c-0.2-0.1-0.3-0.3-0.3-0.6c0-0.2,0.1-0.3,0.2-0.4c0.1-0.1,0.3-0.2,0.4-0.2
	c0.1,0,0.3,0,0.4,0.1c0.2,0.2,0.5,0.4,0.8,0.5c0.3,0.1,0.6,0.2,0.9,0.2c0.4,0,0.7-0.1,1-0.3c0.2-0.1,0.4-0.4,0.4-0.6
	c0-0.3-0.2-0.6-0.4-0.7c-0.4-0.2-0.9-0.4-1.3-0.4c-1.5-0.2-2.3-0.9-2.3-2.1c0-0.4,0.1-0.8,0.3-1.1c0.2-0.3,0.6-0.6,0.9-0.7
	c0.4-0.2,0.9-0.3,1.3-0.3c0.4,0,0.8,0.1,1.2,0.2c0.3,0.1,0.7,0.3,1,0.5c0.2,0.1,0.3,0.3,0.3,0.6c0,0.2-0.1,0.3-0.2,0.4
	c-0.1,0.1-0.3,0.2-0.4,0.2c-0.1,0-0.2,0-0.3-0.1c-0.2-0.2-0.5-0.3-0.8-0.4c-0.3-0.1-0.6-0.2-0.9-0.2c-0.4,0-0.7,0.1-1,0.2
	c-0.4,0.2-0.5,0.7-0.2,1.1c0.1,0.1,0.1,0.2,0.2,0.2c0.4,0.2,0.8,0.3,1.2,0.4c0.5,0.1,1,0.2,1.4,0.4c0.3,0.1,0.6,0.4,0.8,0.7
	c0.2,0.3,0.3,0.7,0.3,1.1c0,0.4-0.1,0.8-0.4,1.1c-0.3,0.3-0.6,0.6-1,0.8c-0.4,0.2-0.9,0.3-1.3,0.3C87.4,80.3,87,80.2,86.5,80.1z"/>
<path class="st0" d="M96.3,79.2c0.1,0.1,0.2,0.3,0.2,0.4c0,0.2-0.1,0.3-0.2,0.4c-0.1,0.1-0.3,0.2-0.5,0.2h-3.5
	c-0.3,0-0.6-0.3-0.6-0.6c0,0,0,0,0,0v-6c0-0.3,0.3-0.6,0.6-0.6c0,0,0,0,0,0h3.5c0.2,0,0.3,0.1,0.5,0.2c0.1,0.1,0.2,0.3,0.2,0.4
	c0,0.2-0.1,0.3-0.2,0.4c-0.1,0.1-0.3,0.2-0.5,0.2H93v1.8h2.4c0.2,0,0.3,0.1,0.5,0.2c0.1,0.1,0.2,0.3,0.2,0.4c0,0.2-0.1,0.3-0.2,0.4
	c-0.1,0.1-0.3,0.2-0.5,0.2H93V79h2.8C96,79,96.1,79.1,96.3,79.2z"/>
<path class="st0" d="M103.5,79.4c0.1,0.1,0.1,0.2,0.1,0.3c0,0.1,0,0.2-0.1,0.3c-0.1,0.1-0.3,0.2-0.5,0.2c-0.2,0-0.3,0-0.5-0.1
	c-0.6-0.4-0.8-1.1-0.7-1.7c0-0.2-0.1-0.4-0.2-0.6c-0.2-0.2-0.4-0.2-0.7-0.2h-1.9v2c0,0.2,0,0.3-0.2,0.5c-0.1,0.1-0.2,0.2-0.4,0.2
	c-0.2,0-0.4-0.1-0.5-0.2c-0.1-0.1-0.2-0.3-0.2-0.5v-6c0-0.3,0.3-0.6,0.6-0.6c0,0,0,0,0,0h3c0.4,0,0.7,0.1,1,0.3
	c0.3,0.2,0.6,0.5,0.8,0.8c0.2,0.4,0.3,0.7,0.3,1.1c0,0.4-0.1,0.7-0.3,1c-0.2,0.3-0.4,0.6-0.7,0.8c0.4,0.3,0.7,0.7,0.7,1.2
	c0,0.1,0,0.2,0,0.3c0,0.2,0,0.3,0.1,0.5c0,0.1,0.1,0.2,0.2,0.2C103.4,79.2,103.5,79.3,103.5,79.4z M101.6,76.3
	c0.1-0.1,0.2-0.3,0.3-0.5c0.1-0.2,0.1-0.4,0.1-0.6c0-0.2,0-0.4-0.1-0.5c-0.1-0.2-0.2-0.3-0.3-0.4c-0.1-0.1-0.2-0.1-0.4-0.1h-2.3v2.4
	h2.3C101.3,76.5,101.5,76.4,101.6,76.3L101.6,76.3z"/>
<path class="st0" d="M110.3,73.1c0.1,0.1,0.2,0.3,0.2,0.4c0,0.1,0,0.2-0.1,0.3l-2.6,6c-0.1,0.1-0.1,0.2-0.3,0.3
	c-0.2,0.1-0.5,0.1-0.7,0c-0.1-0.1-0.2-0.2-0.2-0.3l-2.6-6c0-0.1-0.1-0.2-0.1-0.3c0-0.2,0.1-0.3,0.2-0.5c0.1-0.1,0.3-0.2,0.4-0.2
	c0.1,0,0.2,0,0.3,0.1c0.1,0.1,0.2,0.2,0.2,0.3l2.1,4.9l1.9-4.9c0.1-0.1,0.1-0.2,0.2-0.3c0.1-0.1,0.2-0.1,0.3-0.1
	C110.1,72.9,110.2,73,110.3,73.1z"/>
<path class="st0" d="M112.7,80c-0.1,0.1-0.3,0.2-0.5,0.2c-0.2,0-0.3-0.1-0.5-0.2c-0.1-0.1-0.2-0.3-0.2-0.5v-6c0-0.2,0.1-0.3,0.2-0.5
	c0.1-0.1,0.3-0.2,0.5-0.2c0.2,0,0.3,0.1,0.4,0.2c0.1,0.1,0.2,0.3,0.2,0.5v6C112.9,79.7,112.8,79.9,112.7,80z"/>
<path class="st0" d="M120.3,73.1c0.1,0.1,0.2,0.3,0.2,0.4v6.1c0,0.3-0.3,0.6-0.6,0.6c0,0,0,0,0,0c-0.1,0-0.2,0-0.3,0
	c-0.1,0-0.1-0.1-0.2-0.1l-3.8-4.8v4.4c0,0.2-0.1,0.3-0.2,0.4c-0.1,0.1-0.3,0.2-0.4,0.2c-0.2,0-0.3-0.1-0.4-0.2
	c-0.1-0.1-0.2-0.3-0.2-0.4v-6.1c0-0.3,0.3-0.6,0.6-0.6c0,0,0,0,0,0c0.1,0,0.2,0,0.3,0.1c0.1,0,0.2,0.1,0.2,0.2l3.8,4.8v-4.5
	c0-0.2,0.1-0.3,0.2-0.4c0.1-0.1,0.3-0.2,0.4-0.2C120.1,72.9,120.2,73,120.3,73.1z"/>
<path class="st0" d="M127.8,76.4c0.1,0.1,0.2,0.3,0.2,0.5v2.2c0,0.2-0.1,0.4-0.3,0.6c-0.7,0.4-1.4,0.6-2.2,0.6
	c-1.3,0-2.6-0.7-3.3-1.9c-0.7-1.2-0.7-2.6,0-3.8c0.3-0.6,0.8-1,1.4-1.4c0.6-0.3,1.2-0.5,1.9-0.5c0.6,0,1.2,0.1,1.8,0.4
	c0.2,0.1,0.3,0.3,0.3,0.5c0,0.2-0.1,0.3-0.2,0.5c-0.1,0.1-0.3,0.2-0.4,0.2c-0.1,0-0.2,0-0.3-0.1c-0.4-0.2-0.8-0.2-1.2-0.2
	c-0.4,0-0.9,0.1-1.2,0.3c-0.4,0.2-0.7,0.5-0.9,0.9c-0.7,1.2-0.3,2.7,0.9,3.4c0.4,0.2,0.8,0.3,1.2,0.3c0.2,0,0.4,0,0.6-0.1
	c0.2,0,0.4-0.1,0.6-0.1v-1.4h-1c-0.2,0-0.3-0.1-0.5-0.2c-0.2-0.2-0.2-0.6,0-0.9c0.1-0.1,0.3-0.2,0.5-0.2h1.7
	C127.6,76.3,127.7,76.3,127.8,76.4z"/>
<path class="st0" d="M133.1,80.1c-0.4-0.1-0.8-0.3-1.1-0.6c-0.2-0.1-0.3-0.3-0.3-0.6c0-0.2,0.1-0.3,0.2-0.4c0.1-0.1,0.3-0.2,0.4-0.2
	c0.1,0,0.3,0,0.4,0.1c0.2,0.2,0.5,0.4,0.8,0.5c0.3,0.1,0.6,0.2,0.9,0.2c0.4,0,0.7-0.1,1-0.3c0.2-0.1,0.4-0.4,0.4-0.6
	c0-0.3-0.2-0.6-0.4-0.7c-0.4-0.2-0.9-0.4-1.3-0.4c-1.5-0.2-2.3-0.9-2.3-2.1c0-0.4,0.1-0.8,0.3-1.1c0.2-0.3,0.6-0.6,0.9-0.7
	c0.4-0.2,0.9-0.3,1.3-0.3c0.4,0,0.8,0.1,1.2,0.2c0.3,0.1,0.7,0.3,1,0.5c0.2,0.1,0.3,0.3,0.3,0.6c0,0.2-0.1,0.3-0.2,0.4
	c-0.1,0.1-0.3,0.2-0.4,0.2c-0.1,0-0.2,0-0.3-0.1c-0.2-0.2-0.5-0.3-0.8-0.4c-0.3-0.1-0.6-0.2-0.9-0.2c-0.4,0-0.7,0.1-1,0.2
	c-0.4,0.2-0.5,0.7-0.2,1.1c0.1,0.1,0.1,0.2,0.2,0.2c0.4,0.2,0.8,0.3,1.2,0.4c0.5,0.1,1,0.2,1.4,0.4c0.3,0.1,0.6,0.4,0.8,0.7
	c0.2,0.3,0.3,0.7,0.3,1.1c0,0.4-0.1,0.8-0.4,1.1c-0.3,0.3-0.6,0.6-1,0.8c-0.4,0.2-0.9,0.3-1.3,0.3C134,80.3,133.6,80.2,133.1,80.1z"
	/>
<path class="st0" d="M143.3,73.9l-2.2,3.1v2.5c0,0.2-0.1,0.3-0.2,0.5c-0.1,0.1-0.3,0.2-0.4,0.2c-0.2,0-0.3-0.1-0.4-0.2
	c-0.1-0.1-0.2-0.3-0.2-0.5v-2.7l-2.2-2.9c-0.1-0.1-0.2-0.3-0.2-0.5c0-0.2,0.1-0.3,0.2-0.5c0.1-0.1,0.3-0.2,0.5-0.2
	c0.2,0,0.4,0.1,0.5,0.3l1.8,2.5l1.7-2.5c0.1-0.2,0.3-0.3,0.5-0.3c0.2,0,0.3,0.1,0.4,0.2c0.1,0.1,0.2,0.3,0.2,0.5
	C143.4,73.7,143.4,73.8,143.3,73.9z"/>
<path class="st0" d="M145.1,80.1c-0.4-0.1-0.8-0.3-1.1-0.6c-0.2-0.1-0.3-0.3-0.3-0.6c0-0.2,0.1-0.3,0.2-0.4c0.1-0.1,0.3-0.2,0.4-0.2
	c0.1,0,0.3,0,0.4,0.1c0.2,0.2,0.5,0.4,0.8,0.5c0.3,0.1,0.6,0.2,0.9,0.2c0.4,0,0.7-0.1,1-0.3c0.2-0.1,0.4-0.4,0.4-0.6
	c0-0.3-0.2-0.6-0.4-0.7c-0.4-0.2-0.9-0.4-1.3-0.4c-1.5-0.2-2.3-0.9-2.3-2.1c0-0.4,0.1-0.8,0.3-1.1c0.2-0.3,0.6-0.6,0.9-0.7
	c0.4-0.2,0.9-0.3,1.3-0.3c0.4,0,0.8,0.1,1.2,0.2c0.3,0.1,0.7,0.3,1,0.5c0.2,0.1,0.3,0.3,0.3,0.6c0,0.2-0.1,0.3-0.2,0.4
	c-0.1,0.1-0.3,0.2-0.4,0.2c-0.1,0-0.2,0-0.3-0.1c-0.2-0.2-0.5-0.3-0.8-0.4c-0.3-0.1-0.6-0.2-0.9-0.2c-0.4,0-0.7,0.1-1,0.2
	c-0.4,0.2-0.5,0.7-0.2,1.1c0.1,0.1,0.1,0.2,0.2,0.2c0.4,0.2,0.8,0.3,1.2,0.4c0.5,0.1,1,0.2,1.4,0.4c0.3,0.1,0.6,0.4,0.8,0.7
	c0.2,0.3,0.3,0.7,0.3,1.1c0,0.4-0.1,0.8-0.4,1.1c-0.3,0.3-0.6,0.6-1,0.8c-0.4,0.2-0.9,0.3-1.3,0.3C145.9,80.3,145.5,80.2,145.1,80.1
	z"/>
<path class="st0" d="M155.5,73.1c0.1,0.1,0.2,0.3,0.2,0.4c0,0.2-0.1,0.3-0.2,0.4c-0.1,0.1-0.3,0.2-0.5,0.2h-1.6v5.4
	c0,0.2-0.1,0.3-0.2,0.5c-0.1,0.1-0.3,0.2-0.5,0.2c-0.2,0-0.4-0.1-0.5-0.2c-0.1-0.1-0.2-0.3-0.2-0.5v-5.4h-1.6
	c-0.2,0-0.3-0.1-0.5-0.2c-0.1-0.1-0.2-0.3-0.2-0.4c0-0.2,0.1-0.3,0.2-0.4c0.1-0.1,0.3-0.2,0.5-0.2h4.6
	C155.2,72.9,155.3,73,155.5,73.1z"/>
<path class="st0" d="M161.3,79.2c0.1,0.1,0.2,0.3,0.2,0.4c0,0.2-0.1,0.3-0.2,0.4c-0.1,0.1-0.3,0.2-0.5,0.2h-3.5
	c-0.3,0-0.6-0.3-0.6-0.6c0,0,0,0,0,0v-6c0-0.3,0.3-0.6,0.6-0.6c0,0,0,0,0,0h3.5c0.2,0,0.3,0.1,0.5,0.2c0.1,0.1,0.2,0.3,0.2,0.4
	c0,0.2-0.1,0.3-0.2,0.4c-0.1,0.1-0.3,0.2-0.5,0.2H158v1.8h2.4c0.2,0,0.3,0.1,0.5,0.2c0.1,0.1,0.2,0.3,0.2,0.4c0,0.2-0.1,0.3-0.2,0.4
	c-0.1,0.1-0.3,0.2-0.5,0.2H158V79h2.8C161,79,161.2,79.1,161.3,79.2z"/>
<path class="st0" d="M169.4,73.1c0.1,0.1,0.2,0.3,0.2,0.5v6c0,0.3-0.3,0.6-0.6,0.6c0,0,0,0-0.1,0c-0.2,0-0.3-0.1-0.5-0.2
	c-0.1-0.1-0.2-0.3-0.2-0.5v-4.2l-1.7,2.6c-0.1,0.1-0.1,0.2-0.2,0.2c-0.1,0.1-0.2,0.1-0.3,0.1c-0.1,0-0.2,0-0.3-0.1
	c-0.1-0.1-0.2-0.1-0.2-0.2l-1.7-2.7v4.3c0,0.2-0.1,0.3-0.2,0.5c-0.1,0.1-0.3,0.2-0.4,0.2c-0.2,0-0.3-0.1-0.4-0.2
	c-0.1-0.1-0.2-0.3-0.2-0.5v-6c0-0.2,0.1-0.3,0.2-0.4c0.1-0.1,0.3-0.2,0.5-0.2c0.1,0,0.2,0,0.3,0.1c0.1,0,0.2,0.1,0.2,0.2l2.3,3.5
	l2.3-3.5c0.1-0.1,0.1-0.2,0.2-0.2c0.1-0.1,0.2-0.1,0.3-0.1C169.1,72.9,169.3,73,169.4,73.1z"/>
<path class="st0" d="M299.4,52.9c-2.2-1-4.2-2.4-5.9-4.1c-0.4-0.3-0.7-0.8-0.7-1.3c0-0.5,0.2-0.9,0.5-1.2c0.3-0.3,0.7-0.5,1.2-0.5
	c0.5,0,0.9,0.2,1.2,0.5c2.7,3.1,6.6,4.8,10.7,4.7c2.3,0.1,4.6-0.6,6.5-1.9c1.6-1.1,2.6-2.9,2.6-4.9c0.1-1.4-0.4-2.8-1.3-3.9
	c-0.9-1.1-2.1-2-3.4-2.5c-1.7-0.8-3.5-1.5-5.3-2c-2-0.6-4-1.3-5.9-2.3c-1.5-0.8-2.9-2-3.9-3.4c-1-1.6-1.6-3.5-1.5-5.3
	c0-1.8,0.5-3.6,1.6-5.1c1.1-1.6,2.6-2.8,4.4-3.5c2-0.9,4.3-1.3,6.5-1.3c2.1,0,4.3,0.4,6.3,1.1c1.8,0.6,3.4,1.8,4.7,3.2
	c0.4,0.4,0.7,1,0.8,1.6c0,0.4-0.2,0.8-0.5,1.1c-0.3,0.3-0.8,0.5-1.2,0.5c-0.4,0-0.7-0.1-0.9-0.4c-1.1-1.2-2.4-2.2-3.9-2.8
	c-1.6-0.7-3.4-1.1-5.1-1.1c-2.3-0.1-4.6,0.5-6.5,1.8c-1.6,1.1-2.6,2.9-2.5,4.8c-0.1,1.9,0.8,3.8,2.4,4.9c2.1,1.4,4.5,2.4,6.9,3.1
	c2.2,0.6,4.3,1.4,6.4,2.4c1.6,0.8,3,2,4,3.4c1.1,1.7,1.7,3.8,1.6,5.8c0,1.8-0.6,3.6-1.6,5.1c-1.2,1.6-2.7,2.8-4.5,3.6
	c-2.1,0.9-4.3,1.4-6.5,1.3C304,54.3,301.6,53.9,299.4,52.9z"/>
<path class="st0" d="M334.7,53.2c-0.3,0.3-0.8,0.5-1.2,0.5c-0.9,0.1-1.6-0.6-1.7-1.5c0-0.1,0-0.1,0-0.2v-35c0-0.5,0.2-0.9,0.5-1.2
	c0.3-0.3,0.8-0.5,1.3-0.5c0.9,0,1.7,0.7,1.7,1.7c0,0,0,0,0,0v35C335.3,52.5,335.1,52.9,334.7,53.2z"/>
<path class="st0" d="M380.4,44.7c-4.6,8.8-15.4,12.3-24.3,7.7c-3.3-1.7-6-4.4-7.7-7.7c-1.6-3.1-2.4-6.6-2.4-10.1
	c-0.1-3.5,0.7-7,2.4-10.2c1.5-2.9,3.7-5.3,6.5-7c5.9-3.4,13.1-3.4,19,0c2.8,1.7,5,4.1,6.5,7c1.6,3.2,2.4,6.7,2.4,10.2
	C382.8,38.1,382,41.5,380.4,44.7z M377.3,26c-1.2-2.4-3-4.4-5.3-5.8c-4.8-2.8-10.6-2.8-15.4,0c-2.3,1.4-4.1,3.4-5.3,5.8
	c-1.3,2.7-1.9,5.6-1.9,8.5c-0.1,2.9,0.6,5.9,1.9,8.5c1.2,2.4,3,4.4,5.3,5.8c4.8,2.8,10.6,2.8,15.4,0c2.3-1.4,4.1-3.4,5.3-5.8
	c1.3-2.7,1.9-5.6,1.9-8.5C379.3,31.6,378.6,28.7,377.3,26L377.3,26z"/>
<path class="st0" d="M425.4,44.7c-4.6,8.8-15.4,12.3-24.3,7.7c-3.3-1.7-6-4.4-7.7-7.7c-1.6-3.1-2.4-6.6-2.4-10.1
	c-0.1-3.5,0.7-7,2.4-10.2c1.5-2.9,3.7-5.3,6.5-7c5.9-3.4,13.1-3.4,19,0c2.8,1.7,5,4.1,6.5,7c1.6,3.2,2.4,6.7,2.4,10.2
	C427.8,38.1,427,41.5,425.4,44.7z M422.3,26c-1.2-2.4-3-4.4-5.3-5.8c-4.8-2.8-10.6-2.8-15.4,0c-2.3,1.4-4.1,3.4-5.3,5.8
	c-1.3,2.7-1.9,5.6-1.9,8.5c-0.1,2.9,0.6,5.9,1.9,8.5c1.2,2.4,3,4.4,5.3,5.8c4.8,2.8,10.6,2.8,15.4,0c2.3-1.4,4.1-3.4,5.3-5.8
	c1.3-2.7,1.9-5.6,1.9-8.5C424.3,31.6,423.6,28.7,422.3,26L422.3,26z"/>
<path class="st0" d="M467.3,19.6c0,0.4-0.2,0.8-0.4,1.1c-0.3,0.4-0.8,0.6-1.3,0.6c-0.3,0-0.6-0.1-0.9-0.3c-2.8-1.9-6.2-2.9-9.6-2.9
	c-2.8,0-5.6,0.7-8,2.1c-2.4,1.4-4.3,3.4-5.6,5.8c-1.4,2.6-2.1,5.6-2.1,8.5c-0.1,3,0.7,6,2.1,8.6c1.3,2.4,3.3,4.4,5.7,5.8
	c2.4,1.4,5.2,2.1,8,2.1c3.4,0,6.7-1,9.5-2.8c0.3-0.2,0.6-0.3,0.9-0.3c0.5,0,1,0.2,1.3,0.7c0.3,0.3,0.4,0.7,0.4,1
	c0,0.5-0.3,1.1-0.8,1.3c-1.6,1-3.4,1.8-5.3,2.4c-2,0.6-4,0.9-6.1,1c-3.4,0-6.7-0.8-9.6-2.5c-2.9-1.6-5.4-4.1-7-7
	c-1.8-3.1-2.7-6.7-2.6-10.2c0-3.5,0.8-7,2.6-10.1c1.6-2.9,4-5.4,7-7.1c2.9-1.7,6.3-2.6,9.7-2.5c2,0,4.1,0.3,6,0.9
	c1.9,0.5,3.7,1.4,5.3,2.5C467,18.5,467.3,19,467.3,19.6z"/>
<path class="st0" d="M294.2,69.1c-0.4-0.1-0.8-0.3-1.1-0.6c-0.2-0.1-0.3-0.3-0.3-0.6c0-0.2,0.1-0.3,0.2-0.4c0.1-0.1,0.3-0.2,0.4-0.2
	c0.1,0,0.3,0,0.4,0.1c0.2,0.2,0.5,0.4,0.8,0.5c0.3,0.1,0.6,0.2,0.9,0.2c0.4,0,0.7-0.1,1-0.3c0.2-0.1,0.4-0.4,0.4-0.6
	c0-0.3-0.2-0.6-0.4-0.7c-0.4-0.2-0.9-0.4-1.3-0.4c-1.5-0.2-2.3-0.9-2.3-2.1c0-0.4,0.1-0.8,0.3-1.1c0.2-0.3,0.6-0.6,0.9-0.7
	c0.4-0.2,0.9-0.3,1.3-0.3c0.4,0,0.8,0.1,1.2,0.2c0.3,0.1,0.7,0.3,1,0.5c0.2,0.1,0.3,0.3,0.3,0.6c0,0.2-0.1,0.3-0.2,0.4
	c-0.1,0.1-0.3,0.2-0.4,0.2c-0.1,0-0.2,0-0.3-0.1c-0.2-0.2-0.5-0.3-0.8-0.4c-0.3-0.1-0.6-0.2-0.9-0.2c-0.4,0-0.7,0.1-1,0.2
	c-0.4,0.2-0.5,0.7-0.2,1.1c0.1,0.1,0.1,0.2,0.2,0.2c0.4,0.2,0.8,0.3,1.2,0.4c0.5,0.1,1,0.2,1.4,0.4c0.3,0.1,0.6,0.4,0.8,0.7
	c0.2,0.3,0.3,0.7,0.3,1.1c0,0.4-0.1,0.8-0.4,1.1c-0.3,0.3-0.6,0.6-1,0.8c-0.4,0.2-0.9,0.3-1.3,0.3C295,69.3,294.6,69.2,294.2,69.1z"
	/>
<path class="st0" d="M304.3,62.9l-2.2,3.1v2.5c0,0.2-0.1,0.3-0.2,0.5c-0.1,0.1-0.3,0.2-0.4,0.2c-0.2,0-0.3-0.1-0.4-0.2
	c-0.1-0.1-0.2-0.3-0.2-0.5v-2.7l-2.2-2.9c-0.1-0.1-0.2-0.3-0.2-0.5c0-0.2,0.1-0.3,0.2-0.5c0.1-0.1,0.3-0.2,0.5-0.2
	c0.2,0,0.4,0.1,0.5,0.3l1.8,2.5l1.7-2.5c0.1-0.2,0.3-0.3,0.5-0.3c0.2,0,0.3,0.1,0.4,0.2c0.1,0.1,0.2,0.3,0.2,0.5
	C304.4,62.7,304.4,62.8,304.3,62.9z"/>
<path class="st0" d="M306.1,69.1c-0.4-0.1-0.8-0.3-1.1-0.6c-0.2-0.1-0.3-0.3-0.3-0.6c0-0.2,0.1-0.3,0.2-0.4c0.1-0.1,0.3-0.2,0.4-0.2
	c0.1,0,0.3,0,0.4,0.1c0.2,0.2,0.5,0.4,0.8,0.5c0.3,0.1,0.6,0.2,0.9,0.2c0.4,0,0.7-0.1,1-0.3c0.2-0.1,0.4-0.4,0.4-0.6
	c0-0.3-0.2-0.6-0.4-0.7c-0.4-0.2-0.9-0.4-1.3-0.4c-1.5-0.2-2.3-0.9-2.3-2.1c0-0.4,0.1-0.8,0.3-1.1c0.2-0.3,0.6-0.6,0.9-0.7
	c0.4-0.2,0.9-0.3,1.3-0.3c0.4,0,0.8,0.1,1.2,0.2c0.3,0.1,0.7,0.3,1,0.5c0.2,0.1,0.3,0.3,0.3,0.6c0,0.2-0.1,0.3-0.2,0.4
	c-0.1,0.1-0.3,0.2-0.4,0.2c-0.1,0-0.2,0-0.3-0.1c-0.2-0.2-0.5-0.3-0.8-0.4c-0.3-0.1-0.6-0.2-0.9-0.2c-0.4,0-0.7,0.1-1,0.2
	c-0.4,0.2-0.5,0.7-0.2,1.1c0.1,0.1,0.1,0.2,0.2,0.2c0.4,0.2,0.8,0.3,1.2,0.4c0.5,0.1,1,0.2,1.4,0.4c0.3,0.1,0.6,0.4,0.8,0.7
	c0.2,0.3,0.3,0.7,0.3,1.1c0,0.4-0.1,0.8-0.4,1.1c-0.3,0.3-0.6,0.6-1,0.8c-0.4,0.2-0.9,0.3-1.3,0.3C307,69.3,306.5,69.2,306.1,69.1z"
	/>
<path class="st0" d="M316.5,62.1c0.1,0.1,0.2,0.3,0.2,0.4c0,0.2-0.1,0.3-0.2,0.4c-0.1,0.1-0.3,0.2-0.5,0.2h-1.6v5.4
	c0,0.2-0.1,0.3-0.2,0.5c-0.1,0.1-0.3,0.2-0.5,0.2c-0.2,0-0.3-0.1-0.5-0.2c-0.1-0.1-0.2-0.3-0.2-0.5v-5.4h-1.6
	c-0.2,0-0.3-0.1-0.5-0.2c-0.1-0.1-0.2-0.3-0.2-0.4c0-0.2,0.1-0.3,0.2-0.4c0.1-0.1,0.3-0.2,0.5-0.2h4.6
	C316.2,61.9,316.4,62,316.5,62.1z"/>
<path class="st0" d="M322.3,68.2c0.1,0.1,0.2,0.3,0.2,0.4c0,0.2-0.1,0.3-0.2,0.4c-0.1,0.1-0.3,0.2-0.5,0.2h-3.5
	c-0.3,0-0.6-0.3-0.6-0.6c0,0,0,0,0,0v-6c0-0.3,0.3-0.6,0.6-0.6c0,0,0,0,0,0h3.5c0.2,0,0.3,0.1,0.5,0.2c0.1,0.1,0.2,0.3,0.2,0.4
	c0,0.2-0.1,0.3-0.2,0.4c-0.1,0.1-0.3,0.2-0.5,0.2H319v1.8h2.4c0.2,0,0.3,0.1,0.5,0.2c0.1,0.1,0.2,0.3,0.2,0.4c0,0.2-0.1,0.3-0.2,0.4
	c-0.1,0.1-0.3,0.2-0.5,0.2H319V68h2.8C322,68,322.2,68.1,322.3,68.2z M319.9,61.4l-1-0.6c-0.1-0.1-0.2-0.1-0.3-0.2
	c-0.1-0.1-0.1-0.2-0.1-0.3c0-0.1,0.1-0.3,0.2-0.4c0.1-0.1,0.2-0.1,0.4-0.1c0.2,0,0.4,0.1,0.5,0.2l0.9,0.8c0.1,0.1,0.1,0.2,0.1,0.3
	c0,0.1,0,0.2-0.1,0.3c-0.1,0.1-0.2,0.1-0.3,0.1C320,61.5,319.9,61.4,319.9,61.4z"/>
<path class="st0" d="M330.4,62.1c0.1,0.1,0.2,0.3,0.2,0.5v6c0,0.3-0.3,0.6-0.6,0.6c0,0,0,0-0.1,0c-0.2,0-0.3-0.1-0.5-0.2
	c-0.1-0.1-0.2-0.3-0.2-0.5v-4.2l-1.7,2.6c-0.1,0.1-0.1,0.2-0.2,0.2c-0.1,0.1-0.2,0.1-0.3,0.1c-0.1,0-0.2,0-0.3-0.1
	c-0.1-0.1-0.2-0.1-0.2-0.2l-1.7-2.7v4.3c0,0.2-0.1,0.3-0.2,0.5c-0.1,0.1-0.3,0.2-0.4,0.2c-0.2,0-0.3-0.1-0.4-0.2
	c-0.1-0.1-0.2-0.3-0.2-0.5v-6c0-0.2,0.1-0.3,0.2-0.4c0.1-0.1,0.3-0.2,0.5-0.2c0.1,0,0.2,0,0.3,0.1c0.1,0,0.2,0.1,0.2,0.2l2.3,3.5
	l2.3-3.5c0.1-0.1,0.1-0.2,0.2-0.2c0.1-0.1,0.2-0.1,0.3-0.1C330.1,61.9,330.3,62,330.4,62.1z"/>
<path class="st0" d="M336.7,68.2c0.1,0.1,0.2,0.3,0.2,0.4c0,0.2-0.1,0.3-0.2,0.4c-0.1,0.1-0.3,0.2-0.5,0.2h-3.5
	c-0.3,0-0.6-0.3-0.6-0.6c0,0,0,0,0,0v-6c0-0.3,0.3-0.6,0.6-0.6c0,0,0,0,0,0h3.5c0.2,0,0.3,0.1,0.5,0.2c0.1,0.1,0.2,0.3,0.2,0.4
	c0,0.2-0.1,0.3-0.2,0.4c-0.1,0.1-0.3,0.2-0.5,0.2h-2.8v1.8h2.4c0.2,0,0.3,0.1,0.5,0.2c0.1,0.1,0.2,0.3,0.2,0.4
	c0,0.2-0.1,0.3-0.2,0.4c-0.1,0.1-0.3,0.2-0.5,0.2h-2.4V68h2.8C336.4,68,336.6,68.1,336.7,68.2z"/>
<path class="st0" d="M342,69c-0.1,0.1-0.3,0.2-0.5,0.2c-0.2,0-0.3-0.1-0.5-0.2c-0.1-0.1-0.2-0.3-0.2-0.5v-6c0-0.2,0.1-0.3,0.2-0.5
	c0.1-0.1,0.3-0.2,0.5-0.2c0.2,0,0.3,0.1,0.4,0.2c0.1,0.1,0.2,0.3,0.2,0.5v6C342.2,68.7,342.2,68.9,342,69z"/>
<path class="st0" d="M349.7,62.1c0.1,0.1,0.2,0.3,0.2,0.4v6.1c0,0.3-0.3,0.6-0.6,0.6c0,0,0,0,0,0c-0.1,0-0.2,0-0.3,0
	c-0.1,0-0.1-0.1-0.2-0.1l-3.8-4.8v4.4c0,0.2-0.1,0.3-0.2,0.4c-0.1,0.1-0.3,0.2-0.4,0.2c-0.2,0-0.3-0.1-0.4-0.2
	c-0.1-0.1-0.2-0.3-0.2-0.4v-6.1c0-0.3,0.3-0.6,0.6-0.6c0,0,0,0,0,0c0.1,0,0.2,0,0.3,0.1c0.1,0,0.2,0.1,0.2,0.2l3.8,4.8v-4.5
	c0-0.2,0.1-0.3,0.2-0.4c0.1-0.1,0.3-0.2,0.4-0.2C349.4,61.9,349.6,62,349.7,62.1z"/>
<path class="st0" d="M356.6,62.1c0.1,0.1,0.2,0.3,0.2,0.4c0,0.2-0.1,0.3-0.2,0.4c-0.1,0.1-0.3,0.2-0.5,0.2h-1.6v5.4
	c0,0.2-0.1,0.3-0.2,0.5c-0.1,0.1-0.3,0.2-0.5,0.2c-0.2,0-0.4-0.1-0.5-0.2c-0.1-0.1-0.2-0.3-0.2-0.5v-5.4h-1.6
	c-0.2,0-0.3-0.1-0.5-0.2c-0.1-0.1-0.2-0.3-0.2-0.4c0-0.2,0.1-0.3,0.2-0.4c0.1-0.1,0.3-0.2,0.5-0.2h4.6
	C356.3,61.9,356.5,62,356.6,62.1z"/>
<path class="st0" d="M362.4,68.2c0.1,0.1,0.2,0.3,0.2,0.4c0,0.2-0.1,0.3-0.2,0.4c-0.1,0.1-0.3,0.2-0.5,0.2h-3.5
	c-0.3,0-0.6-0.3-0.6-0.6c0,0,0,0,0,0v-6c0-0.3,0.3-0.6,0.6-0.6c0,0,0,0,0,0h3.5c0.2,0,0.3,0.1,0.5,0.2c0.1,0.1,0.2,0.3,0.2,0.4
	c0,0.2-0.1,0.3-0.2,0.4c-0.1,0.1-0.3,0.2-0.5,0.2h-2.8v1.8h2.4c0.2,0,0.3,0.1,0.5,0.2c0.1,0.1,0.2,0.3,0.2,0.4
	c0,0.2-0.1,0.3-0.2,0.4c-0.1,0.1-0.3,0.2-0.5,0.2h-2.4V68h2.8C362.1,68,362.3,68.1,362.4,68.2z M359.9,61.4
	c-0.1-0.1-0.1-0.2-0.1-0.3c0-0.1,0.1-0.2,0.1-0.3l0.9-0.8c0.1-0.1,0.3-0.2,0.5-0.2c0.1,0,0.3,0.1,0.4,0.1c0.1,0.1,0.2,0.2,0.2,0.4
	c0,0.1,0,0.2-0.1,0.3c-0.1,0.1-0.2,0.2-0.3,0.2l-1,0.6C360.3,61.5,360.1,61.5,359.9,61.4L359.9,61.4z"/>
<path class="st0" d="M369.6,65.4c0.1,0.1,0.2,0.3,0.2,0.5v2.2c0,0.2-0.1,0.4-0.3,0.6c-0.7,0.4-1.4,0.6-2.2,0.6
	c-1.3,0-2.6-0.7-3.3-1.9c-0.7-1.2-0.7-2.6,0-3.8c0.3-0.6,0.8-1,1.4-1.4c0.6-0.3,1.2-0.5,1.9-0.5c0.6,0,1.2,0.1,1.8,0.4
	c0.2,0.1,0.3,0.3,0.3,0.5c0,0.2-0.1,0.3-0.2,0.5c-0.1,0.1-0.3,0.2-0.4,0.2c-0.1,0-0.2,0-0.3-0.1c-0.4-0.2-0.8-0.2-1.2-0.2
	c-0.4,0-0.9,0.1-1.2,0.3c-0.4,0.2-0.7,0.5-0.9,0.9c-0.4,0.8-0.4,1.7,0,2.5c0.2,0.4,0.5,0.7,0.9,0.9c0.4,0.2,0.8,0.3,1.2,0.3
	c0.2,0,0.4,0,0.6-0.1c0.2,0,0.4-0.1,0.6-0.1v-1.4h-1c-0.2,0-0.3-0.1-0.5-0.2c-0.2-0.2-0.2-0.6,0-0.9c0.1-0.1,0.3-0.2,0.5-0.2h1.7
	C369.3,65.3,369.5,65.3,369.6,65.4z"/>
<path class="st0" d="M376.9,68.4c0.1,0.1,0.1,0.2,0.1,0.3c0,0.1,0,0.2-0.1,0.3c-0.1,0.1-0.3,0.2-0.5,0.2c-0.2,0-0.3,0-0.5-0.1
	c-0.6-0.4-0.8-1.1-0.7-1.7c0-0.2-0.1-0.4-0.2-0.6c-0.2-0.2-0.4-0.2-0.7-0.2h-1.9v2c0,0.2,0,0.3-0.1,0.5c-0.1,0.1-0.2,0.2-0.4,0.2
	c-0.2,0-0.4-0.1-0.5-0.2c-0.1-0.1-0.2-0.3-0.2-0.5v-6c0-0.3,0.3-0.6,0.6-0.6c0,0,0,0,0,0h3c0.4,0,0.7,0.1,1,0.3
	c0.3,0.2,0.6,0.5,0.8,0.8c0.2,0.4,0.3,0.7,0.3,1.1c0,0.4-0.1,0.7-0.3,1c-0.2,0.3-0.4,0.6-0.7,0.8c0.4,0.3,0.7,0.7,0.7,1.2
	c0,0.1,0,0.2,0,0.3c0,0.2,0,0.3,0.1,0.5c0,0.1,0.1,0.2,0.2,0.2C376.8,68.2,376.8,68.3,376.9,68.4z M374.9,65.3
	c0.1-0.1,0.2-0.3,0.3-0.5c0.1-0.2,0.1-0.4,0.1-0.6c0-0.2,0-0.4-0.1-0.5c-0.1-0.2-0.2-0.3-0.3-0.4c-0.1-0.1-0.2-0.1-0.4-0.1h-2.3v2.4
	h2.3C374.7,65.5,374.8,65.4,374.9,65.3L374.9,65.3z"/>
<path class="st0" d="M382.7,68.2c0.1,0.1,0.2,0.3,0.2,0.4c0,0.2-0.1,0.3-0.2,0.4c-0.1,0.1-0.3,0.2-0.5,0.2h-3.5
	c-0.3,0-0.6-0.3-0.6-0.6c0,0,0,0,0,0v-6c0-0.3,0.3-0.6,0.6-0.6c0,0,0,0,0,0h3.5c0.2,0,0.3,0.1,0.5,0.2c0.1,0.1,0.2,0.3,0.2,0.4
	c0,0.2-0.1,0.3-0.2,0.4c-0.1,0.1-0.3,0.2-0.5,0.2h-2.8v1.8h2.4c0.2,0,0.3,0.1,0.5,0.2c0.1,0.1,0.2,0.3,0.2,0.4
	c0,0.2-0.1,0.3-0.2,0.4c-0.1,0.1-0.3,0.2-0.5,0.2h-2.4V68h2.8C382.4,68,382.5,68.1,382.7,68.2z M380.2,61.4
	c-0.1-0.1-0.1-0.2-0.1-0.3c0-0.1,0.1-0.2,0.1-0.3l0.9-0.8c0.1-0.1,0.3-0.2,0.5-0.2c0.1,0,0.3,0.1,0.4,0.1c0.1,0.1,0.2,0.2,0.2,0.4
	c0,0.1,0,0.2-0.1,0.3c-0.1,0.1-0.2,0.2-0.3,0.2l-1,0.6C380.6,61.5,380.3,61.5,380.2,61.4L380.2,61.4z"/>
<path class="st0" d="M391.7,62.4c0.5,0.3,0.8,0.8,1.1,1.3c0.5,1.2,0.5,2.5,0,3.7c-0.2,0.5-0.6,1-1.1,1.3c-0.5,0.3-1.1,0.5-1.7,0.5
	h-2.5c-0.3,0-0.6-0.3-0.6-0.6c0,0,0,0,0,0v-6c0-0.3,0.3-0.6,0.6-0.6c0,0,0,0,0,0h2.5C390.6,61.9,391.2,62.1,391.7,62.4z M391.3,67.3
	c0.6-1.1,0.6-2.4,0-3.5c-0.3-0.5-0.8-0.7-1.4-0.7h-1.7V68h1.7C390.5,68,391,67.8,391.3,67.3L391.3,67.3z"/>
<path class="st0" d="M395.6,63.6c-0.1,0.2-0.3,0.5-0.5,0.6c-0.2,0.2-0.4,0.3-0.6,0.3c-0.1,0-0.3,0-0.4-0.1c-0.1-0.1-0.1-0.2-0.1-0.3
	c0-0.1,0-0.2,0.1-0.2c0.1,0,0.1-0.1,0.2-0.1c0,0,0.1,0,0.1-0.1c0.2-0.1,0.3-0.2,0.3-0.4c0-0.1,0-0.2-0.1-0.2
	c-0.1-0.1-0.2-0.1-0.3-0.1c-0.1,0-0.2,0-0.3,0.1c-0.1,0-0.1-0.1-0.2-0.1c-0.1-0.1-0.1-0.2-0.1-0.2c0-0.1,0.1-0.3,0.2-0.4
	c0.1-0.1,0.2-0.2,0.4-0.3c0.1-0.1,0.3-0.1,0.4-0.1c0.3,0,0.5,0.1,0.7,0.3c0.2,0.2,0.3,0.5,0.3,0.8C395.8,63.2,395.7,63.4,395.6,63.6
	z"/>
<path class="st0" d="M403.4,67.4c-0.3,0.6-0.7,1-1.3,1.4c-1.1,0.7-2.5,0.7-3.6,0c-0.5-0.3-1-0.8-1.3-1.4c-0.6-1.2-0.6-2.6,0-3.8
	c0.3-0.6,0.7-1,1.3-1.4c1.1-0.7,2.5-0.7,3.6,0c0.5,0.3,1,0.8,1.3,1.4C404,64.8,404,66.3,403.4,67.4z M402.2,64.3
	c-0.2-0.4-0.4-0.7-0.8-0.9c-0.3-0.2-0.7-0.3-1.1-0.3c-0.4,0-0.8,0.1-1.1,0.3c-0.3,0.2-0.6,0.5-0.8,0.9c-0.4,0.8-0.4,1.7,0,2.5
	c0.2,0.4,0.4,0.7,0.8,0.9c0.7,0.4,1.6,0.4,2.3,0c0.3-0.2,0.6-0.5,0.8-0.9C402.6,66,402.6,65.1,402.2,64.3L402.2,64.3z"/>
<path class="st0" d="M410.2,65.8c0.2,0.3,0.4,0.7,0.3,1.2c0.1,0.7-0.2,1.3-0.7,1.7c-0.5,0.3-1.1,0.5-1.7,0.5h-2.6
	c-0.3,0-0.6-0.3-0.6-0.6c0,0,0,0,0,0v-6c0-0.3,0.3-0.6,0.6-0.6c0,0,0,0,0,0h2.6c1.3,0,2,0.6,2,1.9c0,0.3-0.1,0.6-0.2,0.8
	c-0.2,0.2-0.4,0.4-0.6,0.6C409.7,65.3,410,65.5,410.2,65.8z M408.6,63.3c-0.2-0.1-0.4-0.2-0.6-0.2h-1.7v1.6h1.7
	c0.2,0,0.4-0.1,0.5-0.2c0.2-0.1,0.2-0.3,0.2-0.6C408.9,63.8,408.8,63.5,408.6,63.3z M409,67.7c0.2-0.2,0.3-0.5,0.3-0.8
	c0-0.4-0.1-0.7-0.3-0.8c-0.2-0.1-0.5-0.2-0.8-0.2h-1.8v2h1.9C408.5,68,408.8,67.9,409,67.7L409,67.7z"/>
<path class="st0" d="M412.8,69.1c-0.4-0.1-0.8-0.3-1.1-0.6c-0.2-0.1-0.3-0.3-0.3-0.6c0-0.2,0.1-0.3,0.2-0.4c0.1-0.1,0.3-0.2,0.4-0.2
	c0.1,0,0.3,0,0.4,0.1c0.2,0.2,0.5,0.4,0.8,0.5c0.3,0.1,0.6,0.2,0.9,0.2c0.4,0,0.7-0.1,1-0.3c0.2-0.1,0.4-0.4,0.4-0.6
	c0-0.3-0.2-0.6-0.4-0.7c-0.4-0.2-0.9-0.4-1.3-0.4c-1.5-0.2-2.3-0.9-2.3-2.1c0-0.4,0.1-0.8,0.3-1.1c0.2-0.3,0.6-0.6,0.9-0.7
	c0.4-0.2,0.9-0.3,1.3-0.3c0.4,0,0.8,0.1,1.2,0.2c0.3,0.1,0.7,0.3,1,0.5c0.2,0.1,0.3,0.3,0.3,0.6c0,0.2-0.1,0.3-0.2,0.4
	c-0.1,0.1-0.3,0.2-0.4,0.2c-0.1,0-0.2,0-0.3-0.1c-0.2-0.2-0.5-0.3-0.8-0.4c-0.3-0.1-0.6-0.2-0.9-0.2c-0.4,0-0.7,0.1-1,0.2
	c-0.4,0.2-0.5,0.7-0.2,1.1c0.1,0.1,0.1,0.2,0.2,0.2c0.4,0.2,0.8,0.3,1.2,0.4c0.5,0.1,1,0.2,1.4,0.4c0.3,0.1,0.6,0.4,0.8,0.7
	c0.2,0.3,0.3,0.7,0.3,1.1c0,0.4-0.1,0.8-0.4,1.1c-0.3,0.3-0.6,0.6-1,0.8c-0.4,0.2-0.9,0.3-1.3,0.3C413.7,69.3,413.2,69.2,412.8,69.1
	z"/>
<path class="st0" d="M422.5,68.2c0.1,0.1,0.2,0.3,0.2,0.4c0,0.2-0.1,0.3-0.2,0.4c-0.1,0.1-0.3,0.2-0.5,0.2h-3.5
	c-0.3,0-0.6-0.3-0.6-0.6c0,0,0,0,0,0v-6c0-0.3,0.3-0.6,0.6-0.6c0,0,0,0,0,0h3.5c0.2,0,0.3,0.1,0.5,0.2c0.1,0.1,0.2,0.3,0.2,0.4
	c0,0.2-0.1,0.3-0.2,0.4c-0.1,0.1-0.3,0.2-0.5,0.2h-2.8v1.8h2.4c0.2,0,0.3,0.1,0.5,0.2c0.1,0.1,0.2,0.3,0.2,0.4
	c0,0.2-0.1,0.3-0.2,0.4c-0.1,0.1-0.3,0.2-0.5,0.2h-2.4V68h2.8C422.2,68,422.4,68.1,422.5,68.2z"/>
<path class="st0" d="M429.8,68.4c0.1,0.1,0.1,0.2,0.1,0.3c0,0.1,0,0.2-0.1,0.3c-0.1,0.1-0.3,0.2-0.5,0.2c-0.2,0-0.3,0-0.5-0.1
	c-0.6-0.4-0.8-1.1-0.7-1.7c0-0.2-0.1-0.4-0.2-0.6c-0.2-0.2-0.4-0.2-0.7-0.2h-1.9v2c0,0.2,0,0.3-0.1,0.5c-0.1,0.1-0.2,0.2-0.4,0.2
	c-0.2,0-0.4-0.1-0.5-0.2c-0.1-0.1-0.2-0.3-0.2-0.5v-6c0-0.3,0.3-0.6,0.6-0.6c0,0,0,0,0,0h3c0.4,0,0.7,0.1,1,0.3
	c0.3,0.2,0.6,0.5,0.8,0.8c0.2,0.4,0.3,0.7,0.3,1.1c0,0.4-0.1,0.7-0.3,1c-0.2,0.3-0.4,0.6-0.7,0.8c0.4,0.3,0.7,0.7,0.7,1.2
	c0,0.1,0,0.2,0,0.3c0,0.2,0,0.3,0.1,0.5c0,0.1,0.1,0.2,0.2,0.2C429.7,68.2,429.7,68.3,429.8,68.4z M427.8,65.3
	c0.1-0.1,0.2-0.3,0.3-0.5c0.1-0.2,0.1-0.4,0.1-0.6c0-0.2,0-0.4-0.1-0.5c-0.1-0.2-0.2-0.3-0.3-0.4c-0.1-0.1-0.2-0.1-0.4-0.1h-2.3v2.4
	h2.3C427.6,65.5,427.7,65.4,427.8,65.3L427.8,65.3z"/>
<path class="st0" d="M436.6,62.1c0.1,0.1,0.2,0.3,0.2,0.4c0,0.1,0,0.2-0.1,0.3l-2.6,6c-0.1,0.1-0.1,0.2-0.3,0.3
	c-0.2,0.1-0.5,0.1-0.7,0c-0.1-0.1-0.2-0.2-0.2-0.3l-2.6-6c0-0.1-0.1-0.2-0.1-0.3c0-0.2,0.1-0.3,0.2-0.5c0.1-0.1,0.3-0.2,0.4-0.2
	c0.1,0,0.2,0,0.3,0.1c0.1,0.1,0.2,0.2,0.2,0.3l2.1,4.9l1.9-4.9c0.1-0.1,0.1-0.2,0.2-0.3c0.1-0.1,0.2-0.1,0.3-0.1
	C436.3,61.9,436.5,62,436.6,62.1z"/>
<path class="st0" d="M443.2,68.6c0,0.2-0.1,0.3-0.2,0.4c-0.1,0.1-0.3,0.2-0.4,0.2c-0.1,0-0.2,0-0.3-0.1c-0.1-0.1-0.2-0.2-0.2-0.3
	l-0.5-1.3h-3.1l-0.5,1.3c0,0.1-0.1,0.2-0.2,0.3c-0.2,0.2-0.6,0.2-0.7,0c-0.1-0.1-0.1-0.2-0.1-0.4c0-0.1,0-0.1,0-0.2l2.6-6.2
	c0-0.1,0.1-0.2,0.2-0.3c0.1-0.1,0.2-0.1,0.4-0.1c0.1,0,0.2,0,0.3,0.1c0.1,0.1,0.2,0.2,0.2,0.3l2.6,6.1
	C443.2,68.5,443.2,68.5,443.2,68.6z M439,66.4h2.1l-1.1-2.4L439,66.4z"/>
<path class="st0" d="M448.8,62.1c0.1,0.1,0.2,0.3,0.2,0.4c0,0.2-0.1,0.3-0.2,0.4c-0.1,0.1-0.3,0.2-0.5,0.2h-1.6v5.4
	c0,0.2-0.1,0.3-0.2,0.5c-0.1,0.1-0.3,0.2-0.5,0.2c-0.2,0-0.3-0.1-0.5-0.2c-0.1-0.1-0.2-0.3-0.2-0.5v-5.4h-1.6
	c-0.2,0-0.3-0.1-0.5-0.2c-0.1-0.1-0.2-0.3-0.2-0.4c0-0.2,0.1-0.3,0.2-0.4c0.1-0.1,0.3-0.2,0.5-0.2h4.6
	C448.5,61.9,448.7,62,448.8,62.1z"/>
<path class="st0" d="M451.2,69c-0.1,0.1-0.3,0.2-0.5,0.2c-0.2,0-0.3-0.1-0.5-0.2c-0.1-0.1-0.2-0.3-0.2-0.5v-6c0-0.2,0.1-0.3,0.2-0.5
	c0.1-0.1,0.3-0.2,0.5-0.2c0.2,0,0.3,0.1,0.4,0.2c0.1,0.1,0.2,0.3,0.2,0.5v6C451.4,68.7,451.3,68.9,451.2,69z"/>
<path class="st0" d="M459.1,67.4c-0.3,0.6-0.7,1-1.3,1.4c-1.1,0.7-2.5,0.7-3.6,0c-0.5-0.3-1-0.8-1.3-1.4c-0.6-1.2-0.6-2.6,0-3.8
	c0.3-0.6,0.7-1,1.3-1.4c1.1-0.7,2.5-0.7,3.6,0c0.5,0.3,1,0.8,1.3,1.4C459.7,64.8,459.7,66.3,459.1,67.4z M457.9,64.3
	c-0.2-0.4-0.4-0.7-0.8-0.9c-0.3-0.2-0.7-0.3-1.1-0.3c-0.4,0-0.8,0.1-1.1,0.3c-0.3,0.2-0.6,0.5-0.8,0.9c-0.4,0.8-0.4,1.7,0,2.5
	c0.2,0.4,0.4,0.7,0.8,0.9c0.7,0.4,1.6,0.4,2.3,0c0.3-0.2,0.6-0.5,0.8-0.9C458.3,66,458.3,65.1,457.9,64.3L457.9,64.3z"/>
<path class="st0" d="M466.7,62.1c0.1,0.1,0.2,0.3,0.2,0.4v6.1c0,0.3-0.3,0.6-0.6,0.6c0,0,0,0,0,0c-0.1,0-0.2,0-0.3,0
	c-0.1,0-0.1-0.1-0.2-0.1l-3.8-4.8v4.4c0,0.2-0.1,0.3-0.2,0.4c-0.1,0.1-0.3,0.2-0.4,0.2c-0.2,0-0.3-0.1-0.4-0.2
	c-0.1-0.1-0.2-0.3-0.2-0.4v-6.1c0-0.3,0.3-0.6,0.6-0.6c0,0,0,0,0,0c0.1,0,0.2,0,0.3,0.1c0.1,0,0.2,0.1,0.2,0.2l3.8,4.8v-4.5
	c0-0.2,0.1-0.3,0.2-0.4c0.1-0.1,0.3-0.2,0.4-0.2C466.4,61.9,466.6,62,466.7,62.1z"/>
<path class="st0" d="M297.9,73.4c0.5,0.3,0.8,0.8,1.1,1.3c0.5,1.2,0.5,2.5,0,3.7c-0.2,0.5-0.6,1-1.1,1.3c-0.5,0.3-1.1,0.5-1.7,0.5
	h-2.5c-0.3,0-0.6-0.3-0.6-0.6c0,0,0,0,0,0v-6c0-0.3,0.3-0.6,0.6-0.6c0,0,0,0,0,0h2.5C296.9,72.9,297.4,73.1,297.9,73.4z M297.6,78.3
	c0.6-1.1,0.6-2.4,0-3.5c-0.3-0.5-0.8-0.7-1.4-0.7h-1.7V79h1.7C296.7,79,297.2,78.8,297.6,78.3L297.6,78.3z"/>
<path class="st0" d="M305.1,79.2c0.1,0.1,0.2,0.3,0.2,0.4c0,0.2-0.1,0.3-0.2,0.4c-0.1,0.1-0.3,0.2-0.5,0.2h-3.5
	c-0.3,0-0.6-0.3-0.6-0.6c0,0,0,0,0,0v-6c0-0.3,0.3-0.6,0.6-0.6c0,0,0,0,0,0h3.5c0.2,0,0.3,0.1,0.5,0.2c0.1,0.1,0.2,0.3,0.2,0.4
	c0,0.2-0.1,0.3-0.2,0.4c-0.1,0.1-0.3,0.2-0.5,0.2h-2.8v1.8h2.4c0.2,0,0.3,0.1,0.5,0.2c0.1,0.1,0.2,0.3,0.2,0.4
	c0,0.2-0.1,0.3-0.2,0.4c-0.1,0.1-0.3,0.2-0.5,0.2h-2.4V79h2.8C304.8,79,305,79.1,305.1,79.2z"/>
<path class="st0" d="M307.5,80.1c-0.4-0.1-0.8-0.3-1.1-0.6c-0.2-0.1-0.3-0.3-0.3-0.6c0-0.2,0.1-0.3,0.2-0.4c0.1-0.1,0.3-0.2,0.4-0.2
	c0.1,0,0.3,0,0.4,0.1c0.2,0.2,0.5,0.4,0.8,0.5c0.3,0.1,0.6,0.2,0.9,0.2c0.4,0,0.7-0.1,1-0.3c0.2-0.1,0.4-0.4,0.4-0.6
	c0-0.3-0.2-0.6-0.4-0.7c-0.4-0.2-0.9-0.4-1.3-0.4c-1.5-0.2-2.3-0.9-2.3-2.1c0-0.4,0.1-0.8,0.3-1.1c0.2-0.3,0.6-0.6,0.9-0.7
	c0.4-0.2,0.9-0.3,1.3-0.3c0.4,0,0.8,0.1,1.2,0.2c0.3,0.1,0.7,0.3,1,0.5c0.2,0.1,0.3,0.3,0.3,0.6c0,0.2-0.1,0.3-0.2,0.4
	c-0.1,0.1-0.3,0.2-0.4,0.2c-0.1,0-0.2,0-0.3-0.1c-0.2-0.2-0.5-0.3-0.8-0.4c-0.3-0.1-0.6-0.2-0.9-0.2c-0.4,0-0.7,0.1-1,0.2
	c-0.4,0.2-0.5,0.7-0.2,1.1c0.1,0.1,0.1,0.2,0.2,0.2c0.4,0.2,0.8,0.3,1.2,0.4c0.5,0.1,1,0.2,1.4,0.4c0.3,0.1,0.6,0.4,0.8,0.7
	c0.2,0.3,0.3,0.7,0.3,1.1c0,0.4-0.1,0.8-0.4,1.1c-0.3,0.3-0.6,0.6-1,0.8c-0.4,0.2-0.9,0.3-1.3,0.3C308.4,80.3,307.9,80.2,307.5,80.1
	z"/>
<path class="st0" d="M321.8,78.4c-0.3,0.6-0.7,1-1.3,1.4c-1.1,0.7-2.5,0.7-3.6,0c-0.5-0.3-1-0.8-1.3-1.4c-0.6-1.2-0.6-2.6,0-3.8
	c0.3-0.6,0.7-1,1.3-1.4c1.1-0.7,2.5-0.7,3.6,0c0.5,0.3,1,0.8,1.3,1.4C322.4,75.8,322.4,77.3,321.8,78.4L321.8,78.4z M320.6,75.3
	c-0.2-0.4-0.4-0.7-0.8-0.9c-0.3-0.2-0.7-0.3-1.1-0.3c-0.4,0-0.8,0.1-1.1,0.3c-0.3,0.2-0.6,0.5-0.8,0.9c-0.4,0.8-0.4,1.7,0,2.5
	c0.2,0.4,0.4,0.7,0.8,0.9c0.7,0.4,1.6,0.4,2.3,0c0.3-0.2,0.6-0.5,0.8-0.9C321,77,321,76.1,320.6,75.3L320.6,75.3z"/>
<path class="st0" d="M328.8,73.8c0,0.2-0.1,0.3-0.2,0.4c-0.1,0.1-0.3,0.2-0.4,0.2c-0.1,0-0.2,0-0.4-0.1c-0.3-0.2-0.7-0.2-1.1-0.2
	c-0.4,0-0.9,0.1-1.3,0.3c-0.4,0.2-0.6,0.5-0.8,0.9c-0.2,0.4-0.3,0.8-0.3,1.3c0,0.7,0.2,1.4,0.7,1.9c0.8,0.7,1.9,0.8,2.8,0.4
	c0.1-0.1,0.2-0.1,0.3-0.1c0.2,0,0.3,0.1,0.5,0.2c0.1,0.1,0.2,0.3,0.2,0.4c0,0.1,0,0.2-0.1,0.3c-0.1,0.1-0.1,0.2-0.2,0.2
	c-0.5,0.3-1.1,0.4-1.7,0.4c-0.6,0-1.3-0.1-1.9-0.4c-0.6-0.3-1-0.7-1.4-1.3c-0.4-0.6-0.5-1.3-0.5-2c0-0.7,0.2-1.3,0.5-1.9
	c0.3-0.6,0.8-1,1.3-1.3c0.6-0.3,1.3-0.5,1.9-0.5c0.6,0,1.2,0.1,1.7,0.4C328.7,73.4,328.8,73.6,328.8,73.8z"/>
<path class="st0" d="M334.4,79.2c0.1,0.1,0.2,0.3,0.2,0.4c0,0.2-0.1,0.3-0.2,0.4c-0.1,0.1-0.3,0.2-0.5,0.2h-3.5
	c-0.3,0-0.6-0.3-0.6-0.6c0,0,0,0,0,0v-6c0-0.3,0.3-0.6,0.6-0.6c0,0,0,0,0,0h3.5c0.2,0,0.3,0.1,0.5,0.2c0.1,0.1,0.2,0.3,0.2,0.4
	c0,0.2-0.1,0.3-0.2,0.4c-0.1,0.1-0.3,0.2-0.5,0.2h-2.8v1.8h2.4c0.2,0,0.3,0.1,0.5,0.2c0.1,0.1,0.2,0.3,0.2,0.4
	c0,0.2-0.1,0.3-0.2,0.4c-0.1,0.1-0.3,0.2-0.5,0.2h-2.4V79h2.8C334.2,79,334.3,79.1,334.4,79.2z M332,72.4c-0.1-0.1-0.1-0.2-0.1-0.3
	c0-0.1,0.1-0.2,0.1-0.3l0.9-0.8c0.1-0.1,0.3-0.2,0.5-0.2c0.1,0,0.3,0.1,0.4,0.1c0.1,0.1,0.2,0.2,0.2,0.4c0,0.1,0,0.2-0.1,0.3
	c-0.1,0.1-0.2,0.2-0.3,0.2l-1,0.6C332.3,72.5,332.1,72.5,332,72.4L332,72.4z"/>
<path class="st0" d="M341.6,79.6c0,0.2-0.1,0.3-0.2,0.4c-0.1,0.1-0.3,0.2-0.4,0.2c-0.1,0-0.2,0-0.3-0.1c-0.1-0.1-0.2-0.2-0.2-0.3
	l-0.5-1.3h-3.1l-0.5,1.3c0,0.1-0.1,0.2-0.2,0.3c-0.2,0.2-0.6,0.2-0.7,0c-0.1-0.1-0.1-0.2-0.1-0.4c0-0.1,0-0.1,0-0.2l2.6-6.2
	c0-0.1,0.1-0.2,0.2-0.3c0.1-0.1,0.2-0.1,0.4-0.1c0.1,0,0.2,0,0.3,0.1c0.1,0.1,0.2,0.2,0.2,0.3l2.6,6.1
	C341.5,79.5,341.6,79.5,341.6,79.6z M337.3,77.4h2.1l-1.1-2.4L337.3,77.4z"/>
<path class="st0" d="M348.3,73.1c0.1,0.1,0.2,0.3,0.2,0.4v6.1c0,0.3-0.3,0.6-0.6,0.6c0,0,0,0,0,0c-0.1,0-0.2,0-0.3,0
	c-0.1,0-0.1-0.1-0.2-0.1l-3.8-4.8v4.4c0,0.2-0.1,0.3-0.2,0.4c-0.1,0.1-0.3,0.2-0.4,0.2c-0.2,0-0.3-0.1-0.4-0.2
	c-0.1-0.1-0.2-0.3-0.2-0.4v-6.1c0-0.3,0.3-0.6,0.6-0.6c0,0,0,0,0,0c0.1,0,0.2,0,0.3,0.1c0.1,0,0.2,0.1,0.2,0.2l3.8,4.8v-4.5
	c0-0.2,0.1-0.3,0.2-0.4c0.1-0.1,0.3-0.2,0.4-0.2C348.1,72.9,348.2,73,348.3,73.1z"/>
<path class="st0" d="M351,80.1c-0.4-0.1-0.8-0.3-1.1-0.6c-0.2-0.1-0.3-0.3-0.3-0.6c0-0.2,0.1-0.3,0.2-0.4c0.1-0.1,0.3-0.2,0.4-0.2
	c0.1,0,0.3,0,0.4,0.1c0.2,0.2,0.5,0.4,0.8,0.5c0.3,0.1,0.6,0.2,0.9,0.2c0.4,0,0.7-0.1,1-0.3c0.2-0.1,0.4-0.4,0.4-0.6
	c0-0.3-0.2-0.6-0.4-0.7c-0.4-0.2-0.9-0.4-1.3-0.4c-1.5-0.2-2.3-0.9-2.3-2.1c0-0.4,0.1-0.8,0.3-1.1c0.2-0.3,0.6-0.6,0.9-0.7
	c0.4-0.2,0.9-0.3,1.3-0.3c0.4,0,0.8,0.1,1.2,0.2c0.3,0.1,0.7,0.3,1,0.5c0.2,0.1,0.3,0.3,0.3,0.6c0,0.2-0.1,0.3-0.2,0.4
	c-0.1,0.1-0.3,0.2-0.4,0.2c-0.1,0-0.2,0-0.3-0.1c-0.2-0.2-0.5-0.3-0.8-0.4c-0.3-0.1-0.6-0.2-0.9-0.2c-0.4,0-0.7,0.1-1,0.2
	c-0.4,0.2-0.5,0.7-0.2,1.1c0.1,0.1,0.1,0.2,0.2,0.2c0.4,0.2,0.8,0.3,1.2,0.4c0.5,0.1,1,0.2,1.4,0.4c0.3,0.1,0.6,0.4,0.8,0.7
	c0.2,0.3,0.3,0.7,0.3,1.1c0,0.4-0.1,0.8-0.4,1.1c-0.3,0.3-0.6,0.6-1,0.8c-0.4,0.2-0.9,0.3-1.3,0.3C351.9,80.3,351.5,80.2,351,80.1z"
	/>
<path class="st0" d="M363.9,73.4c0.5,0.3,0.8,0.8,1.1,1.3c0.5,1.2,0.5,2.5,0,3.7c-0.2,0.5-0.6,1-1.1,1.3c-0.5,0.3-1.1,0.5-1.7,0.5
	h-2.5c-0.3,0-0.6-0.3-0.6-0.6c0,0,0,0,0,0v-6c0-0.3,0.3-0.6,0.6-0.6c0,0,0,0,0,0h2.5C362.8,72.9,363.4,73.1,363.9,73.4z M363.5,78.3
	c0.6-1.1,0.6-2.4,0-3.5c-0.3-0.5-0.8-0.7-1.4-0.7h-1.7V79h1.7C362.6,79,363.2,78.8,363.5,78.3L363.5,78.3z"/>
<path class="st0" d="M372.1,73.1c0.1,0.1,0.2,0.3,0.2,0.5v3.8c0,0.5-0.1,1.1-0.4,1.5c-0.2,0.4-0.6,0.8-1,1c-0.9,0.5-2.1,0.5-3,0
	c-0.4-0.2-0.8-0.6-1-1c-0.2-0.5-0.4-1-0.4-1.5v-3.8c0-0.2,0.1-0.3,0.2-0.5c0.1-0.1,0.3-0.2,0.5-0.2c0.3,0,0.6,0.3,0.6,0.6
	c0,0,0,0,0,0v3.8c0,0.3,0.1,0.6,0.2,0.9c0.1,0.3,0.3,0.5,0.6,0.6c0.2,0.1,0.5,0.2,0.8,0.2c0.3,0,0.6-0.1,0.8-0.2
	c0.3-0.1,0.5-0.3,0.6-0.6c0.2-0.3,0.2-0.6,0.2-0.9v-3.8c0-0.2,0-0.3,0.2-0.5c0.1-0.1,0.3-0.2,0.4-0.2C371.8,72.9,372,73,372.1,73.1z
	"/>
<path class="st0" d="M382.1,73.8c0,0.2-0.1,0.3-0.2,0.4c-0.1,0.1-0.3,0.2-0.4,0.2c-0.1,0-0.2,0-0.4-0.1c-0.3-0.2-0.7-0.2-1.1-0.2
	c-0.4,0-0.9,0.1-1.3,0.3c-0.4,0.2-0.6,0.5-0.8,0.9c-0.2,0.4-0.3,0.8-0.3,1.3c0,0.7,0.2,1.4,0.7,1.9c0.8,0.7,1.9,0.8,2.8,0.4
	c0.1-0.1,0.2-0.1,0.3-0.1c0.2,0,0.3,0.1,0.5,0.2c0.1,0.1,0.2,0.3,0.2,0.4c0,0.1,0,0.2-0.1,0.3c-0.1,0.1-0.1,0.2-0.2,0.2
	c-0.5,0.3-1.1,0.4-1.7,0.4c-0.6,0-1.3-0.1-1.9-0.4c-0.6-0.3-1-0.7-1.4-1.3c-0.4-0.6-0.5-1.3-0.5-2c0-0.7,0.2-1.3,0.5-1.9
	c0.3-0.6,0.8-1,1.3-1.3c0.6-0.3,1.3-0.5,1.9-0.5c0.6,0,1.2,0.1,1.7,0.4C382,73.4,382.1,73.6,382.1,73.8z"/>
<path class="st0" d="M388.9,79.6c0,0.2-0.1,0.3-0.2,0.4c-0.1,0.1-0.3,0.2-0.4,0.2c-0.1,0-0.2,0-0.3-0.1c-0.1-0.1-0.2-0.2-0.2-0.3
	l-0.5-1.3h-3.1l-0.5,1.3c0,0.1-0.1,0.2-0.2,0.3c-0.2,0.2-0.6,0.2-0.7,0c-0.1-0.1-0.1-0.2-0.1-0.4c0-0.1,0-0.1,0-0.2l2.6-6.2
	c0-0.1,0.1-0.2,0.2-0.3c0.1-0.1,0.2-0.1,0.4-0.1c0.1,0,0.2,0,0.3,0.1c0.1,0.1,0.2,0.2,0.2,0.3l2.6,6.1
	C388.9,79.5,388.9,79.5,388.9,79.6z M384.6,77.4h2.1l-1.1-2.4L384.6,77.4z"/>
<path class="st0" d="M395.7,73.1c0.1,0.1,0.2,0.3,0.2,0.4v6.1c0,0.3-0.3,0.6-0.6,0.6c0,0,0,0,0,0c-0.1,0-0.2,0-0.3,0
	c-0.1,0-0.1-0.1-0.2-0.1l-3.8-4.8v4.4c0,0.2-0.1,0.3-0.2,0.4c-0.1,0.1-0.3,0.2-0.4,0.2c-0.2,0-0.3-0.1-0.4-0.2
	c-0.1-0.1-0.2-0.3-0.2-0.4v-6.1c0-0.3,0.3-0.6,0.6-0.6c0,0,0,0,0,0c0.1,0,0.2,0,0.3,0.1c0.1,0,0.2,0.1,0.2,0.2l3.8,4.8v-4.5
	c0-0.2,0.1-0.3,0.2-0.4c0.1-0.1,0.3-0.2,0.4-0.2C395.4,72.9,395.6,73,395.7,73.1z"/>
<path class="st0" d="M403.1,79.6c0,0.2-0.1,0.3-0.2,0.4c-0.1,0.1-0.3,0.2-0.4,0.2c-0.1,0-0.2,0-0.3-0.1c-0.1-0.1-0.2-0.2-0.2-0.3
	l-0.5-1.3h-3.1l-0.5,1.3c0,0.1-0.1,0.2-0.2,0.3c-0.2,0.2-0.6,0.2-0.7,0c-0.1-0.1-0.1-0.2-0.1-0.4c0-0.1,0-0.1,0-0.2l2.6-6.2
	c0-0.1,0.1-0.2,0.2-0.3c0.1-0.1,0.2-0.1,0.4-0.1c0.1,0,0.2,0,0.3,0.1c0.1,0.1,0.2,0.2,0.2,0.3l2.6,6.1
	C403.1,79.5,403.1,79.5,403.1,79.6z M398.9,77.4h2.1l-1.1-2.4L398.9,77.4z"/>
<path class="st0" d="M408.8,73.4c0.5,0.3,0.8,0.8,1.1,1.3c0.5,1.2,0.5,2.5,0,3.7c-0.2,0.5-0.6,1-1.1,1.3c-0.5,0.3-1.1,0.5-1.7,0.5
	h-2.5c-0.3,0-0.6-0.3-0.6-0.6c0,0,0,0,0,0v-6c0-0.3,0.3-0.6,0.6-0.6c0,0,0,0,0,0h2.5C407.7,72.9,408.3,73.1,408.8,73.4z M408.4,78.3
	c0.6-1.1,0.6-2.4,0-3.5c-0.3-0.5-0.8-0.7-1.4-0.7h-1.7V79h1.7C407.6,79,408.1,78.8,408.4,78.3L408.4,78.3z"/>
<path class="st0" d="M417.1,79.6c0,0.2-0.1,0.3-0.2,0.4c-0.1,0.1-0.3,0.2-0.4,0.2c-0.1,0-0.2,0-0.3-0.1c-0.1-0.1-0.2-0.2-0.2-0.3
	l-0.5-1.3h-3.1l-0.5,1.3c0,0.1-0.1,0.2-0.2,0.3c-0.2,0.2-0.6,0.2-0.7,0c-0.1-0.1-0.1-0.2-0.1-0.4c0-0.1,0-0.1,0-0.2l2.6-6.2
	c0-0.1,0.1-0.2,0.2-0.3c0.1-0.1,0.2-0.1,0.4-0.1c0.1,0,0.2,0,0.3,0.1c0.1,0.1,0.2,0.2,0.2,0.3l2.6,6.1
	C417.1,79.5,417.1,79.5,417.1,79.6z M412.8,77.4h2.1l-1.1-2.4L412.8,77.4z"/>
<path class="st1" d="M278.1,35.8l-16-23.1L236.7,0l-0.1,0l-30.4,8.8H206l-15.9,18.9l-0.1,0.1l0,0.2l-4.5,30.9V59l16,23.1l25.5,12.6
	l0.2,0l30-8.8h0.2l15.9-18.9l0.1-0.1l0-0.2l4.6-30.1 M269.8,40.5l-8.3-24l15.6,19.4L269.8,40.5z M199,57.8l-8.3-23.6l20.1-5.1
	L199,57.8z M199.3,58.6l0.2-0.1l0.3-0.3l11.8-28.6l13,24.5L199.3,58.6z M224.8,54.8l-0.6,25.4L200,59.4L224.8,54.8z M212.3,29
	l31.6,2.9l-18.6,21.6L212.3,29z M245,30.8L232.8,9.4l26.5,5L245,30.8z M260.1,15l8.8,25.4l-23.1-9.1L260.1,15z M252.2,63.3L225.9,54
	l18.7-21.6L252.2,63.3z M244,31l-31.4-2.9l19.2-18.5L244,31z M225.6,54.9l26.2,9.3l-26.8,16.1L225.6,54.9z M252.4,64.9l-1.7,21
	l-24.8-5L252.4,64.9z M245.6,32.3l23.3,9.2L253.2,63L245.6,32.3z M261.7,13.5l9.8,14l-10.5-13.4L261.7,13.5z M260.8,12.9l-0.7,0.6
	L246.9,6L260.8,12.9z M257.6,13.1l-25.1-4.7l4-7.5L257.6,13.1z M235.4,1.1l-3.8,7.2l-21.9,0.3L235.4,1.1z M230.7,9.2l-18.9,18.3
	l-4.9-18L230.7,9.2z M206.1,10.3l4.9,17.8l-19.9,5.1L206.1,10.3z M190.9,28.1l12-14.4l-12.5,18.7L190.9,28.1z M190.3,35.8l8.1,22.8
	l-11.8-0.3L190.3,35.8z M186.8,59.4l11.7,0.3l2.7,20.5L186.8,59.4z M199.5,60.3l23.8,20.5l-21.1,0.7L199.5,60.3z M203.7,82.4
	l20.4-0.7l2.5,12L203.7,82.4z M227.6,94l-2.5-12.2l24.1,4.9L227.6,94z M257.1,85.3l-4.7,0.6l17.4-15.6L257.1,85.3z M251.5,85.3
	l1.8-20.8l18.8,2.6L251.5,85.3z M253.7,63.7l15.5-21.3l3.4,23.9L253.7,63.7z M273.1,63.8l-3-22.3l7.1-4.5L273.1,63.8z"/>
<path class="st2" d="M202.4,57.8c-0.9-2-3.2-2.9-5.1-2c-2,0.9-2.9,3.2-2,5.1c0.4,0.9,1.2,1.7,2.1,2.1c1,0.4,2,0.4,3,0
	C202.3,62.1,203.2,59.8,202.4,57.8C202.4,57.8,202.4,57.8,202.4,57.8L202.4,57.8z"/>
<path class="st2" d="M248.1,28.3c-2-1.7-4.9-1.4-6.6,0.6c-1.7,2-1.4,4.9,0.5,6.6c0.8,0.7,1.9,1.1,3,1.1c0.1,0,0.3,0,0.4,0
	c2.6-0.2,4.5-2.5,4.3-5.1C249.6,30.2,249,29.1,248.1,28.3L248.1,28.3z"/>
<path class="st2" d="M263,13.4c-0.7-1.6-2.5-2.3-4.1-1.6c-1.6,0.7-2.3,2.5-1.6,4.1c0.5,1.1,1.6,1.9,2.9,1.9c0.4,0,0.8-0.1,1.2-0.3
	C263,16.8,263.7,15,263,13.4z"/>
<path class="st2" d="M228.5,52.8c-0.7-1.6-2.5-2.3-4.1-1.6c-1.6,0.7-2.3,2.5-1.6,4.1c0.3,0.8,0.9,1.4,1.7,1.7c0.8,0.3,1.6,0.3,2.4,0
	C228.5,56.2,229.2,54.4,228.5,52.8z"/>
<path class="st2" d="M272.4,39.7c-0.7-1.6-2.5-2.3-4.1-1.6c-1.6,0.7-2.3,2.5-1.6,4.1c0.5,1.1,1.6,1.9,2.9,1.9c0.4,0,0.8-0.1,1.2-0.3
	C272.4,43.1,273.1,41.3,272.4,39.7z"/>
</svg>
