<svg xmlns="http://www.w3.org/2000/svg" viewBox="0 0 374.7391 94.7563"><defs><style>.a{isolation:isolate;}</style></defs><g class="a"><path d="M111.566,42.0974a13.9543,13.9543,0,0,1-4.1924-2.9248,1.1817,1.1817,0,0,1-.4682-.9365,1.218,1.218,0,0,1,.3706-.8574,1.1324,1.1324,0,0,1,.8384-.3907,1.1957,1.1957,0,0,1,.8584.3907,9.8385,9.8385,0,0,0,7.6049,3.3535,7.8,7.8,0,0,0,4.66-1.3262,4.08,4.08,0,0,0,1.8525-3.4707,4.2368,4.2368,0,0,0-.9165-2.7881,6.8414,6.8414,0,0,0-2.3984-1.8135,31.7472,31.7472,0,0,0-3.7827-1.4433A23.1848,23.1848,0,0,1,111.8,28.2527a7.6953,7.6953,0,0,1-2.7495-2.3985,6.47,6.47,0,0,1-1.0527-3.8027,6.2687,6.2687,0,0,1,1.1113-3.666,7.4667,7.4667,0,0,1,3.12-2.5156,11.0333,11.0333,0,0,1,4.6216-.917,12.39,12.39,0,0,1,4.4653.8,8.0042,8.0042,0,0,1,3.3345,2.2812,1.8864,1.8864,0,0,1,.585,1.1319,1.0953,1.0953,0,0,1-.39.7988,1.2193,1.2193,0,0,1-.8584.3711.8979.8979,0,0,1-.6626-.2735,7.6833,7.6833,0,0,0-2.8081-2.0283,8.9394,8.9394,0,0,0-3.666-.7793,7.8663,7.8663,0,0,0-4.6411,1.2676,4.0057,4.0057,0,0,0-1.794,3.4512,3.9855,3.9855,0,0,0,1.7159,3.4707,18.2611,18.2611,0,0,0,4.914,2.2236,29.76,29.76,0,0,1,4.5239,1.6768,7.4506,7.4506,0,0,1,2.8667,2.4375,7.0721,7.0721,0,0,1,1.1114,4.1533,6.0822,6.0822,0,0,1-1.15,3.6074,7.7905,7.7905,0,0,1-3.1983,2.5547,11.09,11.09,0,0,1-4.66.9355A12.4272,12.4272,0,0,1,111.566,42.0974Z"/><path d="M134.7125,42.2927a1.17,1.17,0,0,1-.8579.3506,1.1391,1.1391,0,0,1-1.209-1.209V16.5525a1.1527,1.1527,0,0,1,.3511-.878,1.2541,1.2541,0,0,1,.897-.331,1.1979,1.1979,0,0,1,1.2089,1.209V41.4343A1.3217,1.3217,0,0,1,134.7125,42.2927Z"/><path d="M166.6149,36.2087a12.8227,12.8227,0,0,1-22.7764,0,15.297,15.297,0,0,1-1.6768-7.2158,15.3855,15.3855,0,0,1,1.6768-7.2539,12.4783,12.4783,0,0,1,4.6411-4.9922,13.5851,13.5851,0,0,1,13.4941,0,12.4855,12.4855,0,0,1,4.6412,4.9922,15.3986,15.3986,0,0,1,1.6767,7.2539A15.31,15.31,0,0,1,166.6149,36.2087Zm-2.1646-13.28a10.1047,10.1047,0,0,0-3.7441-4.1534,10.8747,10.8747,0,0,0-10.959,0,10.1049,10.1049,0,0,0-3.7442,4.1534,13.2987,13.2987,0,0,0-1.3452,6.0644,13.2935,13.2935,0,0,0,1.3452,6.0645,10.1018,10.1018,0,0,0,3.7442,4.1543,10.8747,10.8747,0,0,0,10.959,0,10.1016,10.1016,0,0,0,3.7441-4.1543,13.2922,13.2922,0,0,0,1.3452-6.0645A13.2974,13.2974,0,0,0,164.45,22.9285Z"/><path d="M198.0485,36.2087a12.8227,12.8227,0,0,1-22.7764,0,15.297,15.297,0,0,1-1.6768-7.2158,15.3855,15.3855,0,0,1,1.6768-7.2539,12.4783,12.4783,0,0,1,4.6411-4.9922,13.5851,13.5851,0,0,1,13.4941,0,12.4855,12.4855,0,0,1,4.6412,4.9922,15.3986,15.3986,0,0,1,1.6767,7.2539A15.31,15.31,0,0,1,198.0485,36.2087Zm-2.1646-13.28a10.1047,10.1047,0,0,0-3.7441-4.1534,10.8747,10.8747,0,0,0-10.959,0,10.1049,10.1049,0,0,0-3.7442,4.1534,13.2987,13.2987,0,0,0-1.3452,6.0644,13.2935,13.2935,0,0,0,1.3452,6.0645,10.1018,10.1018,0,0,0,3.7442,4.1543,10.8747,10.8747,0,0,0,10.959,0,10.1016,10.1016,0,0,0,3.7441-4.1543,13.2922,13.2922,0,0,0,1.3452-6.0645A13.2974,13.2974,0,0,0,195.8839,22.9285Z"/><path d="M227.337,18.3464a1.4981,1.4981,0,0,1-.2729.78,1.1086,1.1086,0,0,1-.8975.4287,1.1591,1.1591,0,0,1-.6235-.1953,12.11,12.11,0,0,0-6.8252-2.0664,11.1815,11.1815,0,0,0-5.7134,1.4814,10.5641,10.5641,0,0,0-4.0171,4.1534,12.42,12.42,0,0,0-1.4624,6.0644,12.4459,12.4459,0,0,0,1.4819,6.1426,10.555,10.555,0,0,0,4.0367,4.1348,11.2157,11.2157,0,0,0,5.6743,1.4619,12.0834,12.0834,0,0,0,6.7861-2.0284,1.2365,1.2365,0,0,1,.6626-.1943,1.078,1.078,0,0,1,.8975.4678,1.0928,1.0928,0,0,1,.2729.7412,1.0122,1.0122,0,0,1-.5464.9355A14.2361,14.2361,0,0,1,223.047,42.35a14.7106,14.7106,0,0,1-4.3291.6826,13.6674,13.6674,0,0,1-6.8447-1.7744,13.1768,13.1768,0,0,1-4.9917-4.9726,14.2741,14.2741,0,0,1-1.8526-7.293,14.1975,14.1975,0,0,1,1.833-7.1562,13.3368,13.3368,0,0,1,4.9532-5.0313,13.4837,13.4837,0,0,1,6.9028-1.8135,14.86,14.86,0,0,1,4.2705.6241,13.7789,13.7789,0,0,1,3.7637,1.7548A1.0882,1.0882,0,0,1,227.337,18.3464Z"/><path d="M109.9744,62.8805a4.7507,4.7507,0,0,1-1.68-.9756,1.1263,1.1263,0,0,1-.4326-.8487.9.9,0,0,1,.2725-.6474.88.88,0,0,1,.6562-.28.8489.8489,0,0,1,.544.1914,4.6758,4.6758,0,0,0,1.248.7686,3.91,3.91,0,0,0,1.4395.24,2.88,2.88,0,0,0,1.5439-.4,1.1585,1.1585,0,0,0,.6485-.9922,1.2734,1.2734,0,0,0-.6407-1.1279,5.4307,5.4307,0,0,0-2.0312-.6162q-3.504-.5112-3.5039-3.2637a2.9517,2.9517,0,0,1,.5273-1.7519,3.3378,3.3378,0,0,1,1.44-1.1358,5.087,5.087,0,0,1,2.0323-.3926,5.8,5.8,0,0,1,1.8955.3047,4.5967,4.5967,0,0,1,1.4805.8,1.07,1.07,0,0,1,.4638.8477.9009.9009,0,0,1-.2724.6484.864.864,0,0,1-.64.2793.7068.7068,0,0,1-.4326-.1435,4.2229,4.2229,0,0,0-1.1592-.6162,3.8447,3.8447,0,0,0-1.3359-.2793,2.7514,2.7514,0,0,0-1.5606.3759,1.1938,1.1938,0,0,0,.0166,2.0235,5.3647,5.3647,0,0,0,1.7832.5761,9.2451,9.2451,0,0,1,2.2.6163,2.8035,2.8035,0,0,1,1.24,1.0234,3.15,3.15,0,0,1,.416,1.7207,2.8709,2.8709,0,0,1-.5684,1.7676,3.6489,3.6489,0,0,1-1.5117,1.1679,5.06,5.06,0,0,1-2.0322.4082A6.6819,6.6819,0,0,1,109.9744,62.8805Z"/><path d="M125.574,53.3443,122.23,58.1285v3.9043a.9566.9566,0,0,1-.2725.6953.88.88,0,0,1-.6562.28.922.922,0,0,1-.68-.28.944.944,0,0,1-.28-.6953V57.9049l-3.3281-4.416a1.2636,1.2636,0,0,1-.2871-.753.8777.8777,0,0,1,.3271-.6953,1.06,1.06,0,0,1,.6963-.28.9684.9684,0,0,1,.7842.4483l2.8164,3.8877,2.64-3.8555a.9659.9659,0,0,1,.8-.48.9185.9185,0,0,1,.6718.2881.9571.9571,0,0,1,.2881.7041A1.07,1.07,0,0,1,125.574,53.3443Z"/><path d="M128.2625,62.8805a4.7507,4.7507,0,0,1-1.68-.9756,1.1263,1.1263,0,0,1-.4326-.8487.9.9,0,0,1,.2725-.6474.88.88,0,0,1,.6562-.28.8489.8489,0,0,1,.544.1914,4.6742,4.6742,0,0,0,1.248.7686,3.91,3.91,0,0,0,1.4395.24,2.88,2.88,0,0,0,1.5439-.4,1.1584,1.1584,0,0,0,.6484-.9922,1.2733,1.2733,0,0,0-.6406-1.1279,5.4307,5.4307,0,0,0-2.0312-.6162q-3.504-.5112-3.5039-3.2637a2.951,2.951,0,0,1,.5273-1.7519,3.3372,3.3372,0,0,1,1.44-1.1358,5.087,5.087,0,0,1,2.0323-.3926,5.8,5.8,0,0,1,1.8955.3047,4.5951,4.5951,0,0,1,1.48.8,1.07,1.07,0,0,1,.4639.8477.9006.9006,0,0,1-.2725.6484.8636.8636,0,0,1-.64.2793.7066.7066,0,0,1-.4326-.1435,4.2229,4.2229,0,0,0-1.1592-.6162,3.8447,3.8447,0,0,0-1.3359-.2793,2.7514,2.7514,0,0,0-1.5606.3759,1.1938,1.1938,0,0,0,.0166,2.0235,5.3639,5.3639,0,0,0,1.7832.5761,9.2451,9.2451,0,0,1,2.2.6163,2.8026,2.8026,0,0,1,1.24,1.0234,3.149,3.149,0,0,1,.4161,1.7207,2.8709,2.8709,0,0,1-.5684,1.7676,3.6489,3.6489,0,0,1-1.5117,1.1679,5.06,5.06,0,0,1-2.0322.4082A6.6819,6.6819,0,0,1,128.2625,62.8805Z"/><path d="M144.2459,52.0641a.8809.8809,0,0,1,.2725.6718.8525.8525,0,0,1-.2725.6641,1.0018,1.0018,0,0,1-.7041.248H141.03v8.3848a.9077.9077,0,0,1-.3037.6953,1.0671,1.0671,0,0,1-.752.28,1.01,1.01,0,0,1-.7363-.28.932.932,0,0,1-.2881-.6953V53.648h-2.5117a.985.985,0,0,1-.7041-.2558.8771.8771,0,0,1-.2715-.6719.85.85,0,0,1,.2793-.6562.996.996,0,0,1,.6963-.2559h7.1035A.989.989,0,0,1,144.2459,52.0641Z"/><path d="M153.15,61.4488a.8885.8885,0,0,1,.2793.6475.85.85,0,0,1-.2793.6562.9936.9936,0,0,1-.6963.2559h-5.36a.9574.9574,0,0,1-.9756-.9756v-9.248a.9575.9575,0,0,1,.9756-.9766h5.36a.9749.9749,0,0,1,.6963.2646.8919.8919,0,0,1,.2793.68.8361.8361,0,0,1-.2715.6475,1.0018,1.0018,0,0,1-.7041.248H148.118v2.7207h3.6162a.9756.9756,0,0,1,.6953.2637.8927.8927,0,0,1,.28.68.8354.8354,0,0,1-.2725.6484,1.0036,1.0036,0,0,1-.7031.2481H148.118v2.96h4.3359A.9477.9477,0,0,1,153.15,61.4488Zm-3.7363-10.4082-1.6-.8486a1.2509,1.2509,0,0,1-.4405-.3838.8141.8141,0,0,1-.1523-.4639.6958.6958,0,0,1,.2725-.5595.8907.8907,0,0,1,.5761-.2247,1.25,1.25,0,0,1,.7832.3526l1.376,1.2158a.5954.5954,0,0,1,.2246.4316.5241.5241,0,0,1-.1846.4161.7115.7115,0,0,1-.4873.16A.8264.8264,0,0,1,149.4139,51.0406Z"/><path d="M165.5984,52.0728a.9176.9176,0,0,1,.2959.6954v9.2646a.9462.9462,0,0,1-.9921.9756,1.0005,1.0005,0,0,1-.7286-.2725.9364.9364,0,0,1-.2793-.7031V55.5846l-2.6406,4.0322a1.3736,1.3736,0,0,1-.3672.3115.7457.7457,0,0,1-.4326.1045.7119.7119,0,0,1-.416-.1045,1.364,1.364,0,0,1-.3682-.3115L157.03,55.44v6.5928a.9869.9869,0,0,1-.2559.7031.8791.8791,0,0,1-.6718.2725.8474.8474,0,0,1-.6563-.28.99.99,0,0,1-.2559-.6953V52.7682a.9251.9251,0,0,1,.2959-.6875.9827.9827,0,0,1,.712-.2881,1.0655,1.0655,0,0,1,.48.12.93.93,0,0,1,.3672.3115l3.4883,5.36,3.584-5.36a.9729.9729,0,0,1,.3437-.3115.8985.8985,0,0,1,.44-.12A.9827.9827,0,0,1,165.5984,52.0728Z"/><path d="M175.2459,61.4488a.8885.8885,0,0,1,.2793.6475.85.85,0,0,1-.2793.6562.9936.9936,0,0,1-.6963.2559h-5.36a.9576.9576,0,0,1-.9756-.9756v-9.248a.9576.9576,0,0,1,.9756-.9766h5.36a.9749.9749,0,0,1,.6963.2646.8919.8919,0,0,1,.2793.68.8361.8361,0,0,1-.2715.6475,1.0018,1.0018,0,0,1-.7041.248h-4.3359v2.7207H173.83a.9756.9756,0,0,1,.6953.2637.8927.8927,0,0,1,.28.68.8354.8354,0,0,1-.2725.6484,1.0035,1.0035,0,0,1-.7031.2481h-3.6162v2.96H174.55A.9477.9477,0,0,1,175.2459,61.4488Z"/><path d="M183.3816,62.7281a1.0054,1.0054,0,0,1-.7041.28.96.96,0,0,1-.7119-.28.94.94,0,0,1-.28-.6953v-9.248a.9306.9306,0,0,1,.288-.6963,1.01,1.01,0,0,1,.7354-.28.955.955,0,0,1,.6885.28.934.934,0,0,1,.2881.6963v9.248A.9074.9074,0,0,1,183.3816,62.7281Z"/><path d="M195.1258,52.0641a.9.9,0,0,1,.2392.6406v9.3281a.956.956,0,0,1-.9755.9756,1.391,1.391,0,0,1-.44-.0723.62.62,0,0,1-.3115-.2l-5.8721-7.4551v6.8311a.885.885,0,0,1-.248.6406.8605.8605,0,0,1-.6475.2559.813.813,0,0,1-.624-.2559.8992.8992,0,0,1-.24-.6406V52.7848a.9575.9575,0,0,1,.9756-.9766,1.2209,1.2209,0,0,1,.4726.0967.7612.7612,0,0,1,.3438.2558l5.8242,7.4239v-6.88a.8824.8824,0,0,1,.248-.6406.8439.8439,0,0,1,.6319-.2559A.8191.8191,0,0,1,195.1258,52.0641Z"/><path d="M205.7488,52.0641a.8806.8806,0,0,1,.2725.6718.8522.8522,0,0,1-.2725.6641,1.0018,1.0018,0,0,1-.7041.248H202.533v8.3848a.9073.9073,0,0,1-.3037.6953,1.0668,1.0668,0,0,1-.7519.28,1.01,1.01,0,0,1-.7364-.28.932.932,0,0,1-.2881-.6953V53.648h-2.5117a.9852.9852,0,0,1-.7041-.2558.8774.8774,0,0,1-.2715-.6719.85.85,0,0,1,.2793-.6562.9963.9963,0,0,1,.6963-.2559h7.1035A.989.989,0,0,1,205.7488,52.0641Z"/><path d="M214.6531,61.4488a.8881.8881,0,0,1,.2793.6475.85.85,0,0,1-.2793.6562.9936.9936,0,0,1-.6963.2559h-5.36a.9576.9576,0,0,1-.9756-.9756v-9.248a.9576.9576,0,0,1,.9756-.9766h5.36a.9749.9749,0,0,1,.6963.2646.8915.8915,0,0,1,.2793.68.8361.8361,0,0,1-.2715.6475,1.0018,1.0018,0,0,1-.7041.248h-4.3359v2.7207h3.6162a.9756.9756,0,0,1,.6953.2637.8923.8923,0,0,1,.28.68.8354.8354,0,0,1-.2725.6484,1.0035,1.0035,0,0,1-.7031.2481h-3.6162v2.96h4.3359A.9477.9477,0,0,1,214.6531,61.4488Zm-3.8086-10.4082a.5232.5232,0,0,1-.1836-.416.5959.5959,0,0,1,.2237-.4326l1.376-1.2158a1.25,1.25,0,0,1,.7841-.3516.8939.8939,0,0,1,.5762.2236.6984.6984,0,0,1,.2715.5606.8579.8579,0,0,1-.1514.4717,1.0966,1.0966,0,0,1-.44.3759l-1.6.8477a.7.7,0,0,1-.3682.0967A.7191.7191,0,0,1,210.8445,51.0406Z"/><path d="M225.6365,57.2408a.9566.9566,0,0,1,.2725.6953v3.3926a.9576.9576,0,0,1-.4961.8633,6.3805,6.3805,0,0,1-3.44.9765,5.8655,5.8655,0,0,1-5.0566-2.872,5.7107,5.7107,0,0,1,0-5.7764,5.8168,5.8168,0,0,1,2.1279-2.0957,5.754,5.754,0,0,1,2.9287-.7764,5.6419,5.6419,0,0,1,2.752.6407.8688.8688,0,0,1,.48.7841,1.0112,1.0112,0,0,1-.2637.6954.8362.8362,0,0,1-.6484.2959,1.2963,1.2963,0,0,1-.5274-.128,4.5348,4.5348,0,0,0-1.792-.3681,3.5942,3.5942,0,0,0-1.8886.5205,3.8735,3.8735,0,0,0,0,6.64,3.5942,3.5942,0,0,0,1.8886.5205,6.192,6.192,0,0,0,.96-.08,5.6541,5.6541,0,0,0,.8955-.208v-2.08H222.325a.9593.9593,0,0,1-.6963-.2725.987.987,0,0,1,0-1.376.9626.9626,0,0,1,.6963-.2715h2.624A.9171.9171,0,0,1,225.6365,57.2408Z"/><path d="M236.86,61.776a.8576.8576,0,0,1,.12.4326.8238.8238,0,0,1-.1914.5273.903.903,0,0,1-.7364.2881,1.44,1.44,0,0,1-.7041-.1758,2.81,2.81,0,0,1-1.1513-2.6718,1.1653,1.1653,0,0,0-.376-.9122,1.5726,1.5726,0,0,0-1.08-.3359h-2.9922v3.1045a1.0469,1.0469,0,0,1-.2324.7031.7674.7674,0,0,1-.6162.2725,1.2375,1.2375,0,0,1-.8076-.28.8612.8612,0,0,1-.3438-.6953v-9.248a.9576.9576,0,0,1,.9756-.9766h4.6084a2.9613,2.9613,0,0,1,1.5674.4482,3.3066,3.3066,0,0,1,1.1768,1.2325,3.5365,3.5365,0,0,1,.4394,1.76,3.1151,3.1151,0,0,1-.4316,1.56,3.442,3.442,0,0,1-1.12,1.208,2.4507,2.4507,0,0,1,1.1035,1.8887,2.6664,2.6664,0,0,1,.0488.4951,4.9452,4.9452,0,0,0,.1279.7119.5234.5234,0,0,0,.2881.3281A.954.954,0,0,1,236.86,61.776Zm-3.0479-4.7676a2.0612,2.0612,0,0,0,.4483-.7276,2.72,2.72,0,0,0,.1757-.9843,1.9235,1.9235,0,0,0-.1757-.8242,1.6891,1.6891,0,0,0-.4483-.6.8737.8737,0,0,0-.56-.2246h-3.5039v3.6328h3.5039A.795.795,0,0,0,233.8123,57.0084Z"/><path d="M245.6932,61.4488a.8885.8885,0,0,1,.2793.6475.85.85,0,0,1-.2793.6562.9938.9938,0,0,1-.6963.2559h-5.36a.9576.9576,0,0,1-.9756-.9756v-9.248a.9576.9576,0,0,1,.9756-.9766h5.36a.975.975,0,0,1,.6963.2646.8919.8919,0,0,1,.2793.68.8364.8364,0,0,1-.2715.6475,1.002,1.002,0,0,1-.7041.248h-4.336v2.7207h3.6163a.9759.9759,0,0,1,.6953.2637.8926.8926,0,0,1,.28.68.8357.8357,0,0,1-.2724.6484,1.0036,1.0036,0,0,1-.7031.2481h-3.6163v2.96h4.336A.9478.9478,0,0,1,245.6932,61.4488Zm-3.8086-10.4082a.5229.5229,0,0,1-.1836-.416.5958.5958,0,0,1,.2236-.4326l1.376-1.2158a1.25,1.25,0,0,1,.7842-.3516.8938.8938,0,0,1,.5761.2236.6984.6984,0,0,1,.2715.5606.8586.8586,0,0,1-.1513.4717,1.0976,1.0976,0,0,1-.4405.3759l-1.6.8477a.7.7,0,0,1-.3681.0967A.7187.7187,0,0,1,241.8846,51.0406Z"/><path d="M259.5164,52.5523a4.7375,4.7375,0,0,1,1.6485,2.0157,7.3939,7.3939,0,0,1,0,5.6806,4.7367,4.7367,0,0,1-1.6485,2.0156,4.44,4.44,0,0,1-2.584.7442h-3.8242a.9576.9576,0,0,1-.9756-.9756v-9.248a.9576.9576,0,0,1,.9756-.9766h3.8242A4.44,4.44,0,0,1,259.5164,52.5523Zm-.584,7.5518a5.3828,5.3828,0,0,0-.0078-5.3916,2.44,2.44,0,0,0-2.1523-1.0645h-2.64v7.52h2.64A2.4338,2.4338,0,0,0,258.9324,60.1041Z"/><path d="M265.493,54.3521a3.4072,3.4072,0,0,1-.7041.9766,1.292,1.292,0,0,1-.8965.416.9278.9278,0,0,1-.56-.1523.5638.5638,0,0,1-.208-.4883.4383.4383,0,0,1,.1279-.3594.8456.8456,0,0,1,.28-.1523,1.7134,1.7134,0,0,0,.2158-.08.7187.7187,0,0,0,.4483-.64.3993.3993,0,0,0-.168-.3125.6837.6837,0,0,0-.44-.1357.816.816,0,0,0-.4483.1123.7444.7444,0,0,1-.2959-.208.6032.6032,0,0,1-.1035-.3848.9058.9058,0,0,1,.24-.6,1.7652,1.7652,0,0,1,.5918-.4482,1.5985,1.5985,0,0,1,.6875-.168,1.4188,1.4188,0,0,1,1.1044.44,1.8025,1.8025,0,0,1,.3995,1.2559A2.2523,2.2523,0,0,1,265.493,54.3521Z"/><path d="M277.4119,60.3121A5.3951,5.3951,0,0,1,275.4686,62.4a5.456,5.456,0,0,1-5.584,0,5.327,5.327,0,0,1-1.9365-2.0879,6.4031,6.4031,0,0,1,0-5.8076,5.327,5.327,0,0,1,1.9365-2.0879,5.4554,5.4554,0,0,1,5.584,0,5.3951,5.3951,0,0,1,1.9433,2.0879,6.34,6.34,0,0,1,0,5.8076Zm-1.8076-4.8477a3.4879,3.4879,0,0,0-1.2-1.3837,3.2024,3.2024,0,0,0-3.4639-.0079,3.3824,3.3824,0,0,0-1.1845,1.3838,4.7049,4.7049,0,0,0,0,3.9034,3.3844,3.3844,0,0,0,1.1845,1.3847,3.2048,3.2048,0,0,0,3.4639-.0088,3.4808,3.4808,0,0,0,1.2-1.3838,4.5932,4.5932,0,0,0,0-3.8877Z"/><path d="M287.98,57.8248a2.8037,2.8037,0,0,1,.5361,1.7754,3,3,0,0,1-1.0879,2.6562,4.4488,4.4488,0,0,1-2.5918.752h-3.9843a.9574.9574,0,0,1-.9756-.9756v-9.248a.9575.9575,0,0,1,.9756-.9766h4.0322q3.0395,0,3.04,2.8486A2.2944,2.2944,0,0,1,286.5965,56.8,3.2156,3.2156,0,0,1,287.98,57.8248Zm-2.4639-3.8008a1.247,1.247,0,0,0-.92-.3271h-2.64V56.192h2.6875a1.2241,1.2241,0,0,0,.84-.3194,1.099,1.099,0,0,0,.36-.8642A1.3369,1.3369,0,0,0,285.5164,54.024Zm.4961,6.7442a1.5316,1.5316,0,0,0,.4238-1.168,1.3094,1.3094,0,0,0-.4961-1.2315,2.3791,2.3791,0,0,0-1.2158-.288h-2.7676v3.0878h2.88A1.6453,1.6453,0,0,0,286.0125,60.7682Z"/><path d="M291.8279,62.8805a4.7507,4.7507,0,0,1-1.68-.9756,1.1266,1.1266,0,0,1-.4326-.8487.9.9,0,0,1,.2725-.6474.88.88,0,0,1,.6562-.28.8489.8489,0,0,1,.544.1914,4.6758,4.6758,0,0,0,1.248.7686,3.91,3.91,0,0,0,1.44.24,2.88,2.88,0,0,0,1.5439-.4,1.1583,1.1583,0,0,0,.6485-.9922,1.2734,1.2734,0,0,0-.6407-1.1279,5.4307,5.4307,0,0,0-2.0312-.6162q-3.5038-.5112-3.5039-3.2637a2.9517,2.9517,0,0,1,.5273-1.7519,3.3381,3.3381,0,0,1,1.4405-1.1358,5.0861,5.0861,0,0,1,2.0322-.3926,5.8,5.8,0,0,1,1.8955.3047,4.5957,4.5957,0,0,1,1.4805.8,1.07,1.07,0,0,1,.4638.8477.9009.9009,0,0,1-.2724.6484.864.864,0,0,1-.64.2793.7068.7068,0,0,1-.4326-.1435,4.2214,4.2214,0,0,0-1.1592-.6162,3.8447,3.8447,0,0,0-1.3359-.2793,2.7514,2.7514,0,0,0-1.5606.3759,1.1938,1.1938,0,0,0,.0166,2.0235,5.3647,5.3647,0,0,0,1.7832.5761,9.2451,9.2451,0,0,1,2.2.6163,2.8035,2.8035,0,0,1,1.24,1.0234,3.15,3.15,0,0,1,.416,1.7207,2.8709,2.8709,0,0,1-.5684,1.7676A3.6489,3.6489,0,0,1,295.908,62.76a5.06,5.06,0,0,1-2.0322.4082A6.6819,6.6819,0,0,1,291.8279,62.8805Z"/><path d="M306.78,61.4488a.8885.8885,0,0,1,.2793.6475.85.85,0,0,1-.2793.6562.9938.9938,0,0,1-.6963.2559h-5.36a.9574.9574,0,0,1-.9755-.9756v-9.248a.9575.9575,0,0,1,.9755-.9766h5.36a.975.975,0,0,1,.6963.2646.8919.8919,0,0,1,.2793.68.8361.8361,0,0,1-.2715.6475,1.0018,1.0018,0,0,1-.7041.248h-4.3359v2.7207h3.6162a.9758.9758,0,0,1,.6953.2637.8927.8927,0,0,1,.28.68.8358.8358,0,0,1-.2725.6484,1.0036,1.0036,0,0,1-.7031.2481h-3.6162v2.96h4.3359A.9478.9478,0,0,1,306.78,61.4488Z"/><path d="M317.9315,61.776a.8576.8576,0,0,1,.12.4326.8238.8238,0,0,1-.1914.5273.903.903,0,0,1-.7364.2881,1.44,1.44,0,0,1-.7041-.1758,2.81,2.81,0,0,1-1.1513-2.6718,1.1653,1.1653,0,0,0-.376-.9122,1.5726,1.5726,0,0,0-1.08-.3359H310.82v3.1045a1.0469,1.0469,0,0,1-.2324.7031.7674.7674,0,0,1-.6162.2725,1.2375,1.2375,0,0,1-.8076-.28.8612.8612,0,0,1-.3438-.6953v-9.248a.9576.9576,0,0,1,.9756-.9766h4.6084a2.9613,2.9613,0,0,1,1.5674.4482,3.3055,3.3055,0,0,1,1.1767,1.2325,3.5355,3.5355,0,0,1,.44,1.76,3.1161,3.1161,0,0,1-.4316,1.56,3.4413,3.4413,0,0,1-1.12,1.208,2.4505,2.4505,0,0,1,1.1036,1.8887,2.6664,2.6664,0,0,1,.0488.4951,4.931,4.931,0,0,0,.1279.7119.5234.5234,0,0,0,.2881.3281A.954.954,0,0,1,317.9315,61.776Zm-3.0479-4.7676a2.0611,2.0611,0,0,0,.4482-.7276,2.718,2.718,0,0,0,.1758-.9843,1.9221,1.9221,0,0,0-.1758-.8242,1.6889,1.6889,0,0,0-.4482-.6.8737.8737,0,0,0-.56-.2246H310.82v3.6328h3.5039A.795.795,0,0,0,314.8836,57.0084Z"/><path d="M328.3641,52.0484a.8609.8609,0,0,1,.2959.6563,1.1032,1.1032,0,0,1-.0957.4316l-3.9522,9.2481a1.07,1.07,0,0,1-.4.4638.9168.9168,0,0,1-1.0478-.0078.99.99,0,0,1-.36-.44l-3.9521-9.2793a.899.899,0,0,1-.0791-.4.86.86,0,0,1,.3193-.6963,1.0278,1.0278,0,0,1,.6563-.2637.9079.9079,0,0,1,.5117.16,1.0079,1.0079,0,0,1,.3681.4639l3.2159,7.5683,2.9443-7.5683a1.0216,1.0216,0,0,1,.3682-.4483.9073.9073,0,0,1,.5117-.16A.9969.9969,0,0,1,328.3641,52.0484Z"/><path d="M338.58,62.1441a.9077.9077,0,0,1-.2725.6807.8721.8721,0,0,1-.624.2637.8367.8367,0,0,1-.5195-.1758,1.1348,1.1348,0,0,1-.36-.48l-.832-1.9355h-4.7676l-.832,1.9521a.9941.9941,0,0,1-.3447.4717.8141.8141,0,0,1-1.3516-.6641,1.05,1.05,0,0,1,.0478-.3037l3.9844-9.5683a1.06,1.06,0,0,1,.3838-.4961.8365.8365,0,0,1,.5762-.1436.9523.9523,0,0,1,.8955.64L338.5,61.76A1.0906,1.0906,0,0,1,338.58,62.1441Zm-6.5928-3.4873h3.2l-1.6162-3.7441Z"/><path d="M347.1229,52.0641a.8809.8809,0,0,1,.2724.6718.8524.8524,0,0,1-.2724.6641,1.0022,1.0022,0,0,1-.7041.248H343.907v8.3848a.9073.9073,0,0,1-.3037.6953,1.0668,1.0668,0,0,1-.7519.28,1.01,1.01,0,0,1-.7364-.28.9319.9319,0,0,1-.288-.6953V53.648h-2.5118a.9853.9853,0,0,1-.7041-.2558.8774.8774,0,0,1-.2714-.6719.85.85,0,0,1,.2793-.6562.9959.9959,0,0,1,.6962-.2559h7.1036A.9893.9893,0,0,1,347.1229,52.0641Z"/><path d="M350.6922,62.7281a1.0054,1.0054,0,0,1-.7041.28.9593.9593,0,0,1-.7119-.28.94.94,0,0,1-.28-.6953v-9.248a.93.93,0,0,1,.2881-.6963,1.01,1.01,0,0,1,.7353-.28.955.955,0,0,1,.6885.28.934.934,0,0,1,.2881.6963v9.248A.9077.9077,0,0,1,350.6922,62.7281Z"/><path d="M362.9149,60.3121A5.3953,5.3953,0,0,1,360.9715,62.4a5.456,5.456,0,0,1-5.584,0,5.3284,5.3284,0,0,1-1.9365-2.0879,6.4031,6.4031,0,0,1,0-5.8076,5.3284,5.3284,0,0,1,1.9365-2.0879,5.4554,5.4554,0,0,1,5.584,0,5.3953,5.3953,0,0,1,1.9434,2.0879,6.34,6.34,0,0,1,0,5.8076Zm-1.8077-4.8477a3.4871,3.4871,0,0,0-1.2-1.3837,3.2022,3.2022,0,0,0-3.4638-.0079,3.3818,3.3818,0,0,0-1.1846,1.3838,4.7059,4.7059,0,0,0,0,3.9034,3.3838,3.3838,0,0,0,1.1846,1.3847,3.2046,3.2046,0,0,0,3.4638-.0088,3.48,3.48,0,0,0,1.2-1.3838,4.5922,4.5922,0,0,0,0-3.8877Z"/><path d="M374.5,52.0641a.9.9,0,0,1,.2393.6406v9.3281a.956.956,0,0,1-.9756.9756,1.39,1.39,0,0,1-.44-.0723.62.62,0,0,1-.3116-.2l-5.872-7.4551v6.8311a.8847.8847,0,0,1-.2481.6406.86.86,0,0,1-.6474.2559.813.813,0,0,1-.6241-.2559.9.9,0,0,1-.24-.6406V52.7848a.9576.9576,0,0,1,.9756-.9766,1.2206,1.2206,0,0,1,.4726.0967.7612.7612,0,0,1,.3438.2558l5.8242,7.4239v-6.88a.8821.8821,0,0,1,.2481-.6406.8436.8436,0,0,1,.6318-.2559A.819.819,0,0,1,374.5,52.0641Z"/><path d="M115.8065,69.0523a4.7366,4.7366,0,0,1,1.6484,2.0157,7.3927,7.3927,0,0,1,0,5.6806,4.7357,4.7357,0,0,1-1.6484,2.0156,4.4405,4.4405,0,0,1-2.584.7442h-3.8243a.9574.9574,0,0,1-.9755-.9756v-9.248a.9575.9575,0,0,1,.9755-.9766h3.8243A4.44,4.44,0,0,1,115.8065,69.0523Zm-.584,7.5518a5.3835,5.3835,0,0,0-.0078-5.3916,2.4407,2.4407,0,0,0-2.1524-1.0645h-2.64v7.52h2.64A2.434,2.434,0,0,0,115.2225,76.6041Z"/><path d="M126.8152,77.9488a.8881.8881,0,0,1,.2793.6475.85.85,0,0,1-.2793.6562.9935.9935,0,0,1-.6962.2559h-5.36a.9576.9576,0,0,1-.9756-.9756v-9.248a.9576.9576,0,0,1,.9756-.9766h5.36a.9748.9748,0,0,1,.6962.2646.8915.8915,0,0,1,.2793.68.8364.8364,0,0,1-.2714.6475,1.0022,1.0022,0,0,1-.7041.248h-4.336v2.7207h3.6162a.9756.9756,0,0,1,.6953.2637.8923.8923,0,0,1,.28.68.8357.8357,0,0,1-.2724.6484,1.0039,1.0039,0,0,1-.7032.2481H121.783v2.96h4.336A.9476.9476,0,0,1,126.8152,77.9488Z"/><path d="M130.4061,79.3805a4.7489,4.7489,0,0,1-1.68-.9756,1.1263,1.1263,0,0,1-.4326-.8487.9.9,0,0,1,.2724-.6474.8805.8805,0,0,1,.6563-.28.8486.8486,0,0,1,.5439.1914,4.6746,4.6746,0,0,0,1.2481.7686,3.9085,3.9085,0,0,0,1.4394.24,2.88,2.88,0,0,0,1.544-.4,1.1584,1.1584,0,0,0,.6484-.9922,1.2735,1.2735,0,0,0-.6406-1.1279,5.4313,5.4313,0,0,0-2.0313-.6162q-3.5038-.5112-3.5039-3.2637a2.9511,2.9511,0,0,1,.5274-1.7519,3.3372,3.3372,0,0,1,1.44-1.1358,5.0861,5.0861,0,0,1,2.0322-.3926,5.8,5.8,0,0,1,1.8955.3047,4.5957,4.5957,0,0,1,1.48.8,1.07,1.07,0,0,1,.4639.8477.9011.9011,0,0,1-.2725.6484.8636.8636,0,0,1-.64.2793.7068.7068,0,0,1-.4326-.1435,4.2222,4.2222,0,0,0-1.1591-.6162,3.8452,3.8452,0,0,0-1.336-.2793,2.751,2.751,0,0,0-1.56.3759,1.1937,1.1937,0,0,0,.0166,2.0235,5.3631,5.3631,0,0,0,1.7832.5761,9.2464,9.2464,0,0,1,2.2.6163,2.8026,2.8026,0,0,1,1.24,1.0234,3.15,3.15,0,0,1,.416,1.7207,2.8708,2.8708,0,0,1-.5683,1.7676,3.6493,3.6493,0,0,1-1.5118,1.1679,5.06,5.06,0,0,1-2.0322.4082A6.6807,6.6807,0,0,1,130.4061,79.3805Z"/><path d="M152.326,76.8121A5.3946,5.3946,0,0,1,150.3826,78.9a5.456,5.456,0,0,1-5.584,0,5.3284,5.3284,0,0,1-1.9365-2.0879,6.4031,6.4031,0,0,1,0-5.8076,5.3284,5.3284,0,0,1,1.9365-2.0879,5.4554,5.4554,0,0,1,5.584,0,5.3946,5.3946,0,0,1,1.9434,2.0879,6.34,6.34,0,0,1,0,5.8076Zm-1.8076-4.8477a3.4879,3.4879,0,0,0-1.2-1.3837,3.2024,3.2024,0,0,0-3.4639-.0079,3.3826,3.3826,0,0,0-1.1846,1.3838,4.7059,4.7059,0,0,0,0,3.9034,3.3846,3.3846,0,0,0,1.1846,1.3847,3.2048,3.2048,0,0,0,3.4639-.0088,3.4808,3.4808,0,0,0,1.2-1.3838,4.5932,4.5932,0,0,0,0-3.8877Z"/><path d="M163.1258,69.6685a1.0856,1.0856,0,0,1-.24.6563.792.792,0,0,1-.6563.3359,1.16,1.16,0,0,1-.5439-.1445,3.9431,3.9431,0,0,0-1.6954-.3682,3.8911,3.8911,0,0,0-1.9521.4727,3.1975,3.1975,0,0,0-1.28,1.3281,4.1612,4.1612,0,0,0-.4482,1.96,3.7869,3.7869,0,0,0,1.0166,2.8633,4.11,4.11,0,0,0,4.3594.6084,1.2947,1.2947,0,0,1,.5127-.128.8777.8777,0,0,1,.7031.3516,1.04,1.04,0,0,1,.24.6562.8706.8706,0,0,1-.1279.4639.8279.8279,0,0,1-.3682.32,5.8569,5.8569,0,0,1-2.6553.624,6.2916,6.2916,0,0,1-2.8808-.664,5.108,5.108,0,0,1-2.0957-1.96,5.9513,5.9513,0,0,1-.7842-3.1357,5.7753,5.7753,0,0,1,.7441-2.9287,5.2859,5.2859,0,0,1,2.0567-2.0235,5.9926,5.9926,0,0,1,2.96-.7285,5.6965,5.6965,0,0,1,2.64.624A.8585.8585,0,0,1,163.1258,69.6685Z"/><path d="M171.7742,77.9488a.8885.8885,0,0,1,.2793.6475.85.85,0,0,1-.2793.6562.9936.9936,0,0,1-.6963.2559h-5.36a.9576.9576,0,0,1-.9756-.9756v-9.248a.9576.9576,0,0,1,.9756-.9766h5.36a.9749.9749,0,0,1,.6963.2646.8919.8919,0,0,1,.2793.68.8361.8361,0,0,1-.2715.6475,1.0018,1.0018,0,0,1-.7041.248H166.742v2.7207h3.6162a.9756.9756,0,0,1,.6953.2637.8927.8927,0,0,1,.28.68.8354.8354,0,0,1-.2725.6484,1.0035,1.0035,0,0,1-.7031.2481H166.742v2.96h4.3359A.9477.9477,0,0,1,171.7742,77.9488Zm-3.8086-10.4082a.5232.5232,0,0,1-.1836-.416.5959.5959,0,0,1,.2237-.4326l1.3759-1.2158a1.2507,1.2507,0,0,1,.7842-.3516.8939.8939,0,0,1,.5762.2236.6984.6984,0,0,1,.2715.5606.8579.8579,0,0,1-.1514.4717,1.0966,1.0966,0,0,1-.44.3759l-1.6.8477a.7.7,0,0,1-.3682.0967A.7191.7191,0,0,1,167.9656,67.5406Z"/><path d="M182.6785,78.6441a.908.908,0,0,1-.2724.6807.8725.8725,0,0,1-.6241.2637.8369.8369,0,0,1-.52-.1758,1.1338,1.1338,0,0,1-.36-.4805l-.8321-1.9355h-4.7676l-.832,1.9521a.9941.9941,0,0,1-.3447.4717.8141.8141,0,0,1-1.3516-.6641,1.05,1.05,0,0,1,.0479-.3037l3.9844-9.5683a1.0588,1.0588,0,0,1,.3837-.4961.8367.8367,0,0,1,.5762-.1436.9523.9523,0,0,1,.8955.64l3.9365,9.3759A1.0883,1.0883,0,0,1,182.6785,78.6441Zm-6.5928-3.4873h3.2L177.67,71.4127Z"/><path d="M193.0779,68.5641a.9.9,0,0,1,.2393.6406v9.3281a.956.956,0,0,1-.9756.9756,1.39,1.39,0,0,1-.44-.0723.6188.6188,0,0,1-.3115-.2l-5.8721-7.4551v6.8311a.8847.8847,0,0,1-.2481.6406.86.86,0,0,1-.6474.2559.8127.8127,0,0,1-.624-.2559.8993.8993,0,0,1-.24-.6406V69.2848a.9576.9576,0,0,1,.9756-.9766,1.221,1.221,0,0,1,.4727.0967.7609.7609,0,0,1,.3437.2558l5.8242,7.4239v-6.88a.8825.8825,0,0,1,.2481-.6406.8437.8437,0,0,1,.6318-.2559A.8188.8188,0,0,1,193.0779,68.5641Z"/><path d="M197.1893,79.3805a4.7489,4.7489,0,0,1-1.68-.9756,1.1263,1.1263,0,0,1-.4326-.8487.9.9,0,0,1,.2724-.6474.8805.8805,0,0,1,.6563-.28.8486.8486,0,0,1,.5439.1914,4.6746,4.6746,0,0,0,1.2481.7686,3.9085,3.9085,0,0,0,1.4394.24,2.88,2.88,0,0,0,1.544-.4,1.1584,1.1584,0,0,0,.6484-.9922,1.2735,1.2735,0,0,0-.6406-1.1279,5.4313,5.4313,0,0,0-2.0313-.6162q-3.5039-.5112-3.5039-3.2637a2.9511,2.9511,0,0,1,.5274-1.7519,3.3372,3.3372,0,0,1,1.44-1.1358,5.0861,5.0861,0,0,1,2.0322-.3926,5.8,5.8,0,0,1,1.8955.3047,4.5957,4.5957,0,0,1,1.4805.8,1.07,1.07,0,0,1,.4639.8477.9011.9011,0,0,1-.2725.6484.8636.8636,0,0,1-.64.2793.7069.7069,0,0,1-.4327-.1435,4.2222,4.2222,0,0,0-1.1591-.6162,3.8452,3.8452,0,0,0-1.336-.2793,2.751,2.751,0,0,0-1.5605.3759,1.1937,1.1937,0,0,0,.0166,2.0235,5.3631,5.3631,0,0,0,1.7832.5761,9.2464,9.2464,0,0,1,2.2.6163,2.8026,2.8026,0,0,1,1.24,1.0234,3.15,3.15,0,0,1,.416,1.7207,2.8708,2.8708,0,0,1-.5683,1.7676,3.6493,3.6493,0,0,1-1.5118,1.1679,5.06,5.06,0,0,1-2.0322.4082A6.6807,6.6807,0,0,1,197.1893,79.3805Z"/><path d="M216.8934,69.0523a4.7366,4.7366,0,0,1,1.6484,2.0157,7.3927,7.3927,0,0,1,0,5.6806,4.7357,4.7357,0,0,1-1.6484,2.0156,4.4405,4.4405,0,0,1-2.584.7442h-3.8242a.9576.9576,0,0,1-.9756-.9756v-9.248a.9576.9576,0,0,1,.9756-.9766h3.8242A4.44,4.44,0,0,1,216.8934,69.0523Zm-.584,7.5518a5.3835,5.3835,0,0,0-.0078-5.3916,2.4407,2.4407,0,0,0-2.1524-1.0645h-2.64v7.52h2.64A2.434,2.434,0,0,0,216.3094,76.6041Z"/><path d="M229.493,68.5641a.9893.9893,0,0,1,.2558.7041V75.06a4.8163,4.8163,0,0,1-.56,2.3526,4.0358,4.0358,0,0,1-1.5674,1.6,4.5634,4.5634,0,0,1-2.3037.5762,4.6093,4.6093,0,0,1-2.3125-.5762,4.02,4.02,0,0,1-1.5762-1.6,4.8269,4.8269,0,0,1-.56-2.3526V69.2682a.9288.9288,0,0,1,.288-.6954,1.01,1.01,0,0,1,.7354-.28.9687.9687,0,0,1,.96.9756V75.06a2.7557,2.7557,0,0,0,.3359,1.3682,2.3417,2.3417,0,0,0,.9043.92,2.45,2.45,0,0,0,1.2246.32,2.6863,2.6863,0,0,0,1.2871-.32,2.4416,2.4416,0,0,0,.9609-.92,2.6129,2.6129,0,0,0,.3594-1.3682V69.2682a1.0245,1.0245,0,0,1,.24-.7041.8308.8308,0,0,1,.6562-.2715A.8821.8821,0,0,1,229.493,68.5641Z"/><path d="M244.8045,69.6685a1.0856,1.0856,0,0,1-.24.6563.792.792,0,0,1-.6563.3359,1.1606,1.1606,0,0,1-.5439-.1445,3.943,3.943,0,0,0-1.6953-.3682,3.8913,3.8913,0,0,0-1.9522.4727,3.1975,3.1975,0,0,0-1.28,1.3281,4.1612,4.1612,0,0,0-.4482,1.96,3.7873,3.7873,0,0,0,1.0166,2.8633,4.11,4.11,0,0,0,4.3594.6084,1.2955,1.2955,0,0,1,.5127-.128.8777.8777,0,0,1,.7031.3516,1.04,1.04,0,0,1,.24.6562.87.87,0,0,1-.1279.4639.8279.8279,0,0,1-.3682.32,5.8568,5.8568,0,0,1-2.6552.624,6.2921,6.2921,0,0,1-2.8809-.664,5.1086,5.1086,0,0,1-2.0957-1.96,5.9513,5.9513,0,0,1-.7842-3.1357,5.7743,5.7743,0,0,1,.7442-2.9287,5.2849,5.2849,0,0,1,2.0566-2.0235,5.9927,5.9927,0,0,1,2.96-.7285,5.6961,5.6961,0,0,1,2.64.624A.8585.8585,0,0,1,244.8045,69.6685Z"/><path d="M255.285,78.6441a.9081.9081,0,0,1-.2725.6807.8721.8721,0,0,1-.624.2637.8365.8365,0,0,1-.5195-.1758,1.1348,1.1348,0,0,1-.36-.4805l-.832-1.9355H247.909l-.832,1.9521a.9943.9943,0,0,1-.3448.4717.814.814,0,0,1-1.3515-.6641,1.05,1.05,0,0,1,.0478-.3037l3.9844-9.5683a1.06,1.06,0,0,1,.3838-.4961.8365.8365,0,0,1,.5762-.1436.9523.9523,0,0,1,.8955.64l3.9365,9.3759A1.0906,1.0906,0,0,1,255.285,78.6441Zm-6.5928-3.4873h3.2l-1.6162-3.7441Z"/><path d="M265.6854,68.5641a.9.9,0,0,1,.2392.6406v9.3281a.956.956,0,0,1-.9756.9756,1.39,1.39,0,0,1-.44-.0723.6188.6188,0,0,1-.3115-.2l-5.8721-7.4551v6.8311a.885.885,0,0,1-.248.6406.8608.8608,0,0,1-.6475.2559.813.813,0,0,1-.624-.2559.8993.8993,0,0,1-.24-.6406V69.2848a.9576.9576,0,0,1,.9756-.9766,1.221,1.221,0,0,1,.4727.0967.7609.7609,0,0,1,.3437.2558l5.8243,7.4239v-6.88a.8824.8824,0,0,1,.248-.6406.8437.8437,0,0,1,.6318-.2559A.8192.8192,0,0,1,265.6854,68.5641Z"/><path d="M277.1092,78.6441a.9077.9077,0,0,1-.2725.6807.8721.8721,0,0,1-.624.2637.8367.8367,0,0,1-.5195-.1758,1.1348,1.1348,0,0,1-.36-.4805l-.832-1.9355h-4.7676l-.832,1.9521a.9947.9947,0,0,1-.3447.4717.8141.8141,0,0,1-1.3516-.6641,1.05,1.05,0,0,1,.0478-.3037l3.9844-9.5683a1.06,1.06,0,0,1,.3838-.4961.8365.8365,0,0,1,.5762-.1436.9523.9523,0,0,1,.8955.64l3.9365,9.3759A1.0906,1.0906,0,0,1,277.1092,78.6441Zm-6.5928-3.4873h3.2L272.1,71.4127Z"/><path d="M285.7723,69.0523a4.7366,4.7366,0,0,1,1.6484,2.0157,7.3927,7.3927,0,0,1,0,5.6806,4.7357,4.7357,0,0,1-1.6484,2.0156,4.4405,4.4405,0,0,1-2.584.7442h-3.8242a.9576.9576,0,0,1-.9756-.9756v-9.248a.9576.9576,0,0,1,.9756-.9766h3.8242A4.44,4.44,0,0,1,285.7723,69.0523Zm-.584,7.5518a5.3835,5.3835,0,0,0-.0078-5.3916,2.4406,2.4406,0,0,0-2.1524-1.0645h-2.64v7.52h2.64A2.434,2.434,0,0,0,285.1883,76.6041Z"/><path d="M298.533,78.6441a.908.908,0,0,1-.2724.6807.8725.8725,0,0,1-.6241.2637.8367.8367,0,0,1-.5195-.1758,1.1348,1.1348,0,0,1-.36-.4805l-.832-1.9355H291.157l-.832,1.9521a.9941.9941,0,0,1-.3447.4717.8141.8141,0,0,1-1.3516-.6641,1.0467,1.0467,0,0,1,.0479-.3037l3.9843-9.5683a1.06,1.06,0,0,1,.3838-.4961.8367.8367,0,0,1,.5762-.1436.9523.9523,0,0,1,.8955.64l3.9365,9.3759A1.0883,1.0883,0,0,1,298.533,78.6441ZM291.94,75.1568h3.2l-1.6162-3.7441Z"/></g><path d="M92.48,35.8024,76.492,12.6568,51.023.0255,50.97,0,20.5723,8.8309H20.397L4.521,27.6959l-.0591.069.002.1516L0,58.81v.1734L16.0337,82.1l25.469,12.6311.24.0256,30.0234-8.8308h.1773L87.82,67.06l.0591-.0689-.002-.2422,4.5506-30.1355m-8.2916,3.875L75.88,16.5022l15.555,19.381Zm-70.76,17.3372L5.0427,34.2606,25.1109,29.157Zm.2441.7343.1614-.1493.3212-.3351L25.8638,29.432,38.815,53.8857Zm25.5047-3.7194-.6282,25.3686-24.11-20.781ZM26.627,28.9877l31.5808,2.8884L39.62,53.4428ZM59.32,30.7736,47.1243,9.4315l26.5442,5.021ZM74.4246,14.9665l8.7877,25.3784L60.0745,31.2856Zm-7.882,48.3784L40.282,54.0493l18.68-21.5666ZM58.3536,31.002,26.9419,28.1233l19.1705-18.54ZM40.0005,54.89l26.2173,9.2781L39.461,80.2942ZM66.7928,64.95l-1.7034,20.98-24.833-5.021ZM59.9171,32.268,83.234,41.4516,67.57,62.9667ZM76.045,13.533l9.7505,14L75.2476,14.1474Zm-.8662-.5868-.6853.571L61.2164,5.9779Zm-3.18.1714L46.9254,8.4332l3.9931-7.46ZM49.7569,1.1283l-3.8337,7.24-21.8914.3386ZM45.0706,9.25,26.1289,27.568,21.2161,9.6088Zm-24.65,1.0888,4.897,17.8038L5.4641,33.2151ZM5.2359,28.1469l12.02-14.3521L4.7691,32.4709Zm-.6165,7.6889L12.72,58.6447.92,58.3791ZM1.2051,59.3537l11.6526.2617L15.573,80.1169Zm12.6746.9155L37.7085,80.7961l-21.0625.7148Zm4.2038,22.09L38.53,81.6587l2.4573,12.0188Zm23.91,11.6289L39.522,81.8142l24.083,4.8515Zm29.5152-8.7366-4.72.6282,17.39-15.5886Zm-5.6057.0945,1.7819-20.7652,18.804,2.5855Zm2.19-21.6157L83.5606,42.4538l3.3968,23.87Zm19.41.063-3.0442-22.33,7.11-4.54Z"/><path d="M16.7268,57.7863a3.9015,3.9015,0,1,0-5.0151,5.18,3.8719,3.8719,0,0,0,2.987-.049,3.8963,3.8963,0,0,0,2.0281-5.1314Z"/><path d="M62.4451,28.2907a4.6956,4.6956,0,0,0-6.0959,7.1435,4.6135,4.6135,0,0,0,3.0124,1.1126c.13,0,.26-.004.3919-.0159a4.7019,4.7019,0,0,0,2.6916-8.24Z"/><path d="M77.3644,13.4188A3.1122,3.1122,0,1,0,74.5133,17.77a3.08,3.08,0,0,0,1.2343-.2579A3.1156,3.1156,0,0,0,77.3644,13.4188Z"/><path d="M42.8653,52.8146a3.1108,3.1108,0,1,0-3.9971,4.1309,3.0729,3.0729,0,0,0,2.3806-.0393A3.1131,3.1131,0,0,0,42.8653,52.8146Z"/><path d="M86.8019,39.6972a3.114,3.114,0,1,0-1.6167,4.0935A3.1119,3.1119,0,0,0,86.8019,39.6972Z"/></svg>