<svg xmlns="http://www.w3.org/2000/svg" viewBox="0 0 467.3195 94.7563"><defs><style>.a{isolation:isolate;}.b{fill:#404041;}.c{fill:#808081;}.d{fill:#c6e3df;}.e{fill:#52a79b;}</style></defs><g class="a"><path class="b" d="M31.338,19.5767a2.0954,2.0954,0,0,1-.3835,1.0963,1.5567,1.5567,0,0,1-1.26.6022,1.6321,1.6321,0,0,1-.8765-.2738A17.01,17.01,0,0,0,19.23,18.0975,15.7,15.7,0,0,0,11.2036,20.18a14.83,14.83,0,0,0-5.643,5.8349A17.451,17.451,0,0,0,3.506,34.5344a17.48,17.48,0,0,0,2.0819,8.6287,14.8273,14.8273,0,0,0,5.6708,5.8077A15.7584,15.7584,0,0,0,19.23,51.0249a16.9774,16.9774,0,0,0,9.5329-2.8493,1.7363,1.7363,0,0,1,.9311-.2738,1.5118,1.5118,0,0,1,1.26.6577A1.5321,1.5321,0,0,1,31.338,49.6a1.4228,1.4228,0,0,1-.7674,1.3156,20.0355,20.0355,0,0,1-5.26,2.3824,20.6753,20.6753,0,0,1-6.0809.9589,19.198,19.198,0,0,1-9.6153-2.4926,18.5134,18.5134,0,0,1-7.0126-6.9858A20.0578,20.0578,0,0,1,0,34.5344,19.9454,19.9454,0,0,1,2.575,24.48a18.7334,18.7334,0,0,1,6.9574-7.0666A18.9467,18.9467,0,0,1,19.23,14.8653a20.83,20.83,0,0,1,5.9991.8771,19.2521,19.2521,0,0,1,5.2868,2.4653A1.5254,1.5254,0,0,1,31.338,19.5767Z"/><path class="b" d="M44.2128,53.2164a1.6427,1.6427,0,0,1-1.2054.493,1.601,1.601,0,0,1-1.6985-1.6984V17.0569a1.6164,1.6164,0,0,1,.4931-1.2327,1.7653,1.7653,0,0,1,1.26-.4658A1.6838,1.6838,0,0,1,44.76,17.0569V52.011A1.85,1.85,0,0,1,44.2128,53.2164Z"/><path class="b" d="M89.8507,44.67a18.0133,18.0133,0,0,1-31.9968,0A21.5005,21.5005,0,0,1,55.5,34.5344a21.6249,21.6249,0,0,1,2.3541-10.1907,17.54,17.54,0,0,1,6.521-7.013,19.0861,19.0861,0,0,1,18.9568,0,17.5493,17.5493,0,0,1,6.519,7.013,21.6259,21.6259,0,0,1,2.3562,10.1907A21.5015,21.5015,0,0,1,89.8507,44.67Zm-3.04-18.6547A14.2029,14.2029,0,0,0,81.55,20.18a15.27,15.27,0,0,0-15.3962,0,14.1832,14.1832,0,0,0-5.258,5.8349,18.6685,18.6685,0,0,0-1.89,8.5195,18.6607,18.6607,0,0,0,1.89,8.5185,14.17,14.17,0,0,0,5.258,5.835,15.27,15.27,0,0,0,15.3962,0,14.19,14.19,0,0,0,5.26-5.835,18.6882,18.6882,0,0,0,1.8883-8.5185A18.696,18.696,0,0,0,86.8105,26.0149Z"/><path class="b" d="M134.83,44.67a18.012,18.012,0,0,1-31.9958,0,21.4891,21.4891,0,0,1-2.3551-10.1352,21.6135,21.6135,0,0,1,2.3551-10.1907,17.5308,17.5308,0,0,1,6.52-7.013,19.0861,19.0861,0,0,1,18.9568,0,17.5354,17.5354,0,0,1,6.519,7.013,21.6139,21.6139,0,0,1,2.3562,10.1907A21.49,21.49,0,0,1,134.83,44.67Zm-3.04-18.6547a14.1886,14.1886,0,0,0-5.26-5.8349,15.2677,15.2677,0,0,0-15.3952,0,14.1855,14.1855,0,0,0-5.259,5.8349,18.6826,18.6826,0,0,0-1.89,8.5195,18.6748,18.6748,0,0,0,1.89,8.5185,14.1727,14.1727,0,0,0,5.259,5.835,15.2683,15.2683,0,0,0,15.3952,0,14.1759,14.1759,0,0,0,5.26-5.835,18.6744,18.6744,0,0,0,1.8893-8.5185A18.6822,18.6822,0,0,0,131.79,26.0149Z"/><path class="b" d="M151.3475,52.9426a19.6119,19.6119,0,0,1-5.8895-4.1093,1.6567,1.6567,0,0,1-.6578-1.3144,1.7141,1.7141,0,0,1,.52-1.2054,1.59,1.59,0,0,1,1.1781-.5477,1.6754,1.6754,0,0,1,1.2054.5477,13.8246,13.8246,0,0,0,10.6838,4.7114,10.9644,10.9644,0,0,0,6.5462-1.8632,5.7333,5.7333,0,0,0,2.6028-4.8761,5.9624,5.9624,0,0,0-1.2872-3.9172,9.633,9.633,0,0,0-3.37-2.5472,44.8221,44.8221,0,0,0-5.3146-2.0268,32.39,32.39,0,0,1-5.8895-2.3017,10.795,10.795,0,0,1-3.8627-3.3686,9.0866,9.0866,0,0,1-1.4792-5.3419,8.7989,8.7989,0,0,1,1.5621-5.15,10.4868,10.4868,0,0,1,4.383-3.5343,15.4992,15.4992,0,0,1,6.4917-1.2872,17.383,17.383,0,0,1,6.2735,1.1235,11.2381,11.2381,0,0,1,4.6841,3.205,2.6478,2.6478,0,0,1,.8214,1.5883,1.5372,1.5372,0,0,1-.5476,1.1235,1.7142,1.7142,0,0,1-1.2054.52,1.2682,1.2682,0,0,1-.9315-.384,10.7869,10.7869,0,0,0-3.9446-2.8482,12.5474,12.5474,0,0,0-5.15-1.0963,11.048,11.048,0,0,0-6.5189,1.78,5.6306,5.6306,0,0,0-2.521,4.8488,5.6007,5.6007,0,0,0,2.4108,4.8761,25.6634,25.6634,0,0,0,6.9029,3.1231A41.6487,41.6487,0,0,1,165.4,35.0275a10.4649,10.4649,0,0,1,4.0274,3.4242,9.9347,9.9347,0,0,1,1.561,5.8339,8.55,8.55,0,0,1-1.6155,5.0681,10.9567,10.9567,0,0,1-4.4932,3.5889,15.5915,15.5915,0,0,1-6.5473,1.3145A17.4657,17.4657,0,0,1,151.3475,52.9426Z"/><path class="c" d="M21.4254,62.7931a.7006.7006,0,0,1-.1563.4268.5129.5129,0,0,1-.4257.2188.746.746,0,0,1-.3536-.0938,2.5654,2.5654,0,0,0-1.1025-.2393,2.531,2.531,0,0,0-1.2685.3067,2.0735,2.0735,0,0,0-.8321.8633,2.7071,2.7071,0,0,0-.292,1.2744,2.4636,2.4636,0,0,0,.6612,1.8613,2.6714,2.6714,0,0,0,2.8339.3955.8316.8316,0,0,1,.3321-.084.5729.5729,0,0,1,.458.2295.6714.6714,0,0,1,.1562.4258.57.57,0,0,1-.083.3018.5367.5367,0,0,1-.2392.208,3.8075,3.8075,0,0,1-1.7266.4052,4.0924,4.0924,0,0,1-1.8721-.4306,3.3277,3.3277,0,0,1-1.3623-1.2744,3.8668,3.8668,0,0,1-.51-2.0381,3.7523,3.7523,0,0,1,.4834-1.9033,3.4273,3.4273,0,0,1,1.3369-1.3155,3.898,3.898,0,0,1,1.9238-.4736,3.702,3.702,0,0,1,1.7158.4053A.5573.5573,0,0,1,21.4254,62.7931Z"/><path class="c" d="M28.2584,68.6281a.5928.5928,0,0,1-.1768.4424.5682.5682,0,0,1-.4062.1709.5452.5452,0,0,1-.3379-.1143.7425.7425,0,0,1-.2344-.3115l-.54-1.2588h-3.1l-.541,1.2686a.6323.6323,0,0,1-.2237.3066A.5295.5295,0,0,1,21.82,68.7a.7011.7011,0,0,1,.0313-.1973l2.59-6.2187a.6893.6893,0,0,1,.25-.3223.54.54,0,0,1,.374-.0938.6067.6067,0,0,1,.3487.1094.616.616,0,0,1,.2344.3067l2.5576,6.0937A.6976.6976,0,0,1,28.2584,68.6281Zm-4.2852-2.2676h2.08l-1.0508-2.4336Z"/><path class="c" d="M35.0387,62.0763a.5853.5853,0,0,1,.1562.4161v6.0625a.6222.6222,0,0,1-.6347.6347.9026.9026,0,0,1-.2862-.0468.3988.3988,0,0,1-.2021-.13l-3.8174-4.8467v4.4414a.5755.5755,0,0,1-.1611.416.5619.5619,0,0,1-.4209.166.5335.5335,0,0,1-.4063-.166.5876.5876,0,0,1-.1553-.416V62.5441a.6223.6223,0,0,1,.6338-.6347.8072.8072,0,0,1,.3076.0625.4945.4945,0,0,1,.2227.1669l3.7861,4.8252V62.4924a.5723.5723,0,0,1,.1612-.4161.546.546,0,0,1,.4111-.1669A.53.53,0,0,1,35.0387,62.0763Z"/><path class="c" d="M42.4859,68.6281a.5928.5928,0,0,1-.1767.4424.5684.5684,0,0,1-.4063.1709.5452.5452,0,0,1-.3379-.1143.7423.7423,0,0,1-.2343-.3115l-.54-1.2588h-3.1l-.541,1.2686a.6315.6315,0,0,1-.2236.3066.5294.5294,0,0,1-.8789-.4316.7008.7008,0,0,1,.0312-.1973l2.59-6.2187a.688.688,0,0,1,.25-.3223.54.54,0,0,1,.374-.0938.6064.6064,0,0,1,.3486.1094.6155.6155,0,0,1,.2344.3067l2.5576,6.0937A.6954.6954,0,0,1,42.4859,68.6281Zm-4.2851-2.2676h2.08L39.23,63.9269Z"/><path class="c" d="M48.1383,62.3928a3.0815,3.0815,0,0,1,1.07,1.31,4.8018,4.8018,0,0,1,0,3.6924,3.0755,3.0755,0,0,1-1.07,1.31,2.8908,2.8908,0,0,1-1.68.4834H43.9723a.6205.6205,0,0,1-.6338-.6347V62.5441a.6221.6221,0,0,1,.6338-.6347h2.4863A2.8908,2.8908,0,0,1,48.1383,62.3928Zm-.38,4.9091a3.4971,3.4971,0,0,0-.0059-3.5048,1.5843,1.5843,0,0,0-1.3984-.6915H44.6383v4.8877h1.7158A1.5834,1.5834,0,0,0,47.7584,67.3019Z"/><path class="c" d="M51.8453,69.008a.6574.6574,0,0,1-.458.1816.627.627,0,0,1-.4629-.1816.617.617,0,0,1-.1816-.4531V62.5441a.6063.6063,0,0,1,.1865-.4521.66.66,0,0,1,.4785-.1826.62.62,0,0,1,.4473.1826.6034.6034,0,0,1,.1875.4521v6.0108A.5947.5947,0,0,1,51.8453,69.008Z"/><path class="c" d="M59.3336,68.6281a.5928.5928,0,0,1-.1768.4424.5682.5682,0,0,1-.4062.1709.5452.5452,0,0,1-.3379-.1143.7425.7425,0,0,1-.2344-.3115l-.54-1.2588h-3.1l-.541,1.2686a.6323.6323,0,0,1-.2237.3066.5294.5294,0,0,1-.8789-.4316.7011.7011,0,0,1,.0313-.1973l2.59-6.2187a.6893.6893,0,0,1,.25-.3223.54.54,0,0,1,.374-.0938.607.607,0,0,1,.3487.1094.6153.6153,0,0,1,.2343.3067l2.5577,6.0937A.6976.6976,0,0,1,59.3336,68.6281Zm-4.2852-2.2676h2.08l-1.0508-2.4336Z"/><path class="c" d="M66.1139,62.0763a.5853.5853,0,0,1,.1562.4161v6.0625a.6222.6222,0,0,1-.6347.6347.9026.9026,0,0,1-.2862-.0468.3988.3988,0,0,1-.2021-.13L61.33,64.1662v4.4414a.5755.5755,0,0,1-.1611.416.5619.5619,0,0,1-.4209.166.5335.5335,0,0,1-.4063-.166.5876.5876,0,0,1-.1553-.416V62.5441a.6223.6223,0,0,1,.6338-.6347.8072.8072,0,0,1,.3076.0625.495.495,0,0,1,.2227.1669l3.7861,4.8252V62.4924a.5723.5723,0,0,1,.1612-.4161.546.546,0,0,1,.4111-.1669A.53.53,0,0,1,66.1139,62.0763Z"/><path class="c" d="M71.7818,69.008a.6574.6574,0,0,1-.458.1816.627.627,0,0,1-.4629-.1816.617.617,0,0,1-.1816-.4531V62.5441a.6063.6063,0,0,1,.1865-.4521.66.66,0,0,1,.4785-.1826.62.62,0,0,1,.4473.1826.6034.6034,0,0,1,.1875.4521v6.0108A.5947.5947,0,0,1,71.7818,69.008Z"/><path class="c" d="M79.4361,62.0763a.5849.5849,0,0,1,.1563.4161v6.0625a.6222.6222,0,0,1-.6348.6347.9016.9016,0,0,1-.2861-.0468.3991.3991,0,0,1-.2022-.13L74.652,64.1662v4.4414a.5756.5756,0,0,1-.1612.416.5616.5616,0,0,1-.4209.166.5333.5333,0,0,1-.4062-.166.5876.5876,0,0,1-.1553-.416V62.5441a.6221.6221,0,0,1,.6338-.6347.8076.8076,0,0,1,.3076.0625.4956.4956,0,0,1,.2227.1669l3.7861,4.8252V62.4924a.5727.5727,0,0,1,.1611-.4161.5464.5464,0,0,1,.4112-.1669A.53.53,0,0,1,79.4361,62.0763Z"/><path class="c" d="M86.3619,62.0763a.569.569,0,0,1,.1768.4366.5539.5539,0,0,1-.1768.4316.6531.6531,0,0,1-.457.1611H84.2721v5.4493a.5922.5922,0,0,1-.1983.4531.6952.6952,0,0,1-.4882.1816.6589.6589,0,0,1-.4786-.1816.6072.6072,0,0,1-.1875-.4531V63.1056H81.2867a.64.64,0,0,1-.457-.166.573.573,0,0,1-.1777-.4375.5519.5519,0,0,1,.1826-.4258.6423.6423,0,0,1,.4521-.1669h4.6182A.6394.6394,0,0,1,86.3619,62.0763Z"/><path class="c" d="M92.1705,68.176a.5792.5792,0,0,1,.1826.4209.5536.5536,0,0,1-.1826.4267.6472.6472,0,0,1-.4521.166H88.234a.6205.6205,0,0,1-.6338-.6347V62.5441a.6221.6221,0,0,1,.6338-.6347h3.4844a.6348.6348,0,0,1,.4521.1718.5818.5818,0,0,1,.1826.4424.5453.5453,0,0,1-.1767.4209.6541.6541,0,0,1-.458.1611H88.9v1.7676h2.3506a.6345.6345,0,0,1,.4521.1719.581.581,0,0,1,.1817.4424.5422.5422,0,0,1-.1768.4209.6516.6516,0,0,1-.457.1611H88.9v1.9238h2.8184A.6155.6155,0,0,1,92.1705,68.176Z"/><path class="c" d="M99.3307,65.4406a.6264.6264,0,0,1,.1767.4522v2.205a.6245.6245,0,0,1-.3222.5616,4.1508,4.1508,0,0,1-2.2364.6337,3.8086,3.8086,0,0,1-3.2861-1.8662,3.7118,3.7118,0,0,1,0-3.7548A3.7917,3.7917,0,0,1,95.0455,62.31a3.745,3.745,0,0,1,1.9033-.5039,3.6682,3.6682,0,0,1,1.7891.4161.5633.5633,0,0,1,.3115.51.6574.6574,0,0,1-.1709.4522.5457.5457,0,0,1-.4219.1924.85.85,0,0,1-.3427-.0831,2.9352,2.9352,0,0,0-1.1651-.2392,2.3371,2.3371,0,0,0-1.2275.3379,2.491,2.491,0,0,0-.8887.91,2.5378,2.5378,0,0,0,0,2.4961,2.4878,2.4878,0,0,0,.8887.9092,2.3381,2.3381,0,0,0,1.2275.3389,3.9909,3.9909,0,0,0,.6241-.0528,3.5454,3.5454,0,0,0,.582-.1347V66.506h-.9776a.6226.6226,0,0,1-.4521-.1767.6417.6417,0,0,1,0-.8946.6267.6267,0,0,1,.4521-.1767h1.7061A.6.6,0,0,1,99.3307,65.4406Z"/><path class="c" d="M106.6471,68.3888a.557.557,0,0,1,.0781.2813.54.54,0,0,1-.125.3428.588.588,0,0,1-.4785.1875.9341.9341,0,0,1-.458-.1143,1.8275,1.8275,0,0,1-.7481-1.7373.7541.7541,0,0,0-.2451-.5928,1.02,1.02,0,0,0-.7021-.2187H102.024v2.0176a.6863.6863,0,0,1-.15.458.5016.5016,0,0,1-.4013.1767.804.804,0,0,1-.5244-.1816.5619.5619,0,0,1-.2237-.4531V62.5441a.6223.6223,0,0,1,.6338-.6347h2.9951a1.9344,1.9344,0,0,1,1.02.291,2.16,2.16,0,0,1,.7646.8008,2.3018,2.3018,0,0,1,.2861,1.1445,2.0236,2.0236,0,0,1-.2812,1.0137,2.2289,2.2289,0,0,1-.7275.7851,1.5978,1.5978,0,0,1,.7177,1.2276,1.7767,1.7767,0,0,1,.03.3222,3.29,3.29,0,0,0,.084.4629.3391.3391,0,0,0,.1865.2129A.6211.6211,0,0,1,106.6471,68.3888Zm-1.9815-3.1a1.3285,1.3285,0,0,0,.291-.4726,1.7626,1.7626,0,0,0,.1143-.64,1.2507,1.2507,0,0,0-.1143-.5361,1.1016,1.1016,0,0,0-.291-.39.5709.5709,0,0,0-.3642-.1456H102.024v2.36h2.2774A.5169.5169,0,0,0,104.6656,65.2892Z"/><path class="c" d="M113.6,68.6281a.5928.5928,0,0,1-.1768.4424.5682.5682,0,0,1-.4062.1709.5452.5452,0,0,1-.3379-.1143.7425.7425,0,0,1-.2344-.3115l-.54-1.2588h-3.1l-.541,1.2686a.6323.6323,0,0,1-.2237.3066.5294.5294,0,0,1-.8789-.4316.7011.7011,0,0,1,.0313-.1973l2.59-6.2187a.6893.6893,0,0,1,.25-.3223.54.54,0,0,1,.374-.0938.6067.6067,0,0,1,.3487.1094.6153.6153,0,0,1,.2343.3067l2.5577,6.0937A.6976.6976,0,0,1,113.6,68.6281Zm-4.2852-2.2676h2.08l-1.0508-2.4336Z"/><path class="c" d="M119.1734,62.0763a.569.569,0,0,1,.1768.4366.5539.5539,0,0,1-.1768.4316.6531.6531,0,0,1-.457.1611h-1.6328v5.4493a.5924.5924,0,0,1-.1982.4531.6956.6956,0,0,1-.4883.1816.6587.6587,0,0,1-.4785-.1816.6072.6072,0,0,1-.1875-.4531V63.1056h-1.6329a.64.64,0,0,1-.457-.166.5733.5733,0,0,1-.1777-.4375.5519.5519,0,0,1,.1826-.4258.6423.6423,0,0,1,.4521-.1669h4.6182A.6394.6394,0,0,1,119.1734,62.0763Z"/><path class="c" d="M124.982,68.176a.5793.5793,0,0,1,.1827.4209.5537.5537,0,0,1-.1827.4267.6472.6472,0,0,1-.4521.166h-3.4844a.6207.6207,0,0,1-.6338-.6347V62.5441a.6223.6223,0,0,1,.6338-.6347H124.53a.6348.6348,0,0,1,.4521.1718.5819.5819,0,0,1,.1827.4424.5454.5454,0,0,1-.1768.4209.6541.6541,0,0,1-.458.1611h-2.8184v1.7676h2.3506a.6347.6347,0,0,1,.4522.1719.5809.5809,0,0,1,.1816.4424.5422.5422,0,0,1-.1768.4209.6514.6514,0,0,1-.457.1611h-2.3506v1.9238H124.53A.6155.6155,0,0,1,124.982,68.176Z"/><path class="c" d="M131.1285,62.3928a3.0815,3.0815,0,0,1,1.07,1.31,4.8006,4.8006,0,0,1,0,3.6924,3.0755,3.0755,0,0,1-1.07,1.31,2.8906,2.8906,0,0,1-1.68.4834h-2.4863a.6207.6207,0,0,1-.6338-.6347V62.5441a.6223.6223,0,0,1,.6338-.6347h2.4863A2.8906,2.8906,0,0,1,131.1285,62.3928Zm-.38,4.9091a3.4974,3.4974,0,0,0-.0058-3.5048,1.5846,1.5846,0,0,0-1.3985-.6915h-1.7158v4.8877h1.7158A1.5833,1.5833,0,0,0,130.7486,67.3019Z"/><path class="c" d="M142.8541,67.4377a3.4984,3.4984,0,0,1-1.2627,1.3564,3.55,3.55,0,0,1-3.63,0,3.4675,3.4675,0,0,1-1.2588-1.3564,4.167,4.167,0,0,1,0-3.7754,3.47,3.47,0,0,1,1.2588-1.3574,3.55,3.55,0,0,1,3.63,0,3.5012,3.5012,0,0,1,1.2627,1.3574,4.1192,4.1192,0,0,1,0,3.7754Zm-1.1748-3.1514a2.2658,2.2658,0,0,0-.78-.8994,1.9708,1.9708,0,0,0-1.123-.333,1.9979,1.9979,0,0,0-1.1279.3271,2.1956,2.1956,0,0,0-.77.9,3.0523,3.0523,0,0,0,0,2.538,2.1956,2.1956,0,0,0,.77.9,2.0812,2.0812,0,0,0,2.2509-.0049,2.2658,2.2658,0,0,0,.78-.8994,2.9791,2.9791,0,0,0,0-2.5274Z"/><path class="c" d="M149.8951,62.7931a.7.7,0,0,1-.1562.4268.5132.5132,0,0,1-.4258.2188.7457.7457,0,0,1-.3535-.0938,2.5662,2.5662,0,0,0-1.1026-.2393,2.531,2.531,0,0,0-1.2685.3067,2.0741,2.0741,0,0,0-.8321.8633,2.7071,2.7071,0,0,0-.2919,1.2744,2.4639,2.4639,0,0,0,.6611,1.8613,2.6716,2.6716,0,0,0,2.834.3955.8308.8308,0,0,1,.332-.084.5728.5728,0,0,1,.458.2295.6716.6716,0,0,1,.1563.4258.5708.5708,0,0,1-.083.3018.5375.5375,0,0,1-.2393.208,3.8075,3.8075,0,0,1-1.7266.4052,4.0916,4.0916,0,0,1-1.872-.4306,3.3265,3.3265,0,0,1-1.3623-1.2744,3.8659,3.8659,0,0,1-.51-2.0381,3.7523,3.7523,0,0,1,.4834-1.9033,3.4286,3.4286,0,0,1,1.3369-1.3155,3.8985,3.8985,0,0,1,1.9238-.4736,3.7027,3.7027,0,0,1,1.7159.4053A.5573.5573,0,0,1,149.8951,62.7931Z"/><path class="c" d="M155.5367,68.176a.5792.5792,0,0,1,.1826.4209.5536.5536,0,0,1-.1826.4267.6472.6472,0,0,1-.4521.166H151.6a.6207.6207,0,0,1-.6338-.6347V62.5441a.6223.6223,0,0,1,.6338-.6347h3.4844a.6348.6348,0,0,1,.4521.1718.5818.5818,0,0,1,.1826.4424.5453.5453,0,0,1-.1767.4209.6541.6541,0,0,1-.458.1611h-2.8184v1.7676h2.3506a.6343.6343,0,0,1,.4521.1719.581.581,0,0,1,.1817.4424.5422.5422,0,0,1-.1768.4209.6516.6516,0,0,1-.457.1611h-2.3506v1.9238h2.8184A.6155.6155,0,0,1,155.5367,68.176Z"/><path class="c" d="M162.6461,68.6281a.5928.5928,0,0,1-.1768.4424.5682.5682,0,0,1-.4062.1709.5452.5452,0,0,1-.3379-.1143.7425.7425,0,0,1-.2344-.3115l-.54-1.2588h-3.1l-.541,1.2686a.6323.6323,0,0,1-.2237.3066.5294.5294,0,0,1-.8789-.4316.7011.7011,0,0,1,.0313-.1973l2.59-6.2187a.6893.6893,0,0,1,.25-.3223.54.54,0,0,1,.374-.0938.607.607,0,0,1,.3487.1094.6153.6153,0,0,1,.2343.3067l2.5577,6.0937A.6976.6976,0,0,1,162.6461,68.6281Zm-4.2852-2.2676h2.08L159.39,63.9269Z"/><path class="c" d="M169.4264,62.0763a.5853.5853,0,0,1,.1562.4161v6.0625a.6222.6222,0,0,1-.6347.6347.9026.9026,0,0,1-.2862-.0468.3988.3988,0,0,1-.2021-.13l-3.8174-4.8467v4.4414a.5755.5755,0,0,1-.1611.416.5619.5619,0,0,1-.4209.166.5335.5335,0,0,1-.4063-.166.5876.5876,0,0,1-.1553-.416V62.5441a.6223.6223,0,0,1,.6338-.6347.8072.8072,0,0,1,.3076.0625.495.495,0,0,1,.2227.1669l3.7861,4.8252V62.4924a.5723.5723,0,0,1,.1612-.4161.546.546,0,0,1,.4111-.1669A.53.53,0,0,1,169.4264,62.0763Z"/><path class="c" d="M77.1168,78.4377a3.4984,3.4984,0,0,1-1.2627,1.3564,3.55,3.55,0,0,1-3.63,0,3.4675,3.4675,0,0,1-1.2588-1.3564,4.167,4.167,0,0,1,0-3.7754,3.47,3.47,0,0,1,1.2588-1.3574,3.55,3.55,0,0,1,3.63,0,3.5012,3.5012,0,0,1,1.2627,1.3574,4.1192,4.1192,0,0,1,0,3.7754ZM75.942,75.2863a2.2658,2.2658,0,0,0-.78-.8994,1.9708,1.9708,0,0,0-1.123-.333,1.9983,1.9983,0,0,0-1.128.3271,2.1962,2.1962,0,0,0-.77.9,3.0513,3.0513,0,0,0,0,2.538,2.1962,2.1962,0,0,0,.77.9,2.0814,2.0814,0,0,0,2.251-.0049,2.2658,2.2658,0,0,0,.78-.8994,2.98,2.98,0,0,0,0-2.5274Z"/><path class="c" d="M84.0074,76.8205a1.8217,1.8217,0,0,1,.3487,1.1543,1.9484,1.9484,0,0,1-.708,1.7256,2.8886,2.8886,0,0,1-1.6846.4892h-2.59a.6207.6207,0,0,1-.6338-.6347V73.5441a.6223.6223,0,0,1,.6338-.6347h2.6211q1.9761,0,1.9756,1.8515a1.5386,1.5386,0,0,1-.2226.8272,1.5629,1.5629,0,0,1-.64.5664A2.09,2.09,0,0,1,84.0074,76.8205ZM82.4059,74.35a.8124.8124,0,0,0-.5987-.2129H80.0914V75.759h1.7471a.795.795,0,0,0,.5459-.208.7123.7123,0,0,0,.2344-.5616A.8718.8718,0,0,0,82.4059,74.35Zm.3222,4.3838a.9943.9943,0,0,0,.2754-.7588c0-.4092-.1074-.6768-.3222-.8008a1.5488,1.5488,0,0,0-.79-.1875h-1.8v2.0068h1.8721A1.0672,1.0672,0,0,0,82.7281,78.7336Z"/><path class="c" d="M86.5289,80.1066a3.0637,3.0637,0,0,1-1.0918-.6347.7286.7286,0,0,1-.2812-.5508.5887.5887,0,0,1,.1767-.4219.5738.5738,0,0,1,.4268-.1816.5548.5548,0,0,1,.3535.125,3.0638,3.0638,0,0,0,.8105.499,2.5387,2.5387,0,0,0,.9366.1562,1.8811,1.8811,0,0,0,1.0039-.26.7554.7554,0,0,0,.4209-.6455.8286.8286,0,0,0-.416-.7334,3.54,3.54,0,0,0-1.3213-.4q-2.2764-.3325-2.2774-2.1211a1.9123,1.9123,0,0,1,.3438-1.1387,2.1628,2.1628,0,0,1,.9355-.7383,3.3113,3.3113,0,0,1,1.3213-.2549,3.7827,3.7827,0,0,1,1.2324.1973,2.9952,2.9952,0,0,1,.9619.52.6944.6944,0,0,1,.3008.5508.5848.5848,0,0,1-.1767.4209.5572.5572,0,0,1-.416.1826.4548.4548,0,0,1-.28-.0937,2.752,2.752,0,0,0-.7539-.4,2.508,2.508,0,0,0-.8682-.1826,1.7882,1.7882,0,0,0-1.0146.2451.7764.7764,0,0,0,.0107,1.3154,3.5015,3.5015,0,0,0,1.1592.374,6.083,6.083,0,0,1,1.4306.4,1.8288,1.8288,0,0,1,.8057.666,2.0487,2.0487,0,0,1,.27,1.1182,1.87,1.87,0,0,1-.3691,1.1494,2.3756,2.3756,0,0,1-.9834.7588,3.29,3.29,0,0,1-1.32.2646A4.3393,4.3393,0,0,1,86.5289,80.1066Z"/><path class="c" d="M96.2682,79.176a.5792.5792,0,0,1,.1826.4209.5536.5536,0,0,1-.1826.4267.6474.6474,0,0,1-.4522.166H92.3316a.6205.6205,0,0,1-.6337-.6347V73.5441a.6221.6221,0,0,1,.6337-.6347H95.816a.6351.6351,0,0,1,.4522.1718.5818.5818,0,0,1,.1826.4424.5454.5454,0,0,1-.1768.4209.654.654,0,0,1-.458.1611H92.9977v1.7676h2.3505a.6347.6347,0,0,1,.4522.1719.5809.5809,0,0,1,.1816.4424.5424.5424,0,0,1-.1767.4209.6517.6517,0,0,1-.4571.1611H92.9977v1.9238H95.816A.6157.6157,0,0,1,96.2682,79.176Z"/><path class="c" d="M103.5387,79.3888a.557.557,0,0,1,.0781.2813.54.54,0,0,1-.125.3428.588.588,0,0,1-.4785.1875.9341.9341,0,0,1-.458-.1143,1.8275,1.8275,0,0,1-.7481-1.7373.7541.7541,0,0,0-.2451-.5928,1.02,1.02,0,0,0-.7021-.2187H98.9156v2.0176a.6863.6863,0,0,1-.15.458.5016.5016,0,0,1-.4013.1767.804.804,0,0,1-.5244-.1816.5619.5619,0,0,1-.2237-.4531V73.5441a.6223.6223,0,0,1,.6338-.6347h2.9951a1.9344,1.9344,0,0,1,1.02.291,2.16,2.16,0,0,1,.7646.8008,2.3018,2.3018,0,0,1,.2861,1.1445,2.0236,2.0236,0,0,1-.2812,1.0137,2.2289,2.2289,0,0,1-.7275.7851,1.5978,1.5978,0,0,1,.7177,1.2276,1.7767,1.7767,0,0,1,.03.3222,3.29,3.29,0,0,0,.084.4629.3391.3391,0,0,0,.1865.2129A.6211.6211,0,0,1,103.5387,79.3888Zm-1.9815-3.1a1.3285,1.3285,0,0,0,.291-.4726,1.7626,1.7626,0,0,0,.1143-.64,1.2507,1.2507,0,0,0-.1143-.5361,1.1016,1.1016,0,0,0-.291-.39.5709.5709,0,0,0-.3642-.1456H98.9156v2.36h2.2774A.5169.5169,0,0,0,101.5572,76.2892Z"/><path class="c" d="M110.34,73.0656a.56.56,0,0,1,.1923.4268.7015.7015,0,0,1-.0625.28l-2.5683,6.0118a.6949.6949,0,0,1-.2608.3017.5963.5963,0,0,1-.6806-.0058.6426.6426,0,0,1-.2344-.2862l-2.5684-6.0312a.575.575,0,0,1-.0527-.2608.5577.5577,0,0,1,.208-.4521.6682.6682,0,0,1,.4268-.1719.5915.5915,0,0,1,.333.1045.66.66,0,0,1,.2392.3018l2.09,4.9189,1.914-4.9189a.6693.6693,0,0,1,.2393-.292.5948.5948,0,0,1,.333-.1036A.6468.6468,0,0,1,110.34,73.0656Z"/><path class="c" d="M112.6959,80.008a.6576.6576,0,0,1-.458.1816.627.627,0,0,1-.4629-.1816.617.617,0,0,1-.1816-.4531V73.5441a.6063.6063,0,0,1,.1865-.4521.66.66,0,0,1,.4785-.1826.62.62,0,0,1,.4473.1826.6034.6034,0,0,1,.1875.4521v6.0108A.5947.5947,0,0,1,112.6959,80.008Z"/><path class="c" d="M120.3492,73.0763a.5854.5854,0,0,1,.1563.4161v6.0625a.6222.6222,0,0,1-.6348.6347.9016.9016,0,0,1-.2861-.0468.3987.3987,0,0,1-.2022-.13l-3.8174-4.8467v4.4414a.5755.5755,0,0,1-.1611.416.5616.5616,0,0,1-.4209.166.5333.5333,0,0,1-.4062-.166.5871.5871,0,0,1-.1553-.416V73.5441a.6221.6221,0,0,1,.6338-.6347.8076.8076,0,0,1,.3076.0625.4956.4956,0,0,1,.2227.1669l3.7861,4.8252V73.4924a.5727.5727,0,0,1,.1611-.4161.5461.5461,0,0,1,.4111-.1669A.53.53,0,0,1,120.3492,73.0763Z"/><path class="c" d="M127.8482,76.4406a.6265.6265,0,0,1,.1768.4522v2.205a.6244.6244,0,0,1-.3223.5616,4.15,4.15,0,0,1-2.2363.6337,3.8086,3.8086,0,0,1-3.2861-1.8662,3.7118,3.7118,0,0,1,0-3.7548,3.7917,3.7917,0,0,1,1.3828-1.3624,3.745,3.745,0,0,1,1.9033-.5039,3.6687,3.6687,0,0,1,1.7891.4161.5633.5633,0,0,1,.3115.51.6574.6574,0,0,1-.1709.4522.5457.5457,0,0,1-.4219.1924.85.85,0,0,1-.3428-.0831,2.9347,2.9347,0,0,0-1.165-.2392,2.3371,2.3371,0,0,0-1.2275.3379,2.4894,2.4894,0,0,0-.8887.91,2.5174,2.5174,0,0,0,.8887,3.4053,2.3381,2.3381,0,0,0,1.2275.3389,3.99,3.99,0,0,0,.624-.0528,3.5468,3.5468,0,0,0,.5821-.1347V77.506h-.9776a.6225.6225,0,0,1-.4521-.1767.6414.6414,0,0,1,0-.8946.6266.6266,0,0,1,.4521-.1767h1.7061A.6.6,0,0,1,127.8482,76.4406Z"/><path class="c" d="M133.1314,80.1066a3.0634,3.0634,0,0,1-1.0917-.6347.7287.7287,0,0,1-.2813-.5508.5884.5884,0,0,1,.1768-.4219.5735.5735,0,0,1,.4267-.1816.5546.5546,0,0,1,.3535.125,3.0658,3.0658,0,0,0,.8106.499,2.5385,2.5385,0,0,0,.9365.1562,1.8809,1.8809,0,0,0,1.0039-.26.7552.7552,0,0,0,.4209-.6455.8286.8286,0,0,0-.416-.7334,3.54,3.54,0,0,0-1.3213-.4q-2.2764-.3325-2.2773-2.1211a1.9122,1.9122,0,0,1,.3437-1.1387,2.1625,2.1625,0,0,1,.9356-.7383,3.3108,3.3108,0,0,1,1.3212-.2549,3.7833,3.7833,0,0,1,1.2325.1973,2.9973,2.9973,0,0,1,.9619.52.6944.6944,0,0,1,.3008.5508.5845.5845,0,0,1-.1768.4209.5572.5572,0,0,1-.416.1826.455.455,0,0,1-.28-.0937,2.749,2.749,0,0,0-.7539-.4,2.508,2.508,0,0,0-.8682-.1826,1.7884,1.7884,0,0,0-1.0146.2451.7764.7764,0,0,0,.0107,1.3154,3.5024,3.5024,0,0,0,1.1592.374,6.084,6.084,0,0,1,1.4307.4,1.8285,1.8285,0,0,1,.8056.666,2.0487,2.0487,0,0,1,.2706,1.1182,1.87,1.87,0,0,1-.3692,1.1494,2.3756,2.3756,0,0,1-.9834.7588,3.29,3.29,0,0,1-1.32.2646A4.34,4.34,0,0,1,133.1314,80.1066Z"/><path class="c" d="M143.2916,73.9084l-2.1728,3.1094v2.5371a.6255.6255,0,0,1-.1778.4531.5715.5715,0,0,1-.4258.1816.6017.6017,0,0,1-.4423-.1816.6171.6171,0,0,1-.1817-.4531V76.8722l-2.1631-2.871a.8158.8158,0,0,1-.1875-.4883.5712.5712,0,0,1,.2129-.4522.69.69,0,0,1,.4531-.1826.63.63,0,0,1,.5088.292l1.8311,2.5264,1.7158-2.5059a.6281.6281,0,0,1,.5195-.3125.5991.5991,0,0,1,.4375.1875.6218.6218,0,0,1,.1866.458A.6957.6957,0,0,1,143.2916,73.9084Z"/><path class="c" d="M145.06,80.1066a3.0629,3.0629,0,0,1-1.0918-.6347.7287.7287,0,0,1-.2813-.5508.5884.5884,0,0,1,.1768-.4219.5735.5735,0,0,1,.4267-.1816.5544.5544,0,0,1,.3535.125,3.0658,3.0658,0,0,0,.8106.499,2.5385,2.5385,0,0,0,.9365.1562,1.8809,1.8809,0,0,0,1.0039-.26.7552.7552,0,0,0,.4209-.6455.8286.8286,0,0,0-.416-.7334,3.539,3.539,0,0,0-1.3213-.4q-2.2764-.3325-2.2773-2.1211a1.9122,1.9122,0,0,1,.3437-1.1387,2.1631,2.1631,0,0,1,.9356-.7383,3.3109,3.3109,0,0,1,1.3213-.2549,3.7831,3.7831,0,0,1,1.2324.1973,2.9963,2.9963,0,0,1,.9619.52.6944.6944,0,0,1,.3008.5508.5845.5845,0,0,1-.1768.4209.5571.5571,0,0,1-.416.1826.455.455,0,0,1-.28-.0937,2.749,2.749,0,0,0-.7539-.4,2.5075,2.5075,0,0,0-.8681-.1826,1.7888,1.7888,0,0,0-1.0147.2451.7763.7763,0,0,0,.0108,1.3154,3.5008,3.5008,0,0,0,1.1591.374,6.084,6.084,0,0,1,1.4307.4,1.8294,1.8294,0,0,1,.8057.666,2.05,2.05,0,0,1,.27,1.1182,1.87,1.87,0,0,1-.3692,1.1494,2.3756,2.3756,0,0,1-.9834.7588,3.29,3.29,0,0,1-1.32.2646A4.3391,4.3391,0,0,1,145.06,80.1066Z"/><path class="c" d="M155.4693,73.0763a.569.569,0,0,1,.1768.4366.5539.5539,0,0,1-.1768.4316.6531.6531,0,0,1-.457.1611H153.38v5.4493a.5924.5924,0,0,1-.1982.4531.6956.6956,0,0,1-.4883.1816.6587.6587,0,0,1-.4785-.1816.6072.6072,0,0,1-.1875-.4531V74.1056h-1.6329a.64.64,0,0,1-.457-.166.573.573,0,0,1-.1777-.4375.5519.5519,0,0,1,.1826-.4258.6423.6423,0,0,1,.4521-.1669h4.6182A.6394.6394,0,0,1,155.4693,73.0763Z"/><path class="c" d="M161.2779,79.176a.5793.5793,0,0,1,.1827.4209.5537.5537,0,0,1-.1827.4267.6472.6472,0,0,1-.4521.166h-3.4844a.6207.6207,0,0,1-.6338-.6347V73.5441a.6223.6223,0,0,1,.6338-.6347h3.4844a.6348.6348,0,0,1,.4521.1718.5819.5819,0,0,1,.1827.4424.5454.5454,0,0,1-.1768.4209.6541.6541,0,0,1-.458.1611h-2.8184v1.7676h2.3506a.6347.6347,0,0,1,.4522.1719.5809.5809,0,0,1,.1816.4424.5422.5422,0,0,1-.1768.4209.6514.6514,0,0,1-.457.1611h-2.3506v1.9238h2.8184A.6155.6155,0,0,1,161.2779,79.176Z"/><path class="c" d="M169.3893,73.0812a.5951.5951,0,0,1,.1923.4522v6.0215a.6137.6137,0,0,1-.6445.6347.6514.6514,0,0,1-.4736-.1767.6113.6113,0,0,1-.1817-.458v-4.19l-1.7158,2.62a.8927.8927,0,0,1-.2392.2031.486.486,0,0,1-.2813.0674.4633.4633,0,0,1-.2695-.0674.8649.8649,0,0,1-.2393-.2031L163.82,75.2707v4.2842a.64.64,0,0,1-.166.458.5719.5719,0,0,1-.4365.1767.5532.5532,0,0,1-.4268-.1816.6458.6458,0,0,1-.166-.4531V73.5334a.6011.6011,0,0,1,.1924-.4473A.6414.6414,0,0,1,163.28,72.9a.6815.6815,0,0,1,.3115.0781.6007.6007,0,0,1,.2393.2022l2.2675,3.4843,2.3291-3.4843a.6314.6314,0,0,1,.2237-.2022.5771.5771,0,0,1,.2861-.0781A.6373.6373,0,0,1,169.3893,73.0812Z"/></g><g class="a"><path class="b" d="M299.3989,52.942a19.6113,19.6113,0,0,1-5.89-4.1092,1.6571,1.6571,0,0,1-.6577-1.3145,1.7145,1.7145,0,0,1,.52-1.2054,1.59,1.59,0,0,1,1.1781-.5476,1.6757,1.6757,0,0,1,1.2054.5476,13.8243,13.8243,0,0,0,10.6838,4.7114,10.9644,10.9644,0,0,0,6.5462-1.8631,5.7333,5.7333,0,0,0,2.6028-4.8761,5.9629,5.9629,0,0,0-1.2872-3.9173,9.6316,9.6316,0,0,0-3.37-2.5471,44.8221,44.8221,0,0,0-5.3146-2.0268,32.3968,32.3968,0,0,1-5.8895-2.3017,10.7951,10.7951,0,0,1-3.8627-3.3686,9.0866,9.0866,0,0,1-1.4792-5.3419,8.7989,8.7989,0,0,1,1.5621-5.15,10.486,10.486,0,0,1,4.383-3.5343,15.4992,15.4992,0,0,1,6.4917-1.2872,17.3834,17.3834,0,0,1,6.2735,1.1235,11.2389,11.2389,0,0,1,4.6841,3.2049,2.6481,2.6481,0,0,1,.8214,1.5883,1.5372,1.5372,0,0,1-.5476,1.1236,1.7145,1.7145,0,0,1-1.2054.52,1.2684,1.2684,0,0,1-.9316-.3839,10.787,10.787,0,0,0-3.9445-2.8483,12.5489,12.5489,0,0,0-5.15-1.0962,11.048,11.048,0,0,0-6.5189,1.78,5.6309,5.6309,0,0,0-2.521,4.8489,5.6007,5.6007,0,0,0,2.4108,4.8761,25.6634,25.6634,0,0,0,6.9029,3.1231,41.638,41.638,0,0,1,6.3553,2.3562,10.4649,10.4649,0,0,1,4.0274,3.4242,9.9347,9.9347,0,0,1,1.561,5.8339,8.55,8.55,0,0,1-1.6155,5.0681,10.9557,10.9557,0,0,1-4.4932,3.5888,15.5915,15.5915,0,0,1-6.5473,1.3145A17.4657,17.4657,0,0,1,299.3989,52.942Z"/><path class="b" d="M334.7364,53.2159a1.6418,1.6418,0,0,1-1.2054.493,1.6011,1.6011,0,0,1-1.6985-1.6984V17.0563a1.618,1.618,0,0,1,.4931-1.2326,1.7635,1.7635,0,0,1,1.26-.4658,1.6836,1.6836,0,0,1,1.6985,1.6984V52.0105A1.8522,1.8522,0,0,1,334.7364,53.2159Z"/><path class="b" d="M380.3732,44.669a18.0118,18.0118,0,0,1-31.9957,0,21.4873,21.4873,0,0,1-2.3552-10.1351,21.6123,21.6123,0,0,1,2.3552-10.1907,17.53,17.53,0,0,1,6.52-7.0131,19.0867,19.0867,0,0,1,18.9568,0,17.5347,17.5347,0,0,1,6.5189,7.0131A21.6128,21.6128,0,0,1,382.73,34.5339,21.4878,21.4878,0,0,1,380.3732,44.669Zm-3.04-18.6546a14.1887,14.1887,0,0,0-5.26-5.835,15.2683,15.2683,0,0,0-15.3952,0,14.1857,14.1857,0,0,0-5.259,5.835,18.681,18.681,0,0,0-1.89,8.52,18.6735,18.6735,0,0,0,1.89,8.5185,14.1727,14.1727,0,0,0,5.259,5.835,15.2683,15.2683,0,0,0,15.3952,0,14.1756,14.1756,0,0,0,5.26-5.835,18.6732,18.6732,0,0,0,1.8894-8.5185A18.6807,18.6807,0,0,0,377.333,26.0144Z"/><path class="b" d="M425.3534,44.669a18.0119,18.0119,0,0,1-31.9958,0,21.4884,21.4884,0,0,1-2.3551-10.1351,21.6135,21.6135,0,0,1,2.3551-10.1907,17.5311,17.5311,0,0,1,6.52-7.0131,19.0867,19.0867,0,0,1,18.9568,0,17.5357,17.5357,0,0,1,6.519,7.0131A21.6139,21.6139,0,0,1,427.71,34.5339,21.4889,21.4889,0,0,1,425.3534,44.669Zm-3.04-18.6546a14.1889,14.1889,0,0,0-5.26-5.835,15.2683,15.2683,0,0,0-15.3952,0,14.1864,14.1864,0,0,0-5.259,5.835,18.6823,18.6823,0,0,0-1.89,8.52,18.6748,18.6748,0,0,0,1.89,8.5185,14.1734,14.1734,0,0,0,5.259,5.835,15.2683,15.2683,0,0,0,15.3952,0,14.1759,14.1759,0,0,0,5.26-5.835,18.6744,18.6744,0,0,0,1.8893-8.5185A18.6819,18.6819,0,0,0,422.3132,26.0144Z"/><path class="b" d="M467.32,19.5762a2.0972,2.0972,0,0,1-.3839,1.0963,1.5561,1.5561,0,0,1-1.26.6022,1.63,1.63,0,0,1-.8759-.2738,17.0126,17.0126,0,0,0-9.5886-2.9039,15.6943,15.6943,0,0,0-8.0254,2.0824,14.8319,14.8319,0,0,0-5.644,5.835,17.4549,17.4549,0,0,0-2.0541,8.52,17.4752,17.4752,0,0,0,2.0824,8.6287,14.8188,14.8188,0,0,0,5.67,5.8076,15.76,15.76,0,0,0,7.9709,2.0541,16.9727,16.9727,0,0,0,9.533-2.8492,1.74,1.74,0,0,1,.9315-.2739,1.5114,1.5114,0,0,1,1.26.6578A1.533,1.533,0,0,1,467.32,49.6a1.423,1.423,0,0,1-.7668,1.3155,20.0531,20.0531,0,0,1-5.26,2.3825,20.676,20.676,0,0,1-6.0815.9588,19.1954,19.1954,0,0,1-9.6148-2.4926,18.52,18.52,0,0,1-7.013-6.9858,20.0559,20.0559,0,0,1-2.6017-10.2442A19.9457,19.9457,0,0,1,438.556,24.48a18.7326,18.7326,0,0,1,6.9585-7.0666,18.9443,18.9443,0,0,1,9.6966-2.5482,20.835,20.835,0,0,1,6,.877,19.2652,19.2652,0,0,1,5.2873,2.4654A1.5258,1.5258,0,0,1,467.32,19.5762Z"/><path class="c" d="M294.151,69.1066a3.0637,3.0637,0,0,1-1.0918-.6347.7287.7287,0,0,1-.2813-.5508.5884.5884,0,0,1,.1768-.4219.5738.5738,0,0,1,.4267-.1816.5549.5549,0,0,1,.3536.125,3.0638,3.0638,0,0,0,.81.499,2.5385,2.5385,0,0,0,.9365.1562,1.8809,1.8809,0,0,0,1.0039-.26.7552.7552,0,0,0,.4209-.6455.8284.8284,0,0,0-.416-.7334,3.5384,3.5384,0,0,0-1.3213-.4q-2.2763-.3325-2.2773-2.1211a1.9122,1.9122,0,0,1,.3437-1.1387,2.1637,2.1637,0,0,1,.9356-.7383,3.3109,3.3109,0,0,1,1.3213-.2549,3.7827,3.7827,0,0,1,1.2324.1973,2.9952,2.9952,0,0,1,.9619.52.6944.6944,0,0,1,.3008.5508.5845.5845,0,0,1-.1768.4209.5571.5571,0,0,1-.416.1826.4552.4552,0,0,1-.28-.0937,2.749,2.749,0,0,0-.7539-.4,2.5075,2.5075,0,0,0-.8681-.1826,1.7888,1.7888,0,0,0-1.0147.2451.7763.7763,0,0,0,.0108,1.3154,3.5015,3.5015,0,0,0,1.1592.374,6.0844,6.0844,0,0,1,1.4306.4,1.8288,1.8288,0,0,1,.8057.666,2.0487,2.0487,0,0,1,.27,1.1182,1.87,1.87,0,0,1-.3692,1.1494,2.375,2.375,0,0,1-.9834.7588,3.29,3.29,0,0,1-1.32.2646A4.3391,4.3391,0,0,1,294.151,69.1066Z"/><path class="c" d="M304.3111,62.9084l-2.1728,3.1094v2.5371a.6258.6258,0,0,1-.1777.4531.5717.5717,0,0,1-.4258.1816.6019.6019,0,0,1-.4424-.1816.6171.6171,0,0,1-.1817-.4531V65.8722l-2.163-2.871a.8158.8158,0,0,1-.1875-.4883.5709.5709,0,0,1,.2129-.4522.69.69,0,0,1,.4531-.1826.63.63,0,0,1,.5088.292l1.831,2.5264,1.7158-2.5059a.6281.6281,0,0,1,.52-.3125.5991.5991,0,0,1,.4375.1875.6218.6218,0,0,1,.1865.458A.6957.6957,0,0,1,304.3111,62.9084Z"/><path class="c" d="M306.08,69.1066a3.0637,3.0637,0,0,1-1.0918-.6347.7287.7287,0,0,1-.2813-.5508.5884.5884,0,0,1,.1768-.4219.5738.5738,0,0,1,.4268-.1816.5548.5548,0,0,1,.3535.125,3.0638,3.0638,0,0,0,.81.499,2.5385,2.5385,0,0,0,.9365.1562,1.8815,1.8815,0,0,0,1.004-.26.7554.7554,0,0,0,.4209-.6455.8285.8285,0,0,0-.4161-.7334,3.5384,3.5384,0,0,0-1.3213-.4q-2.2763-.3325-2.2773-2.1211a1.9123,1.9123,0,0,1,.3438-1.1387,2.1628,2.1628,0,0,1,.9355-.7383,3.3113,3.3113,0,0,1,1.3213-.2549,3.7827,3.7827,0,0,1,1.2324.1973,2.9952,2.9952,0,0,1,.9619.52.6944.6944,0,0,1,.3008.5508.5845.5845,0,0,1-.1768.4209.5569.5569,0,0,1-.416.1826.4547.4547,0,0,1-.28-.0937,2.752,2.752,0,0,0-.7539-.4,2.5084,2.5084,0,0,0-.8682-.1826,1.7888,1.7888,0,0,0-1.0147.2451.7763.7763,0,0,0,.0108,1.3154,3.5015,3.5015,0,0,0,1.1592.374,6.0844,6.0844,0,0,1,1.4306.4,1.8288,1.8288,0,0,1,.8057.666,2.0487,2.0487,0,0,1,.27,1.1182,1.87,1.87,0,0,1-.3691,1.1494,2.3762,2.3762,0,0,1-.9834.7588,3.29,3.29,0,0,1-1.32.2646A4.3391,4.3391,0,0,1,306.08,69.1066Z"/><path class="c" d="M316.49,62.0763a.569.569,0,0,1,.1768.4366.5539.5539,0,0,1-.1768.4316.6531.6531,0,0,1-.457.1611H314.4v5.4493a.5924.5924,0,0,1-.1982.4531.6956.6956,0,0,1-.4883.1816.6587.6587,0,0,1-.4785-.1816.6072.6072,0,0,1-.1875-.4531V63.1056h-1.6328a.64.64,0,0,1-.4571-.166.5733.5733,0,0,1-.1777-.4375.5519.5519,0,0,1,.1826-.4258.6423.6423,0,0,1,.4522-.1669h4.6181A.6394.6394,0,0,1,316.49,62.0763Z"/><path class="c" d="M322.2975,68.176a.5792.5792,0,0,1,.1826.4209.5536.5536,0,0,1-.1826.4267.6474.6474,0,0,1-.4522.166h-3.4844a.6205.6205,0,0,1-.6337-.6347V62.5441a.6221.6221,0,0,1,.6337-.6347h3.4844a.6351.6351,0,0,1,.4522.1718.5818.5818,0,0,1,.1826.4424.5454.5454,0,0,1-.1768.4209.654.654,0,0,1-.458.1611H319.027v1.7676h2.3505a.6347.6347,0,0,1,.4522.1719.5809.5809,0,0,1,.1816.4424.5424.5424,0,0,1-.1767.4209.6517.6517,0,0,1-.4571.1611H319.027v1.9238h2.8183A.6157.6157,0,0,1,322.2975,68.176ZM319.87,61.41l-1.04-.5507a.8052.8052,0,0,1-.2861-.25.5246.5246,0,0,1-.0987-.3018.45.45,0,0,1,.1768-.3633.5762.5762,0,0,1,.374-.1465.8164.8164,0,0,1,.51.23l.8945.79a.3876.3876,0,0,1,.1455.2812.3416.3416,0,0,1-.12.2705.465.465,0,0,1-.3174.1035A.526.526,0,0,1,319.87,61.41Z"/><path class="c" d="M330.41,62.0812a.5952.5952,0,0,1,.1924.4522v6.0215a.6138.6138,0,0,1-.6446.6347.6514.6514,0,0,1-.4736-.1767.6113.6113,0,0,1-.1817-.458v-4.19l-1.7158,2.62a.8927.8927,0,0,1-.2392.2031.486.486,0,0,1-.2813.0674.4633.4633,0,0,1-.2695-.0674.8649.8649,0,0,1-.2393-.2031L324.84,64.2707v4.2842a.64.64,0,0,1-.166.458.5719.5719,0,0,1-.4365.1767.5532.5532,0,0,1-.4268-.1816.6458.6458,0,0,1-.166-.4531V62.5334a.6011.6011,0,0,1,.1924-.4473A.6414.6414,0,0,1,324.3,61.9a.6815.6815,0,0,1,.3115.0781.6007.6007,0,0,1,.2393.2022l2.2676,3.4843,2.3291-3.4843a.63.63,0,0,1,.2236-.2022.5771.5771,0,0,1,.2861-.0781A.6373.6373,0,0,1,330.41,62.0812Z"/><path class="c" d="M336.7018,68.176a.5792.5792,0,0,1,.1826.4209.5536.5536,0,0,1-.1826.4267.6474.6474,0,0,1-.4522.166h-3.4844a.6207.6207,0,0,1-.6338-.6347V62.5441a.6223.6223,0,0,1,.6338-.6347H336.25a.6351.6351,0,0,1,.4522.1718.5818.5818,0,0,1,.1826.4424.5454.5454,0,0,1-.1768.4209.654.654,0,0,1-.458.1611h-2.8183v1.7676h2.35a.6347.6347,0,0,1,.4522.1719.5809.5809,0,0,1,.1816.4424.5424.5424,0,0,1-.1767.4209.6517.6517,0,0,1-.4571.1611h-2.35v1.9238H336.25A.6157.6157,0,0,1,336.7018,68.176Z"/><path class="c" d="M342.0318,69.008a.6574.6574,0,0,1-.458.1816.627.627,0,0,1-.4629-.1816.617.617,0,0,1-.1816-.4531V62.5441a.6063.6063,0,0,1,.1865-.4521.66.66,0,0,1,.4785-.1826.62.62,0,0,1,.4473.1826.6034.6034,0,0,1,.1875.4521v6.0108A.5947.5947,0,0,1,342.0318,69.008Z"/><path class="c" d="M349.6861,62.0763a.5849.5849,0,0,1,.1563.4161v6.0625a.6222.6222,0,0,1-.6348.6347.9016.9016,0,0,1-.2861-.0468.3991.3991,0,0,1-.2022-.13l-3.8173-4.8467v4.4414a.5756.5756,0,0,1-.1612.416.5616.5616,0,0,1-.4209.166.5333.5333,0,0,1-.4062-.166.5876.5876,0,0,1-.1553-.416V62.5441a.6221.6221,0,0,1,.6338-.6347.8076.8076,0,0,1,.3076.0625.4956.4956,0,0,1,.2227.1669l3.7861,4.8252V62.4924a.5727.5727,0,0,1,.1611-.4161.5464.5464,0,0,1,.4112-.1669A.53.53,0,0,1,349.6861,62.0763Z"/><path class="c" d="M356.6119,62.0763a.569.569,0,0,1,.1768.4366.5539.5539,0,0,1-.1768.4316.6531.6531,0,0,1-.457.1611h-1.6328v5.4493a.5922.5922,0,0,1-.1983.4531.6952.6952,0,0,1-.4882.1816.6589.6589,0,0,1-.4786-.1816.6072.6072,0,0,1-.1875-.4531V63.1056h-1.6328a.64.64,0,0,1-.457-.166.573.573,0,0,1-.1777-.4375.5519.5519,0,0,1,.1826-.4258.6423.6423,0,0,1,.4521-.1669h4.6182A.6394.6394,0,0,1,356.6119,62.0763Z"/><path class="c" d="M362.4205,68.176a.5792.5792,0,0,1,.1826.4209.5536.5536,0,0,1-.1826.4267.6472.6472,0,0,1-.4521.166H358.484a.6205.6205,0,0,1-.6338-.6347V62.5441a.6221.6221,0,0,1,.6338-.6347h3.4844a.6348.6348,0,0,1,.4521.1718.5818.5818,0,0,1,.1826.4424.5453.5453,0,0,1-.1767.4209.6541.6541,0,0,1-.458.1611H359.15v1.7676h2.3506a.6345.6345,0,0,1,.4521.1719.581.581,0,0,1,.1817.4424.5422.5422,0,0,1-.1768.4209.6516.6516,0,0,1-.457.1611H359.15v1.9238h2.8184A.6155.6155,0,0,1,362.4205,68.176ZM359.9459,61.41a.34.34,0,0,1-.12-.27.3872.3872,0,0,1,.1455-.28l.8945-.7911a.8145.8145,0,0,1,.51-.2285.58.58,0,0,1,.374.1455.4534.4534,0,0,1,.1768.3643.5507.5507,0,0,1-.0987.3066.7085.7085,0,0,1-.2861.2442l-1.04.5517a.5128.5128,0,0,1-.5557-.042Z"/><path class="c" d="M369.5807,65.4406a.6264.6264,0,0,1,.1767.4522v2.205a.6245.6245,0,0,1-.3222.5616,4.1508,4.1508,0,0,1-2.2364.6337,3.8086,3.8086,0,0,1-3.2861-1.8662,3.7118,3.7118,0,0,1,0-3.7548,3.7917,3.7917,0,0,1,1.3828-1.3624,3.745,3.745,0,0,1,1.9033-.5039,3.6682,3.6682,0,0,1,1.7891.4161.5633.5633,0,0,1,.3115.51.6574.6574,0,0,1-.1709.4522.5457.5457,0,0,1-.4219.1924.85.85,0,0,1-.3427-.0831,2.9352,2.9352,0,0,0-1.1651-.2392,2.3371,2.3371,0,0,0-1.2275.3379,2.491,2.491,0,0,0-.8887.91,2.5378,2.5378,0,0,0,0,2.4961,2.4878,2.4878,0,0,0,.8887.9092,2.3381,2.3381,0,0,0,1.2275.3389,3.9909,3.9909,0,0,0,.6241-.0528,3.5454,3.5454,0,0,0,.582-.1347V66.506h-.9776a.6226.6226,0,0,1-.4521-.1767.6417.6417,0,0,1,0-.8946.6267.6267,0,0,1,.4521-.1767h1.7061A.6.6,0,0,1,369.5807,65.4406Z"/><path class="c" d="M376.8971,68.3888a.557.557,0,0,1,.0781.2813.54.54,0,0,1-.125.3428.588.588,0,0,1-.4785.1875.9341.9341,0,0,1-.458-.1143,1.8275,1.8275,0,0,1-.7481-1.7373.7541.7541,0,0,0-.2451-.5928,1.02,1.02,0,0,0-.7021-.2187H372.274v2.0176a.6863.6863,0,0,1-.15.458.5016.5016,0,0,1-.4013.1767.804.804,0,0,1-.5244-.1816.5619.5619,0,0,1-.2237-.4531V62.5441a.6223.6223,0,0,1,.6338-.6347h2.9951a1.9344,1.9344,0,0,1,1.02.291,2.16,2.16,0,0,1,.7646.8008,2.3018,2.3018,0,0,1,.2861,1.1445,2.0236,2.0236,0,0,1-.2812,1.0137,2.2289,2.2289,0,0,1-.7275.7851,1.5978,1.5978,0,0,1,.7177,1.2276,1.7767,1.7767,0,0,1,.03.3222,3.29,3.29,0,0,0,.084.4629.3391.3391,0,0,0,.1865.2129A.6211.6211,0,0,1,376.8971,68.3888Zm-1.9815-3.1a1.3285,1.3285,0,0,0,.291-.4726,1.7626,1.7626,0,0,0,.1143-.64,1.2507,1.2507,0,0,0-.1143-.5361,1.1016,1.1016,0,0,0-.291-.39.5709.5709,0,0,0-.3642-.1456H372.274v2.36h2.2774A.5169.5169,0,0,0,374.9156,65.2892Z"/><path class="c" d="M382.6588,68.176a.5792.5792,0,0,1,.1826.4209.5536.5536,0,0,1-.1826.4267.6474.6474,0,0,1-.4522.166h-3.4843a.6205.6205,0,0,1-.6338-.6347V62.5441a.6221.6221,0,0,1,.6338-.6347h3.4843a.6351.6351,0,0,1,.4522.1718.5818.5818,0,0,1,.1826.4424.5457.5457,0,0,1-.1767.4209.6544.6544,0,0,1-.4581.1611h-2.8183v1.7676h2.3506a.6345.6345,0,0,1,.4521.1719.581.581,0,0,1,.1817.4424.5422.5422,0,0,1-.1768.4209.6516.6516,0,0,1-.457.1611h-2.3506v1.9238h2.8183A.6157.6157,0,0,1,382.6588,68.176ZM380.1842,61.41a.34.34,0,0,1-.12-.27.3872.3872,0,0,1,.1455-.28l.8945-.7911a.8145.8145,0,0,1,.51-.2285.58.58,0,0,1,.374.1455.4534.4534,0,0,1,.1768.3643.5507.5507,0,0,1-.0987.3066.7085.7085,0,0,1-.2861.2442l-1.04.5517a.5126.5126,0,0,1-.5556-.042Z"/><path class="c" d="M391.6861,62.3928a3.0808,3.0808,0,0,1,1.07,1.31,4.8006,4.8006,0,0,1,0,3.6924,3.0748,3.0748,0,0,1-1.07,1.31,2.8906,2.8906,0,0,1-1.68.4834H387.52a.6207.6207,0,0,1-.6338-.6347V62.5441a.6223.6223,0,0,1,.6338-.6347h2.4863A2.8906,2.8906,0,0,1,391.6861,62.3928Zm-.38,4.9091a3.4978,3.4978,0,0,0-.0059-3.5048,1.5844,1.5844,0,0,0-1.3984-.6915h-1.7159v4.8877h1.7159A1.5834,1.5834,0,0,0,391.3063,67.3019Z"/><path class="c" d="M395.59,63.5637a2.2118,2.2118,0,0,1-.458.6337.8354.8354,0,0,1-.582.2706.6085.6085,0,0,1-.3643-.0987.367.367,0,0,1-.1347-.3174.2881.2881,0,0,1,.083-.2343.5669.5669,0,0,1,.1816-.0987,1.0265,1.0265,0,0,0,.1406-.0517.4657.4657,0,0,0,.2911-.416.2581.2581,0,0,0-.1094-.2032.44.44,0,0,0-.2852-.0879.542.542,0,0,0-.292.0723.4783.4783,0,0,1-.1923-.1348.3909.3909,0,0,1-.0674-.25.5859.5859,0,0,1,.1562-.39,1.1452,1.1452,0,0,1,.3848-.291,1.027,1.027,0,0,1,.4473-.1094.9235.9235,0,0,1,.7177.2861,1.1738,1.1738,0,0,1,.26.8164A1.4585,1.4585,0,0,1,395.59,63.5637Z"/><path class="c" d="M403.359,67.4377a3.4984,3.4984,0,0,1-1.2627,1.3564,3.55,3.55,0,0,1-3.63,0,3.4675,3.4675,0,0,1-1.2588-1.3564,4.167,4.167,0,0,1,0-3.7754,3.47,3.47,0,0,1,1.2588-1.3574,3.55,3.55,0,0,1,3.63,0,3.5012,3.5012,0,0,1,1.2627,1.3574,4.1192,4.1192,0,0,1,0,3.7754Zm-1.1748-3.1514a2.2658,2.2658,0,0,0-.78-.8994,1.9708,1.9708,0,0,0-1.123-.333,1.9983,1.9983,0,0,0-1.128.3271,2.1962,2.1962,0,0,0-.7695.9,3.0513,3.0513,0,0,0,0,2.538,2.1962,2.1962,0,0,0,.7695.9,2.0814,2.0814,0,0,0,2.251-.0049,2.2658,2.2658,0,0,0,.78-.8994,2.98,2.98,0,0,0,0-2.5274Z"/><path class="c" d="M410.25,65.8205a1.8216,1.8216,0,0,1,.3486,1.1543A1.9482,1.9482,0,0,1,409.89,68.7a2.8881,2.8881,0,0,1-1.6845.4892h-2.59a.6207.6207,0,0,1-.6338-.6347V62.5441a.6223.6223,0,0,1,.6338-.6347h2.6211q1.9761,0,1.9756,1.8515a1.5378,1.5378,0,0,1-.2227.8272,1.562,1.562,0,0,1-.64.5664A2.09,2.09,0,0,1,410.25,65.8205ZM408.6481,63.35a.8124.8124,0,0,0-.5987-.2129h-1.7158V64.759h1.7471a.795.795,0,0,0,.5459-.208.7123.7123,0,0,0,.2343-.5616A.8718.8718,0,0,0,408.6481,63.35Zm.3222,4.3838a.9943.9943,0,0,0,.2754-.7588c0-.4092-.1074-.6768-.3223-.8008a1.5482,1.5482,0,0,0-.79-.1875h-1.8v2.0068h1.8721A1.0674,1.0674,0,0,0,408.97,67.7336Z"/><path class="c" d="M412.7721,69.1066a3.0629,3.0629,0,0,1-1.0918-.6347.7287.7287,0,0,1-.2813-.5508.5884.5884,0,0,1,.1768-.4219.5736.5736,0,0,1,.4267-.1816.5549.5549,0,0,1,.3536.125,3.0638,3.0638,0,0,0,.81.499,2.5385,2.5385,0,0,0,.9365.1562,1.8809,1.8809,0,0,0,1.0039-.26.7552.7552,0,0,0,.4209-.6455.8284.8284,0,0,0-.416-.7334,3.539,3.539,0,0,0-1.3213-.4q-2.2762-.3325-2.2773-2.1211a1.9122,1.9122,0,0,1,.3437-1.1387,2.1637,2.1637,0,0,1,.9356-.7383,3.3109,3.3109,0,0,1,1.3213-.2549,3.7827,3.7827,0,0,1,1.2324.1973,2.9952,2.9952,0,0,1,.9619.52.6944.6944,0,0,1,.3008.5508.5845.5845,0,0,1-.1768.4209.5571.5571,0,0,1-.416.1826.455.455,0,0,1-.28-.0937,2.749,2.749,0,0,0-.7539-.4,2.5075,2.5075,0,0,0-.8681-.1826,1.7888,1.7888,0,0,0-1.0147.2451.7763.7763,0,0,0,.0108,1.3154,3.5017,3.5017,0,0,0,1.1591.374,6.084,6.084,0,0,1,1.4307.4,1.8288,1.8288,0,0,1,.8057.666,2.0487,2.0487,0,0,1,.2705,1.1182,1.87,1.87,0,0,1-.3692,1.1494,2.3756,2.3756,0,0,1-.9834.7588,3.29,3.29,0,0,1-1.32.2646A4.3391,4.3391,0,0,1,412.7721,69.1066Z"/><path class="c" d="M422.51,68.176a.58.58,0,0,1,.1826.4209.554.554,0,0,1-.1826.4267.6474.6474,0,0,1-.4522.166h-3.4844a.6207.6207,0,0,1-.6338-.6347V62.5441a.6223.6223,0,0,1,.6338-.6347h3.4844a.6351.6351,0,0,1,.4522.1718.5822.5822,0,0,1,.1826.4424.5454.5454,0,0,1-.1768.4209.654.654,0,0,1-.458.1611H419.24v1.7676H421.59a.6347.6347,0,0,1,.4522.1719.5809.5809,0,0,1,.1816.4424.5424.5424,0,0,1-.1767.4209.6517.6517,0,0,1-.4571.1611H419.24v1.9238h2.8184A.6157.6157,0,0,1,422.51,68.176Z"/><path class="c" d="M429.7809,68.3888a.557.557,0,0,1,.0781.2813.54.54,0,0,1-.125.3428.588.588,0,0,1-.4785.1875.9341.9341,0,0,1-.458-.1143,1.8273,1.8273,0,0,1-.7481-1.7373.7541.7541,0,0,0-.2451-.5928,1.02,1.02,0,0,0-.7021-.2187h-1.9444v2.0176a.6863.6863,0,0,1-.15.458.5016.5016,0,0,1-.4013.1767.8044.8044,0,0,1-.5245-.1816.5621.5621,0,0,1-.2236-.4531V62.5441a.6223.6223,0,0,1,.6338-.6347h2.9951a1.934,1.934,0,0,1,1.0195.291,2.16,2.16,0,0,1,.7647.8008,2.3018,2.3018,0,0,1,.2861,1.1445,2.0236,2.0236,0,0,1-.2812,1.0137,2.2283,2.2283,0,0,1-.7276.7851,1.5977,1.5977,0,0,1,.7178,1.2276,1.7767,1.7767,0,0,1,.03.3222,3.29,3.29,0,0,0,.084.4629.3391.3391,0,0,0,.1865.2129A.6211.6211,0,0,1,429.7809,68.3888Zm-1.9815-3.1a1.3285,1.3285,0,0,0,.291-.4726,1.7626,1.7626,0,0,0,.1143-.64,1.2507,1.2507,0,0,0-.1143-.5361,1.1016,1.1016,0,0,0-.291-.39.5709.5709,0,0,0-.3642-.1456h-2.2774v2.36h2.2774A.5169.5169,0,0,0,427.7994,65.2892Z"/><path class="c" d="M436.5816,62.0656a.56.56,0,0,1,.1924.4268.7015.7015,0,0,1-.0625.28l-2.5683,6.0118a.6949.6949,0,0,1-.2608.3017.5963.5963,0,0,1-.6806-.0058.6426.6426,0,0,1-.2344-.2862l-2.5684-6.0312a.575.575,0,0,1-.0527-.2608.5577.5577,0,0,1,.208-.4521.6682.6682,0,0,1,.4268-.1719.5915.5915,0,0,1,.333.1045.66.66,0,0,1,.2392.3018l2.09,4.9189,1.914-4.9189a.6693.6693,0,0,1,.2393-.292.5948.5948,0,0,1,.333-.1036A.6467.6467,0,0,1,436.5816,62.0656Z"/><path class="c" d="M443.2438,68.6281a.5928.5928,0,0,1-.1768.4424.5684.5684,0,0,1-.4063.1709.5447.5447,0,0,1-.3378-.1143.7417.7417,0,0,1-.2344-.3115l-.54-1.2588h-3.1l-.541,1.2686a.6315.6315,0,0,1-.2236.3066.5294.5294,0,0,1-.8789-.4316.7008.7008,0,0,1,.0312-.1973l2.59-6.2187a.688.688,0,0,1,.25-.3223.54.54,0,0,1,.374-.0938.6064.6064,0,0,1,.3486.1094.6155.6155,0,0,1,.2344.3067l2.5576,6.0937A.6957.6957,0,0,1,443.2438,68.6281Zm-4.2852-2.2676h2.08l-1.0508-2.4336Z"/><path class="c" d="M448.817,62.0763a.569.569,0,0,1,.1768.4366.5539.5539,0,0,1-.1768.4316.6533.6533,0,0,1-.457.1611h-1.6328v5.4493a.5925.5925,0,0,1-.1983.4531.6953.6953,0,0,1-.4883.1816.6588.6588,0,0,1-.4785-.1816.6072.6072,0,0,1-.1875-.4531V63.1056h-1.6328a.64.64,0,0,1-.457-.166.573.573,0,0,1-.1778-.4375.552.552,0,0,1,.1827-.4258.6419.6419,0,0,1,.4521-.1669H448.36A.64.64,0,0,1,448.817,62.0763Z"/><path class="c" d="M451.1578,69.008a.6574.6574,0,0,1-.458.1816.627.627,0,0,1-.4629-.1816.617.617,0,0,1-.1816-.4531V62.5441a.6063.6063,0,0,1,.1865-.4521.66.66,0,0,1,.4785-.1826.62.62,0,0,1,.4473.1826.6034.6034,0,0,1,.1875.4521v6.0108A.5947.5947,0,0,1,451.1578,69.008Z"/><path class="c" d="M459.1236,67.4377a3.4976,3.4976,0,0,1-1.2627,1.3564,3.55,3.55,0,0,1-3.63,0,3.4661,3.4661,0,0,1-1.2588-1.3564,4.1662,4.1662,0,0,1,0-3.7754,3.4688,3.4688,0,0,1,1.2588-1.3574,3.5494,3.5494,0,0,1,3.63,0,3.5,3.5,0,0,1,1.2627,1.3574,4.1192,4.1192,0,0,1,0,3.7754Zm-1.1748-3.1514a2.2656,2.2656,0,0,0-.78-.8994,1.9714,1.9714,0,0,0-1.1231-.333,1.9982,1.9982,0,0,0-1.1279.3271,2.1947,2.1947,0,0,0-.7695.9,3.0513,3.0513,0,0,0,0,2.538,2.1947,2.1947,0,0,0,.7695.9,2.0814,2.0814,0,0,0,2.251-.0049,2.2656,2.2656,0,0,0,.78-.8994,2.9791,2.9791,0,0,0,0-2.5274Z"/><path class="c" d="M466.6734,62.0763a.5849.5849,0,0,1,.1563.4161v6.0625a.6222.6222,0,0,1-.6348.6347.9016.9016,0,0,1-.2861-.0468.3991.3991,0,0,1-.2022-.13l-3.8173-4.8467v4.4414a.5752.5752,0,0,1-.1612.416.5616.5616,0,0,1-.4209.166.5333.5333,0,0,1-.4062-.166.5876.5876,0,0,1-.1553-.416V62.5441a.6221.6221,0,0,1,.6338-.6347.8076.8076,0,0,1,.3076.0625.4956.4956,0,0,1,.2227.1669l3.7861,4.8252V62.4924a.5727.5727,0,0,1,.1611-.4161.5464.5464,0,0,1,.4112-.1669A.53.53,0,0,1,466.6734,62.0763Z"/><path class="c" d="M297.942,73.3928a3.0815,3.0815,0,0,1,1.07,1.3105,4.8018,4.8018,0,0,1,0,3.6924,3.0755,3.0755,0,0,1-1.07,1.31,2.8908,2.8908,0,0,1-1.68.4834H293.776a.6205.6205,0,0,1-.6338-.6347V73.5441a.6221.6221,0,0,1,.6338-.6347h2.4863A2.8908,2.8908,0,0,1,297.942,73.3928Zm-.38,4.9091a3.4974,3.4974,0,0,0-.0058-3.5048,1.5846,1.5846,0,0,0-1.3985-.6915H294.442v4.8877h1.7158A1.5834,1.5834,0,0,0,297.5621,78.3019Z"/><path class="c" d="M305.1168,79.176a.5792.5792,0,0,1,.1826.4209.5536.5536,0,0,1-.1826.4267.6474.6474,0,0,1-.4521.166H301.18a.6205.6205,0,0,1-.6338-.6347V73.5441a.6221.6221,0,0,1,.6338-.6347h3.4844a.635.635,0,0,1,.4521.1718.5818.5818,0,0,1,.1826.4424.5457.5457,0,0,1-.1767.4209.6541.6541,0,0,1-.458.1611h-2.8184v1.7676h2.3506a.6345.6345,0,0,1,.4521.1719.581.581,0,0,1,.1817.4424.5422.5422,0,0,1-.1768.4209.6516.6516,0,0,1-.457.1611h-2.3506v1.9238h2.8184A.6157.6157,0,0,1,305.1168,79.176Z"/><path class="c" d="M307.4732,80.1066a3.0646,3.0646,0,0,1-1.0918-.6347.7286.7286,0,0,1-.2812-.5508.5884.5884,0,0,1,.1768-.4219.5735.5735,0,0,1,.4267-.1816.5546.5546,0,0,1,.3535.125,3.0658,3.0658,0,0,0,.8106.499,2.5378,2.5378,0,0,0,.9365.1562,1.8809,1.8809,0,0,0,1.0039-.26.7552.7552,0,0,0,.4209-.6455.8286.8286,0,0,0-.416-.7334,3.54,3.54,0,0,0-1.3213-.4q-2.2764-.3325-2.2773-2.1211a1.9122,1.9122,0,0,1,.3437-1.1387,2.1625,2.1625,0,0,1,.9356-.7383,3.3108,3.3108,0,0,1,1.3212-.2549,3.7833,3.7833,0,0,1,1.2325.1973,2.9973,2.9973,0,0,1,.9619.52.6944.6944,0,0,1,.3008.5508.5845.5845,0,0,1-.1768.4209.5572.5572,0,0,1-.416.1826.455.455,0,0,1-.28-.0937,2.7505,2.7505,0,0,0-.7539-.4,2.508,2.508,0,0,0-.8682-.1826,1.7884,1.7884,0,0,0-1.0146.2451.7764.7764,0,0,0,.0107,1.3154,3.5015,3.5015,0,0,0,1.1592.374,6.084,6.084,0,0,1,1.4307.4,1.8285,1.8285,0,0,1,.8056.666,2.0487,2.0487,0,0,1,.2706,1.1182,1.87,1.87,0,0,1-.3692,1.1494,2.3756,2.3756,0,0,1-.9834.7588,3.29,3.29,0,0,1-1.32.2646A4.34,4.34,0,0,1,307.4732,80.1066Z"/><path class="c" d="M321.7623,78.4377A3.4984,3.4984,0,0,1,320.5,79.7941a3.55,3.55,0,0,1-3.63,0,3.4675,3.4675,0,0,1-1.2588-1.3564,4.167,4.167,0,0,1,0-3.7754,3.47,3.47,0,0,1,1.2588-1.3574,3.55,3.55,0,0,1,3.63,0,3.5012,3.5012,0,0,1,1.2627,1.3574,4.1192,4.1192,0,0,1,0,3.7754Zm-1.1748-3.1514a2.2658,2.2658,0,0,0-.78-.8994,1.9708,1.9708,0,0,0-1.123-.333,1.9979,1.9979,0,0,0-1.1279.3271,2.1956,2.1956,0,0,0-.77.9,3.0523,3.0523,0,0,0,0,2.538,2.1956,2.1956,0,0,0,.77.9,2.0812,2.0812,0,0,0,2.2509-.0049,2.2658,2.2658,0,0,0,.78-.8994,2.9791,2.9791,0,0,0,0-2.5274Z"/><path class="c" d="M328.8033,73.7931a.7.7,0,0,1-.1562.4268.5132.5132,0,0,1-.4258.2188.7457.7457,0,0,1-.3535-.0938,2.5662,2.5662,0,0,0-1.1026-.2393,2.531,2.531,0,0,0-1.2685.3067,2.0733,2.0733,0,0,0-.832.8633,2.7059,2.7059,0,0,0-.292,1.2744,2.4639,2.4639,0,0,0,.6611,1.8613,2.6716,2.6716,0,0,0,2.834.3955.8308.8308,0,0,1,.332-.084.5728.5728,0,0,1,.458.2295.6716.6716,0,0,1,.1563.4258.5708.5708,0,0,1-.083.3018.5375.5375,0,0,1-.2393.208,3.8075,3.8075,0,0,1-1.7266.4052,4.0919,4.0919,0,0,1-1.872-.4306,3.3265,3.3265,0,0,1-1.3623-1.2744,3.8659,3.8659,0,0,1-.51-2.0381,3.7523,3.7523,0,0,1,.4834-1.9033,3.4286,3.4286,0,0,1,1.3369-1.3155,3.8985,3.8985,0,0,1,1.9238-.4736,3.7027,3.7027,0,0,1,1.7159.4053A.5573.5573,0,0,1,328.8033,73.7931Z"/><path class="c" d="M334.4449,79.176a.5792.5792,0,0,1,.1826.4209.5536.5536,0,0,1-.1826.4267.6472.6472,0,0,1-.4521.166h-3.4844a.6207.6207,0,0,1-.6338-.6347V73.5441a.6223.6223,0,0,1,.6338-.6347h3.4844a.6348.6348,0,0,1,.4521.1718.5818.5818,0,0,1,.1826.4424.5453.5453,0,0,1-.1767.4209.6541.6541,0,0,1-.458.1611h-2.8184v1.7676h2.3506a.6347.6347,0,0,1,.4522.1719.5812.5812,0,0,1,.1816.4424.5422.5422,0,0,1-.1768.4209.6516.6516,0,0,1-.457.1611h-2.3506v1.9238h2.8184A.6155.6155,0,0,1,334.4449,79.176ZM331.97,72.41a.34.34,0,0,1-.12-.2705.3872.3872,0,0,1,.1455-.28l.8945-.7911a.8145.8145,0,0,1,.51-.2285.58.58,0,0,1,.374.1455.4534.4534,0,0,1,.1768.3643.5506.5506,0,0,1-.0986.3066.71.71,0,0,1-.2862.2442l-1.04.5517a.5128.5128,0,0,1-.5557-.042Z"/><path class="c" d="M341.5533,79.6281a.5928.5928,0,0,1-.1767.4424.5684.5684,0,0,1-.4063.1709.5452.5452,0,0,1-.3379-.1143.7415.7415,0,0,1-.2343-.3115l-.54-1.2588h-3.1l-.541,1.2686a.6328.6328,0,0,1-.2236.3066.53.53,0,0,1-.879-.4316.7011.7011,0,0,1,.0313-.1973l2.59-6.2187a.6893.6893,0,0,1,.25-.3223.54.54,0,0,1,.3741-.0938.6064.6064,0,0,1,.3486.1094.616.616,0,0,1,.2344.3067l2.5576,6.0937A.6976.6976,0,0,1,341.5533,79.6281Zm-4.2851-2.2676h2.08l-1.0507-2.4336Z"/><path class="c" d="M348.3336,73.0763a.5853.5853,0,0,1,.1562.4161v6.0625a.6222.6222,0,0,1-.6347.6347.9026.9026,0,0,1-.2862-.0468.3988.3988,0,0,1-.2021-.13l-3.8174-4.8467v4.4414a.5755.5755,0,0,1-.1611.416.5618.5618,0,0,1-.4209.166.5335.5335,0,0,1-.4063-.166.5875.5875,0,0,1-.1552-.416V73.5441a.6221.6221,0,0,1,.6338-.6347.808.808,0,0,1,.3076.0625.4947.4947,0,0,1,.2226.1669l3.7862,4.8252V73.4924a.5727.5727,0,0,1,.1611-.4161.546.546,0,0,1,.4111-.1669A.53.53,0,0,1,348.3336,73.0763Z"/><path class="c" d="M351.0279,80.1066a3.0646,3.0646,0,0,1-1.0918-.6347.7286.7286,0,0,1-.2812-.5508.5887.5887,0,0,1,.1767-.4219.5738.5738,0,0,1,.4268-.1816.5546.5546,0,0,1,.3535.125,3.0658,3.0658,0,0,0,.8106.499,2.5378,2.5378,0,0,0,.9365.1562,1.8811,1.8811,0,0,0,1.0039-.26.7552.7552,0,0,0,.4209-.6455.8286.8286,0,0,0-.416-.7334,3.54,3.54,0,0,0-1.3213-.4q-2.2764-.3325-2.2774-2.1211a1.9123,1.9123,0,0,1,.3438-1.1387,2.1628,2.1628,0,0,1,.9355-.7383,3.3113,3.3113,0,0,1,1.3213-.2549,3.7833,3.7833,0,0,1,1.2325.1973,2.9973,2.9973,0,0,1,.9619.52.6943.6943,0,0,1,.3007.5508.5844.5844,0,0,1-.1767.4209.5572.5572,0,0,1-.416.1826.455.455,0,0,1-.28-.0937,2.7505,2.7505,0,0,0-.7539-.4,2.508,2.508,0,0,0-.8682-.1826,1.7882,1.7882,0,0,0-1.0146.2451.7764.7764,0,0,0,.0107,1.3154,3.5015,3.5015,0,0,0,1.1592.374,6.0854,6.0854,0,0,1,1.4307.4,1.8285,1.8285,0,0,1,.8056.666,2.0487,2.0487,0,0,1,.27,1.1182,1.87,1.87,0,0,1-.3691,1.1494,2.3756,2.3756,0,0,1-.9834.7588,3.29,3.29,0,0,1-1.32.2646A4.34,4.34,0,0,1,351.0279,80.1066Z"/><path class="c" d="M363.8766,73.3928a3.0822,3.0822,0,0,1,1.07,1.3105,4.8018,4.8018,0,0,1,0,3.6924,3.0763,3.0763,0,0,1-1.07,1.31,2.891,2.891,0,0,1-1.68.4834h-2.4863a.6205.6205,0,0,1-.6338-.6347V73.5441a.6221.6221,0,0,1,.6338-.6347h2.4863A2.891,2.891,0,0,1,363.8766,73.3928Zm-.38,4.9091a3.4971,3.4971,0,0,0-.0059-3.5048,1.5843,1.5843,0,0,0-1.3984-.6915h-1.7158v4.8877h1.7158A1.5834,1.5834,0,0,0,363.4967,78.3019Z"/><path class="c" d="M372.0875,73.0763a.6415.6415,0,0,1,.166.4571V77.298a3.1383,3.1383,0,0,1-.3633,1.5293,2.6366,2.6366,0,0,1-1.0195,1.04,3.197,3.197,0,0,1-3.001,0,2.6238,2.6238,0,0,1-1.0244-1.04,3.1383,3.1383,0,0,1-.3633-1.5293V73.5334a.6076.6076,0,0,1,.1866-.4522.6587.6587,0,0,1,.4785-.1816.6284.6284,0,0,1,.624.6338V77.298a1.7906,1.7906,0,0,0,.2187.89,1.5252,1.5252,0,0,0,.5879.5976,1.592,1.592,0,0,0,.795.208,1.7579,1.7579,0,0,0,.8379-.208,1.5949,1.5949,0,0,0,.624-.5976,1.7023,1.7023,0,0,0,.2334-.89V73.5334a.6625.6625,0,0,1,.1562-.4571.5382.5382,0,0,1,.4268-.1767A.5719.5719,0,0,1,372.0875,73.0763Z"/><path class="c" d="M382.0816,73.7931a.7.7,0,0,1-.1562.4268.5131.5131,0,0,1-.4258.2188.7457.7457,0,0,1-.3535-.0938,2.5654,2.5654,0,0,0-1.1025-.2393,2.5314,2.5314,0,0,0-1.2686.3067,2.0733,2.0733,0,0,0-.832.8633,2.7059,2.7059,0,0,0-.292,1.2744,2.4639,2.4639,0,0,0,.6611,1.8613,2.6716,2.6716,0,0,0,2.834.3955.8308.8308,0,0,1,.332-.084.5728.5728,0,0,1,.458.2295.6716.6716,0,0,1,.1563.4258.57.57,0,0,1-.083.3018.5375.5375,0,0,1-.2393.208,3.8074,3.8074,0,0,1-1.7265.4052,4.0921,4.0921,0,0,1-1.8721-.4306,3.3265,3.3265,0,0,1-1.3623-1.2744,3.8659,3.8659,0,0,1-.51-2.0381,3.7533,3.7533,0,0,1,.4834-1.9033,3.4286,3.4286,0,0,1,1.3369-1.3155,3.8987,3.8987,0,0,1,1.9239-.4736,3.7026,3.7026,0,0,1,1.7158.4053A.5573.5573,0,0,1,382.0816,73.7931Z"/><path class="c" d="M388.9147,79.6281a.5928.5928,0,0,1-.1768.4424.5684.5684,0,0,1-.4063.1709.5447.5447,0,0,1-.3378-.1143.7417.7417,0,0,1-.2344-.3115l-.54-1.2588h-3.1l-.541,1.2686a.6315.6315,0,0,1-.2236.3066.5294.5294,0,0,1-.8789-.4316.7008.7008,0,0,1,.0312-.1973l2.59-6.2187a.688.688,0,0,1,.25-.3223.54.54,0,0,1,.374-.0938.6064.6064,0,0,1,.3486.1094.6155.6155,0,0,1,.2344.3067l2.5576,6.0937A.6957.6957,0,0,1,388.9147,79.6281ZM384.63,77.3605h2.08l-1.0508-2.4336Z"/><path class="c" d="M395.6949,73.0763a.5854.5854,0,0,1,.1563.4161v6.0625a.6222.6222,0,0,1-.6348.6347.9016.9016,0,0,1-.2861-.0468.3987.3987,0,0,1-.2022-.13l-3.8174-4.8467v4.4414a.5755.5755,0,0,1-.1611.416.5616.5616,0,0,1-.4209.166.5333.5333,0,0,1-.4062-.166.5871.5871,0,0,1-.1553-.416V73.5441a.6221.6221,0,0,1,.6338-.6347.8076.8076,0,0,1,.3076.0625.4956.4956,0,0,1,.2227.1669l3.7861,4.8252V73.4924a.5727.5727,0,0,1,.1611-.4161.5462.5462,0,0,1,.4112-.1669A.53.53,0,0,1,395.6949,73.0763Z"/><path class="c" d="M403.1412,79.6281a.5931.5931,0,0,1-.1767.4424.5684.5684,0,0,1-.4063.1709.5452.5452,0,0,1-.3379-.1143.7425.7425,0,0,1-.2344-.3115l-.54-1.2588h-3.1l-.541,1.2686a.6323.6323,0,0,1-.2237.3066.5295.5295,0,0,1-.8789-.4316.7011.7011,0,0,1,.0313-.1973l2.59-6.2187a.6893.6893,0,0,1,.25-.3223.54.54,0,0,1,.3741-.0938.6064.6064,0,0,1,.3486.1094.616.616,0,0,1,.2344.3067l2.5576,6.0937A.6976.6976,0,0,1,403.1412,79.6281Zm-4.2851-2.2676h2.08l-1.0507-2.4336Z"/><path class="c" d="M408.7936,73.3928a3.0822,3.0822,0,0,1,1.07,1.3105,4.8018,4.8018,0,0,1,0,3.6924,3.0763,3.0763,0,0,1-1.07,1.31,2.891,2.891,0,0,1-1.68.4834h-2.4864a.6205.6205,0,0,1-.6337-.6347V73.5441a.6221.6221,0,0,1,.6337-.6347h2.4864A2.891,2.891,0,0,1,408.7936,73.3928Zm-.38,4.9091a3.4978,3.4978,0,0,0-.0059-3.5048,1.5843,1.5843,0,0,0-1.3984-.6915h-1.7158v4.8877h1.7158A1.5834,1.5834,0,0,0,408.4137,78.3019Z"/><path class="c" d="M417.109,79.6281a.5928.5928,0,0,1-.1768.4424.5682.5682,0,0,1-.4062.1709.5452.5452,0,0,1-.3379-.1143.7425.7425,0,0,1-.2344-.3115l-.54-1.2588h-3.1l-.541,1.2686a.6323.6323,0,0,1-.2237.3066.5294.5294,0,0,1-.8789-.4316.7011.7011,0,0,1,.0313-.1973l2.59-6.2187a.6893.6893,0,0,1,.25-.3223.54.54,0,0,1,.374-.0938.607.607,0,0,1,.3487.1094.6153.6153,0,0,1,.2343.3067l2.5577,6.0937A.6976.6976,0,0,1,417.109,79.6281Zm-4.2852-2.2676h2.08l-1.0508-2.4336Z"/></g><path class="d" d="M278.1168,35.8024,262.1285,12.6568,236.66.0255,236.6062,0,206.2087,8.8309h-.1753l-15.876,18.865-.059.069.0019.1516L185.6364,58.81v.1734L201.67,82.1l25.4691,12.6311.24.0256,30.0235-8.8308h.1772L273.4561,67.06l.0591-.0689-.002-.2422,4.5506-30.1355m-8.2915,3.875-8.2561-23.9865,15.5549,19.381Zm-70.76,17.3372-8.3327-23.5653,20.0681-5.1036Zm.2442.7343.1614-.1493.3211-.3351L211.5,29.432l12.9512,24.4537Zm25.5046-3.7194-.6281,25.3686-24.11-20.781ZM212.2634,28.9877l31.5809,2.8884L225.2568,53.4428Zm32.6934,1.7859L232.7608,9.4315l26.5442,5.021Zm15.1043-15.8071,8.7876,25.3784L245.711,31.2856ZM252.179,63.3449l-26.2605-9.2956,18.68-21.5666ZM243.99,31.002l-31.4116-2.8787,19.17-18.54ZM225.637,54.89l26.2173,9.2781L225.0974,80.2942Zm26.7922,10.06-1.7033,20.98-24.8331-5.021ZM245.5535,32.268,268.87,41.4516,253.2068,62.9667Zm16.1279-18.735,9.75,14L260.8841,14.1474Zm-.8662-.5868-.6853.571L246.8528,5.9779Zm-3.18.1714L232.5618,8.4332l3.9932-7.46ZM235.3933,1.1283l-3.8337,7.24-21.8914.3386ZM230.7071,9.25,211.7654,27.568,206.8525,9.6088Zm-24.65,1.0888,4.897,17.8038-19.8535,5.0721ZM190.8723,28.1469l12.02-14.3521L190.4055,32.4709Zm-.6165,7.6889,8.1006,22.8089-11.8-.2656Zm-3.4143,23.5179,11.6526.2617,2.7153,20.5015Zm12.6746.9155L223.345,80.7961l-21.0626.7148ZM203.72,82.36l20.4461-.7009,2.4573,12.0188Zm23.91,11.6289-2.4712-12.1743,24.0831,4.8515Zm29.5152-8.7366-4.72.6282,17.39-15.5886Zm-5.6057.0945,1.782-20.7652,18.804,2.5855Zm2.19-21.6157,15.4683-21.2769,3.3967,23.87Zm19.41.063-3.0442-22.33,7.11-4.54Z"/><path class="e" d="M202.3633,57.7863a3.9016,3.9016,0,1,0-5.0152,5.18,3.8722,3.8722,0,0,0,2.9871-.049,3.8965,3.8965,0,0,0,2.0281-5.1314Z"/><path class="e" d="M248.0816,28.2907a4.6956,4.6956,0,0,0-6.096,7.1435,4.6137,4.6137,0,0,0,3.0125,1.1126c.13,0,.26-.004.3918-.0159a4.7019,4.7019,0,0,0,2.6917-8.24Z"/><path class="e" d="M263.0008,13.4188A3.1122,3.1122,0,1,0,260.15,17.77a3.08,3.08,0,0,0,1.2344-.2579A3.1157,3.1157,0,0,0,263.0008,13.4188Z"/><path class="e" d="M228.5017,52.8146a3.1108,3.1108,0,1,0-3.9971,4.1309,3.0732,3.0732,0,0,0,2.3807-.0393A3.1131,3.1131,0,0,0,228.5017,52.8146Z"/><path class="e" d="M272.4383,39.6972a3.1112,3.1112,0,1,0-2.8533,4.3514,3.0809,3.0809,0,0,0,1.2366-.2579A3.1139,3.1139,0,0,0,272.4383,39.6972Z"/></svg>