<svg xmlns="http://www.w3.org/2000/svg" viewBox="0 0 317.8953 94.7563"><defs><style>.a{isolation:isolate;}</style></defs><path d="M92.48,35.8024,76.492,12.6568,51.023.0255,50.97,0,20.5723,8.8309H20.397L4.521,27.6959l-.0591.069.002.1516L0,58.81v.1734L16.0337,82.1l25.469,12.6311.24.0256,30.0234-8.8308h.1773L87.82,67.06l.0591-.0689-.002-.2422,4.5506-30.1355m-8.2916,3.875L75.88,16.5022l15.555,19.381Zm-70.76,17.3372L5.0427,34.2606,25.1109,29.157Zm.2441.7343.1614-.1493.3212-.3351L25.8638,29.432,38.815,53.8857Zm25.5047-3.7194-.6282,25.3686-24.11-20.781ZM26.627,28.9877l31.5808,2.8884L39.62,53.4428ZM59.32,30.7736,47.1243,9.4315l26.5442,5.021ZM74.4246,14.9665l8.7877,25.3784L60.0745,31.2856Zm-7.882,48.3784L40.282,54.0493l18.68-21.5666ZM58.3536,31.002,26.9419,28.1233l19.1705-18.54ZM40.0005,54.89l26.2173,9.2781L39.461,80.2942ZM66.7928,64.95l-1.7034,20.98-24.833-5.021ZM59.9171,32.268,83.234,41.4516,67.57,62.9667ZM76.045,13.533l9.7505,14L75.2476,14.1474Zm-.8662-.5868-.6853.571L61.2164,5.9779Zm-3.18.1714L46.9254,8.4332l3.9931-7.46ZM49.7569,1.1283l-3.8337,7.24-21.8914.3386ZM45.0706,9.25,26.1289,27.568,21.2161,9.6088Zm-24.65,1.0888,4.897,17.8038L5.4641,33.2151ZM5.2359,28.1469l12.02-14.3521L4.7691,32.4709Zm-.6165,7.6889L12.72,58.6447.92,58.3791ZM1.2051,59.3537l11.6526.2617L15.573,80.1169Zm12.6746.9155L37.7085,80.7961l-21.0625.7148Zm4.2038,22.09L38.53,81.6587l2.4573,12.0188Zm23.91,11.6289L39.522,81.8142l24.083,4.8515Zm29.5152-8.7366-4.72.6282,17.39-15.5886Zm-5.6057.0945,1.7819-20.7652,18.804,2.5855Zm2.19-21.6157L83.5606,42.4538l3.3968,23.87Zm19.41.063-3.0442-22.33,7.11-4.54Z"/><path d="M16.7268,57.7863a3.9015,3.9015,0,1,0-5.0151,5.18,3.8719,3.8719,0,0,0,2.987-.049,3.8963,3.8963,0,0,0,2.0281-5.1314Z"/><path d="M62.4451,28.2907a4.6956,4.6956,0,0,0-6.0959,7.1435,4.6135,4.6135,0,0,0,3.0124,1.1126c.13,0,.26-.004.3919-.0159a4.7019,4.7019,0,0,0,2.6916-8.24Z"/><path d="M77.3644,13.4188A3.1122,3.1122,0,1,0,74.5133,17.77a3.08,3.08,0,0,0,1.2343-.2579A3.1156,3.1156,0,0,0,77.3644,13.4188Z"/><path d="M42.8653,52.8146a3.1108,3.1108,0,1,0-3.9971,4.1309,3.0729,3.0729,0,0,0,2.3806-.0393A3.1131,3.1131,0,0,0,42.8653,52.8146Z"/><path d="M86.8019,39.6972a3.114,3.114,0,1,0-1.6167,4.0935A3.1119,3.1119,0,0,0,86.8019,39.6972Z"/><g class="a"><path d="M129.2135,18.3464a1.4975,1.4975,0,0,1-.273.78,1.1084,1.1084,0,0,1-.8974.4287,1.16,1.16,0,0,1-.6236-.1953,12.1091,12.1091,0,0,0-6.8252-2.0664,11.1814,11.1814,0,0,0-5.7133,1.4814,10.5634,10.5634,0,0,0-4.0171,4.1534,12.42,12.42,0,0,0-1.4624,6.0644,12.4448,12.4448,0,0,0,1.4819,6.1426A10.5547,10.5547,0,0,0,114.92,39.27a11.2162,11.2162,0,0,0,5.6743,1.4619,12.0834,12.0834,0,0,0,6.7862-2.0284,1.2365,1.2365,0,0,1,.6626-.1943,1.0779,1.0779,0,0,1,.8974.4678,1.0924,1.0924,0,0,1,.273.7412,1.0122,1.0122,0,0,1-.5464.9355,14.2376,14.2376,0,0,1-3.7436,1.6963,14.7113,14.7113,0,0,1-4.3292.6826,13.6676,13.6676,0,0,1-6.8447-1.7744,13.1775,13.1775,0,0,1-4.9917-4.9726,14.2751,14.2751,0,0,1-1.8525-7.293,14.1964,14.1964,0,0,1,1.833-7.1562,13.3373,13.3373,0,0,1,4.9531-5.0313,13.4843,13.4843,0,0,1,6.9028-1.8135,14.8608,14.8608,0,0,1,4.2706.6241,13.7769,13.7769,0,0,1,3.7636,1.7548A1.0882,1.0882,0,0,1,129.2135,18.3464Z"/><path d="M137.7931,42.2927a1.17,1.17,0,0,1-.8579.3506,1.139,1.139,0,0,1-1.209-1.209V16.5525a1.1527,1.1527,0,0,1,.3511-.878,1.2539,1.2539,0,0,1,.8969-.331,1.198,1.198,0,0,1,1.209,1.209V41.4343A1.3222,1.3222,0,0,1,137.7931,42.2927Z"/><path d="M169.6954,36.2087a12.8226,12.8226,0,0,1-22.7763,0,15.297,15.297,0,0,1-1.6768-7.2158,15.3855,15.3855,0,0,1,1.6768-7.2539,12.4776,12.4776,0,0,1,4.6411-4.9922,13.5851,13.5851,0,0,1,13.4941,0,12.4846,12.4846,0,0,1,4.6411,4.9922,15.3974,15.3974,0,0,1,1.6768,7.2539A15.3089,15.3089,0,0,1,169.6954,36.2087Zm-2.1645-13.28a10.1042,10.1042,0,0,0-3.7442-4.1534,10.8747,10.8747,0,0,0-10.959,0,10.1047,10.1047,0,0,0-3.7441,4.1534,13.2974,13.2974,0,0,0-1.3452,6.0644,13.2922,13.2922,0,0,0,1.3452,6.0645,10.1016,10.1016,0,0,0,3.7441,4.1543,10.8747,10.8747,0,0,0,10.959,0,10.1011,10.1011,0,0,0,3.7442-4.1543,13.2935,13.2935,0,0,0,1.3452-6.0645A13.2987,13.2987,0,0,0,167.5309,22.9285Z"/><path d="M201.129,36.2087a12.8227,12.8227,0,0,1-22.7764,0,15.2981,15.2981,0,0,1-1.6767-7.2158,15.3867,15.3867,0,0,1,1.6767-7.2539,12.4785,12.4785,0,0,1,4.6412-4.9922,13.5851,13.5851,0,0,1,13.4941,0,12.4846,12.4846,0,0,1,4.6411,4.9922,15.3974,15.3974,0,0,1,1.6768,7.2539A15.3089,15.3089,0,0,1,201.129,36.2087Zm-2.1645-13.28a10.1049,10.1049,0,0,0-3.7442-4.1534,10.8747,10.8747,0,0,0-10.959,0,10.1047,10.1047,0,0,0-3.7441,4.1534,13.2974,13.2974,0,0,0-1.3452,6.0644,13.2922,13.2922,0,0,0,1.3452,6.0645,10.1016,10.1016,0,0,0,3.7441,4.1543,10.8747,10.8747,0,0,0,10.959,0,10.1018,10.1018,0,0,0,3.7442-4.1543,13.2935,13.2935,0,0,0,1.3452-6.0645A13.2987,13.2987,0,0,0,198.9645,22.9285Z"/><path d="M212.3019,42.0974a13.9519,13.9519,0,0,1-4.1924-2.9248,1.1818,1.1818,0,0,1-.4683-.9365,1.2184,1.2184,0,0,1,.3706-.8574,1.1324,1.1324,0,0,1,.8384-.3907,1.1955,1.1955,0,0,1,.8584.3907,9.8386,9.8386,0,0,0,7.605,3.3535,7.7993,7.7993,0,0,0,4.66-1.3262,4.08,4.08,0,0,0,1.8526-3.4707,4.2373,4.2373,0,0,0-.9165-2.7881,6.8427,6.8427,0,0,0-2.3985-1.8135,31.74,31.74,0,0,0-3.7827-1.4433,23.1836,23.1836,0,0,1-4.1928-1.6377,7.6948,7.6948,0,0,1-2.75-2.3985,6.4709,6.4709,0,0,1-1.0527-3.8027,6.2687,6.2687,0,0,1,1.1113-3.666,7.4664,7.4664,0,0,1,3.12-2.5156,11.0325,11.0325,0,0,1,4.6215-.917,12.39,12.39,0,0,1,4.4654.8,8.0045,8.0045,0,0,1,3.3344,2.2812,1.8859,1.8859,0,0,1,.585,1.1319,1.0955,1.0955,0,0,1-.39.7988,1.22,1.22,0,0,1-.8584.3711.8976.8976,0,0,1-.6626-.2735,7.6841,7.6841,0,0,0-2.8081-2.0283,8.94,8.94,0,0,0-3.6661-.7793,7.8663,7.8663,0,0,0-4.6411,1.2676,4.0056,4.0056,0,0,0-1.7939,3.4512,3.9857,3.9857,0,0,0,1.7158,3.4707,18.26,18.26,0,0,0,4.9141,2.2236,29.76,29.76,0,0,1,4.5239,1.6768,7.4514,7.4514,0,0,1,2.8667,2.4375,7.0728,7.0728,0,0,1,1.1113,4.1533,6.0822,6.0822,0,0,1-1.15,3.6074,7.7909,7.7909,0,0,1-3.1982,2.5547,11.0907,11.0907,0,0,1-4.66.9355A12.4267,12.4267,0,0,1,212.3019,42.0974Z"/><path d="M117.5457,53.7011a1.0855,1.0855,0,0,1-.24.6562.792.792,0,0,1-.6563.3359,1.1606,1.1606,0,0,1-.5439-.1445,3.9429,3.9429,0,0,0-1.6953-.3681,3.8923,3.8923,0,0,0-1.9522.4726,3.1981,3.1981,0,0,0-1.28,1.3281,4.1612,4.1612,0,0,0-.4482,1.96,3.7873,3.7873,0,0,0,1.0166,2.8633,4.11,4.11,0,0,0,4.3594.6084,1.2955,1.2955,0,0,1,.5127-.128.8777.8777,0,0,1,.7031.3516,1.04,1.04,0,0,1,.24.6563.8691.8691,0,0,1-.1279.4638.8279.8279,0,0,1-.3682.32,5.8556,5.8556,0,0,1-2.6552.6241,6.2921,6.2921,0,0,1-2.8809-.6641,5.1086,5.1086,0,0,1-2.0957-1.96,5.951,5.951,0,0,1-.7842-3.1357,5.7743,5.7743,0,0,1,.7442-2.9287,5.2856,5.2856,0,0,1,2.0566-2.0235,5.993,5.993,0,0,1,2.96-.7285,5.6949,5.6949,0,0,1,2.64.6241A.8584.8584,0,0,1,117.5457,53.7011Z"/><path d="M128.0262,62.6766a.9075.9075,0,0,1-.2725.6807.8721.8721,0,0,1-.624.2637.8367.8367,0,0,1-.5195-.1758,1.1342,1.1342,0,0,1-.36-.48l-.832-1.9355H120.65l-.832,1.9521a.9943.9943,0,0,1-.3448.4717.814.814,0,0,1-1.3515-.664,1.05,1.05,0,0,1,.0478-.3038l3.9844-9.5683a1.06,1.06,0,0,1,.3838-.4961.8365.8365,0,0,1,.5762-.1436.9523.9523,0,0,1,.8955.64l3.9365,9.376A1.09,1.09,0,0,1,128.0262,62.6766Zm-6.5928-3.4873h3.2l-1.6162-3.7441Z"/><path d="M138.4256,52.5966a.9.9,0,0,1,.2393.6406v9.3281a.956.956,0,0,1-.9756.9756,1.3915,1.3915,0,0,1-.4405-.0723.62.62,0,0,1-.3115-.2l-5.8721-7.455v6.831a.8849.8849,0,0,1-.248.6406.8605.8605,0,0,1-.6475.2559.813.813,0,0,1-.624-.2559.9.9,0,0,1-.24-.6406V53.3173a.9575.9575,0,0,1,.9756-.9766,1.2209,1.2209,0,0,1,.4726.0967.762.762,0,0,1,.3438.2558l5.8242,7.4239v-6.88a.8824.8824,0,0,1,.248-.6406.8439.8439,0,0,1,.6319-.2559A.8191.8191,0,0,1,138.4256,52.5966Z"/><path d="M149.8494,62.6766a.9078.9078,0,0,1-.2724.6807.8725.8725,0,0,1-.6241.2637.8369.8369,0,0,1-.5195-.1758,1.1332,1.1332,0,0,1-.36-.48l-.8321-1.9355h-4.7676l-.832,1.9521a.9941.9941,0,0,1-.3447.4717.814.814,0,0,1-1.3516-.664,1.0468,1.0468,0,0,1,.0479-.3038l3.9844-9.5683a1.0588,1.0588,0,0,1,.3837-.4961.8367.8367,0,0,1,.5762-.1436.9523.9523,0,0,1,.8955.64l3.9365,9.376A1.0878,1.0878,0,0,1,149.8494,62.6766Zm-6.5928-3.4873h3.2l-1.6162-3.7441Z"/><path d="M158.5135,53.0848a4.7366,4.7366,0,0,1,1.6484,2.0157,7.3927,7.3927,0,0,1,0,5.6806,4.7366,4.7366,0,0,1-1.6484,2.0157,4.44,4.44,0,0,1-2.584.7441h-3.8242a.9576.9576,0,0,1-.9756-.9756v-9.248a.9576.9576,0,0,1,.9756-.9766H155.93A4.441,4.441,0,0,1,158.5135,53.0848Zm-.584,7.5518a5.3835,5.3835,0,0,0-.0078-5.3916,2.4405,2.4405,0,0,0-2.1524-1.0644h-2.64v7.52h2.64A2.4341,2.4341,0,0,0,157.93,60.6366Z"/><path d="M164.1854,63.2606a1.0055,1.0055,0,0,1-.7041.28.96.96,0,0,1-.712-.28.94.94,0,0,1-.28-.6953v-9.248a.93.93,0,0,1,.2881-.6963,1.01,1.01,0,0,1,.7353-.28.9554.9554,0,0,1,.6885.28.934.934,0,0,1,.2881.6963v9.248A.9075.9075,0,0,1,164.1854,63.2606Z"/><path d="M175.6736,62.6766a.9078.9078,0,0,1-.2724.6807.8724.8724,0,0,1-.624.2637.837.837,0,0,1-.52-.1758,1.134,1.134,0,0,1-.36-.48l-.8321-1.9355h-4.7675l-.8321,1.9521a.9941.9941,0,0,1-.3447.4717.8141.8141,0,0,1-1.3516-.664,1.05,1.05,0,0,1,.0479-.3038l3.9844-9.5683a1.059,1.059,0,0,1,.3838-.4961.8364.8364,0,0,1,.5761-.1436.9521.9521,0,0,1,.8955.64l3.9366,9.376A1.09,1.09,0,0,1,175.6736,62.6766Zm-6.5927-3.4873h3.2l-1.6162-3.7441Z"/><path d="M186.0731,52.5966a.9.9,0,0,1,.2392.6406v9.3281a.956.956,0,0,1-.9756.9756,1.39,1.39,0,0,1-.44-.0723.6188.6188,0,0,1-.3115-.2l-5.8721-7.455v6.831a.8849.8849,0,0,1-.248.6406.8608.8608,0,0,1-.6475.2559.813.813,0,0,1-.624-.2559.8991.8991,0,0,1-.24-.6406V53.3173a.9576.9576,0,0,1,.9756-.9766,1.221,1.221,0,0,1,.4727.0967.7616.7616,0,0,1,.3437.2558l5.8242,7.4239v-6.88a.8825.8825,0,0,1,.2481-.6406.8437.8437,0,0,1,.6318-.2559A.8192.8192,0,0,1,186.0731,52.5966Z"/><path d="M194.7293,63.2606a1.0054,1.0054,0,0,1-.7041.28.9593.9593,0,0,1-.7119-.28.94.94,0,0,1-.28-.6953v-9.248a.93.93,0,0,1,.2881-.6963,1.01,1.01,0,0,1,.7354-.28.9551.9551,0,0,1,.6884.28.934.934,0,0,1,.2881.6963v9.248A.9072.9072,0,0,1,194.7293,63.2606Z"/><path d="M206.4725,52.5966a.9.9,0,0,1,.2392.6406v9.3281a.956.956,0,0,1-.9756.9756,1.39,1.39,0,0,1-.44-.0723.6192.6192,0,0,1-.3115-.2l-5.8721-7.455v6.831a.8849.8849,0,0,1-.248.6406.8608.8608,0,0,1-.6475.2559.813.813,0,0,1-.624-.2559.8991.8991,0,0,1-.24-.6406V53.3173a.9575.9575,0,0,1,.9755-.9766,1.221,1.221,0,0,1,.4727.0967.7616.7616,0,0,1,.3437.2558l5.8243,7.4239v-6.88a.8824.8824,0,0,1,.248-.6406.8437.8437,0,0,1,.6318-.2559A.8192.8192,0,0,1,206.4725,52.5966Z"/><path d="M217.0955,52.5966a.8806.8806,0,0,1,.2725.6718.852.852,0,0,1-.2725.6641,1.0019,1.0019,0,0,1-.7041.2481H213.88v8.3847a.9075.9075,0,0,1-.3037.6953,1.0669,1.0669,0,0,1-.752.28,1.01,1.01,0,0,1-.7363-.28.9318.9318,0,0,1-.2881-.6953V54.1806h-2.5117a.9851.9851,0,0,1-.7041-.2559.8773.8773,0,0,1-.2715-.6719.85.85,0,0,1,.2793-.6562.9961.9961,0,0,1,.6963-.2559h7.1035A.989.989,0,0,1,217.0955,52.5966Z"/><path d="M226.0008,61.9813a.8887.8887,0,0,1,.2793.6475.85.85,0,0,1-.2793.6562.9938.9938,0,0,1-.6963.2559h-5.36a.9574.9574,0,0,1-.9755-.9756v-9.248a.9575.9575,0,0,1,.9755-.9766h5.36a.9747.9747,0,0,1,.6963.2647.8915.8915,0,0,1,.2793.68.8361.8361,0,0,1-.2715.6475,1.0019,1.0019,0,0,1-.7041.2481h-4.3359v2.7207h3.6162a.9757.9757,0,0,1,.6953.2636.8927.8927,0,0,1,.28.68.8361.8361,0,0,1-.2725.6485,1.004,1.004,0,0,1-.7031.248h-3.6162v2.96h4.3359A.9477.9477,0,0,1,226.0008,61.9813Z"/><path d="M236.9832,57.7733a.9566.9566,0,0,1,.2725.6953v3.3926a.9577.9577,0,0,1-.4961.8633,6.38,6.38,0,0,1-3.44.9766,5.8658,5.8658,0,0,1-5.0566-2.8721,5.7107,5.7107,0,0,1,0-5.7764,5.8161,5.8161,0,0,1,2.1279-2.0957,5.7539,5.7539,0,0,1,2.9287-.7763,5.6419,5.6419,0,0,1,2.752.6406.8688.8688,0,0,1,.48.7842,1.011,1.011,0,0,1-.2637.6953.8362.8362,0,0,1-.6484.2959,1.2963,1.2963,0,0,1-.5274-.128,4.5351,4.5351,0,0,0-1.792-.3681,3.594,3.594,0,0,0-1.8886.5205,3.8735,3.8735,0,0,0,0,6.64,3.594,3.594,0,0,0,1.8886.5205,6.2036,6.2036,0,0,0,.96-.08,5.6789,5.6789,0,0,0,.8955-.208v-2.08h-1.5039a.9587.9587,0,0,1-.6963-.2725.987.987,0,0,1,0-1.376.9623.9623,0,0,1,.6963-.2714h2.624A.9171.9171,0,0,1,236.9832,57.7733Z"/><path d="M248.2078,62.3085a.8566.8566,0,0,1,.12.4326.823.823,0,0,1-.1914.5273.9026.9026,0,0,1-.7363.2881,1.44,1.44,0,0,1-.7041-.1758,2.81,2.81,0,0,1-1.1514-2.6718,1.1649,1.1649,0,0,0-.3759-.9121,1.5723,1.5723,0,0,0-1.08-.336h-2.9922v3.1045a1.0469,1.0469,0,0,1-.2324.7031.7674.7674,0,0,1-.6162.2725,1.2378,1.2378,0,0,1-.8077-.28.8609.8609,0,0,1-.3437-.6953v-9.248a.9576.9576,0,0,1,.9756-.9766h4.6084a2.9607,2.9607,0,0,1,1.5674.4483,3.3045,3.3045,0,0,1,1.1767,1.2324,3.5355,3.5355,0,0,1,.44,1.76,3.1153,3.1153,0,0,1-.4317,1.56,3.4411,3.4411,0,0,1-1.12,1.208,2.45,2.45,0,0,1,1.1035,1.8887,2.6583,2.6583,0,0,1,.0489.4951,4.9114,4.9114,0,0,0,.1279.7119.5232.5232,0,0,0,.2881.3281A.9537.9537,0,0,1,248.2078,62.3085ZM245.16,57.5409a2.0621,2.0621,0,0,0,.4482-.7275,2.7185,2.7185,0,0,0,.1758-.9844,1.9224,1.9224,0,0,0-.1758-.8242,1.6887,1.6887,0,0,0-.4482-.6.8733.8733,0,0,0-.56-.2246h-3.5039v3.6328H244.6A.7953.7953,0,0,0,245.16,57.5409Z"/><path d="M258.8719,62.6766a.9075.9075,0,0,1-.2725.6807.8721.8721,0,0,1-.624.2637.8367.8367,0,0,1-.5195-.1758,1.1342,1.1342,0,0,1-.36-.48l-.832-1.9355h-4.7676l-.832,1.9521a.9943.9943,0,0,1-.3448.4717.814.814,0,0,1-1.3515-.664,1.05,1.05,0,0,1,.0478-.3038L253,52.9169a1.06,1.06,0,0,1,.3838-.4961.8365.8365,0,0,1,.5762-.1436.9523.9523,0,0,1,.8955.64l3.9365,9.376A1.09,1.09,0,0,1,258.8719,62.6766Zm-6.5928-3.4873h3.2l-1.6162-3.7441Z"/><path d="M267.4158,52.5966a.8806.8806,0,0,1,.2725.6718.852.852,0,0,1-.2725.6641,1.0019,1.0019,0,0,1-.7041.2481H264.2v8.3847a.9075.9075,0,0,1-.3037.6953,1.0669,1.0669,0,0,1-.752.28,1.01,1.01,0,0,1-.7363-.28.9318.9318,0,0,1-.2881-.6953V54.1806h-2.5117a.9851.9851,0,0,1-.7041-.2559.8773.8773,0,0,1-.2715-.6719.85.85,0,0,1,.2793-.6562.9961.9961,0,0,1,.6963-.2559h7.1035A.989.989,0,0,1,267.4158,52.5966Z"/><path d="M276.32,61.9813a.8887.8887,0,0,1,.2793.6475.85.85,0,0,1-.2793.6562.9936.9936,0,0,1-.6963.2559h-5.36a.9576.9576,0,0,1-.9756-.9756v-9.248a.9576.9576,0,0,1,.9756-.9766h5.36a.9745.9745,0,0,1,.6963.2647.8915.8915,0,0,1,.2793.68.8361.8361,0,0,1-.2715.6475,1.0019,1.0019,0,0,1-.7041.2481h-4.3359v2.7207h3.6162a.9755.9755,0,0,1,.6953.2636.8927.8927,0,0,1,.28.68.8358.8358,0,0,1-.2725.6485,1.0039,1.0039,0,0,1-.7031.248h-3.6162v2.96h4.3359A.9476.9476,0,0,1,276.32,61.9813Z"/><path d="M285.744,53.0848a4.7366,4.7366,0,0,1,1.6484,2.0157,7.3927,7.3927,0,0,1,0,5.6806,4.7366,4.7366,0,0,1-1.6484,2.0157,4.44,4.44,0,0,1-2.584.7441h-3.8243a.9574.9574,0,0,1-.9755-.9756v-9.248a.9575.9575,0,0,1,.9755-.9766H283.16A4.4412,4.4412,0,0,1,285.744,53.0848Zm-.584,7.5518a5.3835,5.3835,0,0,0-.0078-5.3916A2.4406,2.4406,0,0,0,283,54.1806h-2.64v7.52H283A2.4341,2.4341,0,0,0,285.16,60.6366Z"/><path d="M118.8094,77.3446a5.3946,5.3946,0,0,1-1.9434,2.0879,5.4554,5.4554,0,0,1-5.584,0,5.3284,5.3284,0,0,1-1.9365-2.0879,6.4031,6.4031,0,0,1,0-5.8076,5.3284,5.3284,0,0,1,1.9365-2.0879,5.456,5.456,0,0,1,5.584,0,5.3946,5.3946,0,0,1,1.9434,2.0879,6.34,6.34,0,0,1,0,5.8076Zm-1.8076-4.8476a3.4875,3.4875,0,0,0-1.2-1.3838,3.2021,3.2021,0,0,0-3.4639-.0078,3.3817,3.3817,0,0,0-1.1846,1.3837,4.7059,4.7059,0,0,0,0,3.9034,3.3846,3.3846,0,0,0,1.1846,1.3847,3.2048,3.2048,0,0,0,3.4639-.0088,3.4811,3.4811,0,0,0,1.2-1.3837,4.5932,4.5932,0,0,0,0-3.8877Z"/><path d="M129.6092,70.2011a1.0855,1.0855,0,0,1-.24.6562.792.792,0,0,1-.6563.3359,1.16,1.16,0,0,1-.5439-.1445,3.9431,3.9431,0,0,0-1.6954-.3681,3.8922,3.8922,0,0,0-1.9521.4726,3.1981,3.1981,0,0,0-1.28,1.3281,4.1612,4.1612,0,0,0-.4482,1.96,3.7869,3.7869,0,0,0,1.0166,2.8633,4.11,4.11,0,0,0,4.3594.6084,1.2947,1.2947,0,0,1,.5127-.128.8777.8777,0,0,1,.7031.3516,1.04,1.04,0,0,1,.24.6563.87.87,0,0,1-.1279.4638.8279.8279,0,0,1-.3682.32,5.8557,5.8557,0,0,1-2.6553.6241,6.2917,6.2917,0,0,1-2.8808-.6641,5.108,5.108,0,0,1-2.0957-1.96,5.951,5.951,0,0,1-.7842-3.1357,5.7743,5.7743,0,0,1,.7441-2.9287,5.2859,5.2859,0,0,1,2.0567-2.0235,5.9926,5.9926,0,0,1,2.96-.7285,5.6953,5.6953,0,0,1,2.64.6241A.8584.8584,0,0,1,129.6092,70.2011Z"/><path d="M138.2576,78.4813a.8887.8887,0,0,1,.2793.6475.85.85,0,0,1-.2793.6562.9936.9936,0,0,1-.6963.2559h-5.36a.9576.9576,0,0,1-.9756-.9756v-9.248a.9576.9576,0,0,1,.9756-.9766h5.36a.9745.9745,0,0,1,.6963.2647.8915.8915,0,0,1,.2793.68.8361.8361,0,0,1-.2715.6475,1.0019,1.0019,0,0,1-.7041.2481h-4.3359v2.7207h3.6162a.9755.9755,0,0,1,.6953.2636.8927.8927,0,0,1,.28.68.8358.8358,0,0,1-.2725.6485,1.0039,1.0039,0,0,1-.7031.248h-3.6162v2.96h4.3359A.9476.9476,0,0,1,138.2576,78.4813Z"/><path d="M149.1619,79.1766a.9078.9078,0,0,1-.2724.6807.8725.8725,0,0,1-.6241.2637.8369.8369,0,0,1-.5195-.1758,1.1332,1.1332,0,0,1-.36-.4805l-.8321-1.9355h-4.7676l-.832,1.9521a.9941.9941,0,0,1-.3447.4717.814.814,0,0,1-1.3516-.664,1.0468,1.0468,0,0,1,.0479-.3038l3.9844-9.5683a1.0588,1.0588,0,0,1,.3837-.4961.8367.8367,0,0,1,.5762-.1436.9523.9523,0,0,1,.8955.64l3.9365,9.376A1.0878,1.0878,0,0,1,149.1619,79.1766Zm-6.5928-3.4873h3.2l-1.6162-3.7441Z"/><path d="M159.5613,69.0966a.9.9,0,0,1,.2393.6406v9.3281a.956.956,0,0,1-.9756.9756,1.39,1.39,0,0,1-.44-.0723.6188.6188,0,0,1-.3115-.2l-5.8721-7.455v6.831a.8845.8845,0,0,1-.2481.6406.86.86,0,0,1-.6474.2559.8127.8127,0,0,1-.624-.2559.8991.8991,0,0,1-.24-.6406V69.8173a.9576.9576,0,0,1,.9756-.9766,1.221,1.221,0,0,1,.4727.0967.7616.7616,0,0,1,.3437.2558l5.8242,7.4239v-6.88a.8825.8825,0,0,1,.2481-.6406.8437.8437,0,0,1,.6318-.2559A.8188.8188,0,0,1,159.5613,69.0966Z"/><path d="M176.1209,77.3446a5.3946,5.3946,0,0,1-1.9434,2.0879,5.4552,5.4552,0,0,1-5.5839,0,5.3279,5.3279,0,0,1-1.9366-2.0879,6.4031,6.4031,0,0,1,0-5.8076,5.3279,5.3279,0,0,1,1.9366-2.0879,5.4558,5.4558,0,0,1,5.5839,0,5.3946,5.3946,0,0,1,1.9434,2.0879,6.34,6.34,0,0,1,0,5.8076Zm-1.8076-4.8476a3.4875,3.4875,0,0,0-1.2-1.3838,3.2021,3.2021,0,0,0-3.4639-.0078,3.3814,3.3814,0,0,0-1.1845,1.3837,4.7049,4.7049,0,0,0,0,3.9034,3.3844,3.3844,0,0,0,1.1845,1.3847,3.2048,3.2048,0,0,0,3.4639-.0088,3.4811,3.4811,0,0,0,1.2-1.3837,4.5932,4.5932,0,0,0,0-3.8877Z"/><path d="M186.6883,74.8573a2.8037,2.8037,0,0,1,.5361,1.7754,3.0007,3.0007,0,0,1-1.0879,2.6563,4.45,4.45,0,0,1-2.5918.7519H179.56a.9574.9574,0,0,1-.9756-.9756v-9.248a.9575.9575,0,0,1,.9756-.9766h4.0322q3.04,0,3.04,2.8486a2.2944,2.2944,0,0,1-1.3281,2.1436A3.2156,3.2156,0,0,1,186.6883,74.8573Zm-2.4639-3.8008a1.2474,1.2474,0,0,0-.92-.3271h-2.64v2.4951h2.6875a1.2239,1.2239,0,0,0,.84-.3193,1.0994,1.0994,0,0,0,.36-.8643A1.3369,1.3369,0,0,0,184.2244,71.0565Zm.4961,6.7442a1.5316,1.5316,0,0,0,.4238-1.168,1.3092,1.3092,0,0,0-.4961-1.2314,2.3781,2.3781,0,0,0-1.2158-.2881h-2.7675v3.0879h2.88A1.6453,1.6453,0,0,0,184.7205,77.8007Z"/><path d="M190.5369,79.913a4.7507,4.7507,0,0,1-1.68-.9756,1.1261,1.1261,0,0,1-.4326-.8486.9.9,0,0,1,.2725-.6475.88.88,0,0,1,.6562-.28.8489.8489,0,0,1,.544.1914,4.6758,4.6758,0,0,0,1.248.7686,3.91,3.91,0,0,0,1.44.24,2.88,2.88,0,0,0,1.5439-.4,1.1585,1.1585,0,0,0,.6485-.9922,1.2734,1.2734,0,0,0-.6407-1.1279,5.4307,5.4307,0,0,0-2.0312-.6162q-3.504-.5112-3.5039-3.2637a2.9519,2.9519,0,0,1,.5273-1.7519,3.3378,3.3378,0,0,1,1.44-1.1358,5.0869,5.0869,0,0,1,2.0323-.3925,5.8,5.8,0,0,1,1.8955.3046,4.5967,4.5967,0,0,1,1.48.8,1.07,1.07,0,0,1,.4638.8477.9009.9009,0,0,1-.2724.6484.8636.8636,0,0,1-.64.2793.7068.7068,0,0,1-.4326-.1435,4.2229,4.2229,0,0,0-1.1592-.6162,3.8447,3.8447,0,0,0-1.3359-.2793,2.7514,2.7514,0,0,0-1.5606.3759,1.1938,1.1938,0,0,0,.0166,2.0235,5.3667,5.3667,0,0,0,1.7832.5762,9.2408,9.2408,0,0,1,2.2.6162,2.8035,2.8035,0,0,1,1.24,1.0234,3.15,3.15,0,0,1,.416,1.7207,2.8707,2.8707,0,0,1-.5684,1.7676,3.65,3.65,0,0,1-1.5117,1.168,5.0616,5.0616,0,0,1-2.0322.4082A6.6787,6.6787,0,0,1,190.5369,79.913Z"/><path d="M205.4891,78.4813a.8887.8887,0,0,1,.2793.6475.85.85,0,0,1-.2793.6562.9938.9938,0,0,1-.6963.2559h-5.36a.9576.9576,0,0,1-.9756-.9756v-9.248a.9576.9576,0,0,1,.9756-.9766h5.36a.9747.9747,0,0,1,.6963.2647.8915.8915,0,0,1,.2793.68.8364.8364,0,0,1-.2715.6475,1.0021,1.0021,0,0,1-.7041.2481h-4.336v2.7207h3.6163a.9759.9759,0,0,1,.6953.2636.8926.8926,0,0,1,.28.68.836.836,0,0,1-.2724.6485,1.004,1.004,0,0,1-.7031.248h-3.6163v2.96h4.336A.9477.9477,0,0,1,205.4891,78.4813Z"/><path d="M216.64,78.8085a.8576.8576,0,0,1,.12.4326.8236.8236,0,0,1-.1914.5273.903.903,0,0,1-.7364.2881,1.44,1.44,0,0,1-.7041-.1758,2.81,2.81,0,0,1-1.1513-2.6718,1.165,1.165,0,0,0-.376-.9121,1.5721,1.5721,0,0,0-1.08-.336h-2.9922v3.1045a1.0469,1.0469,0,0,1-.2324.7031.7674.7674,0,0,1-.6162.2725,1.2375,1.2375,0,0,1-.8076-.28.861.861,0,0,1-.3438-.6953v-9.248a.9576.9576,0,0,1,.9756-.9766h4.6084a2.96,2.96,0,0,1,1.5674.4483,3.3055,3.3055,0,0,1,1.1768,1.2324,3.5365,3.5365,0,0,1,.4394,1.76,3.1151,3.1151,0,0,1-.4316,1.56,3.4411,3.4411,0,0,1-1.12,1.208,2.4507,2.4507,0,0,1,1.1035,1.8887,2.6664,2.6664,0,0,1,.0488.4951,4.94,4.94,0,0,0,.1279.7119.5232.5232,0,0,0,.2881.3281A.954.954,0,0,1,216.64,78.8085Zm-3.0479-4.7676a2.0622,2.0622,0,0,0,.4483-.7275,2.7206,2.7206,0,0,0,.1757-.9844,1.9238,1.9238,0,0,0-.1757-.8242,1.6889,1.6889,0,0,0-.4483-.6.8731.8731,0,0,0-.56-.2246h-3.5039v3.6328h3.5039A.7952.7952,0,0,0,213.5916,74.0409Z"/><path d="M227.0721,69.0809a.8609.8609,0,0,1,.2959.6563,1.1028,1.1028,0,0,1-.0957.4316L223.32,79.4169a1.07,1.07,0,0,1-.4.4638.9168.9168,0,0,1-1.0478-.0078.99.99,0,0,1-.36-.44l-3.9521-9.2793a.8987.8987,0,0,1-.0791-.4.86.86,0,0,1,.3193-.6963,1.0276,1.0276,0,0,1,.6563-.2636.9078.9078,0,0,1,.5117.16,1.0084,1.0084,0,0,1,.3681.4639l3.2159,7.5683,2.9443-7.5683a1.0221,1.0221,0,0,1,.3682-.4483.9073.9073,0,0,1,.5117-.16A.9969.9969,0,0,1,227.0721,69.0809Z"/><path d="M230.6649,79.7606a1.0056,1.0056,0,0,1-.7042.28.96.96,0,0,1-.7119-.28.94.94,0,0,1-.28-.6953v-9.248a.9306.9306,0,0,1,.288-.6963,1.0106,1.0106,0,0,1,.7354-.28.9554.9554,0,0,1,.6885.28.934.934,0,0,1,.2881.6963v9.248A.9075.9075,0,0,1,230.6649,79.7606Z"/><path d="M242.408,69.0966a.9.9,0,0,1,.2393.6406v9.3281a.956.956,0,0,1-.9756.9756,1.39,1.39,0,0,1-.44-.0723.62.62,0,0,1-.3116-.2l-5.872-7.455v6.831a.8845.8845,0,0,1-.2481.6406.86.86,0,0,1-.6474.2559.813.813,0,0,1-.6241-.2559.9.9,0,0,1-.24-.6406V69.8173a.9576.9576,0,0,1,.9756-.9766,1.2206,1.2206,0,0,1,.4726.0967.762.762,0,0,1,.3438.2558l5.8242,7.4239v-6.88a.8821.8821,0,0,1,.2481-.6406.8436.8436,0,0,1,.6318-.2559A.8188.8188,0,0,1,242.408,69.0966Z"/><path d="M253.9109,74.2733a.9566.9566,0,0,1,.2725.6953v3.3926a.9575.9575,0,0,1-.4961.8633,6.38,6.38,0,0,1-3.4394.9766,5.8658,5.8658,0,0,1-5.0567-2.8721,5.7107,5.7107,0,0,1,0-5.7764,5.8168,5.8168,0,0,1,2.1279-2.0957,5.754,5.754,0,0,1,2.9288-.7763A5.6418,5.6418,0,0,1,253,69.3212a.8688.8688,0,0,1,.48.7842,1.011,1.011,0,0,1-.2637.6953.8359.8359,0,0,1-.6484.2959,1.2959,1.2959,0,0,1-.5273-.128,4.5355,4.5355,0,0,0-1.792-.3681,3.5946,3.5946,0,0,0-1.8887.52,3.8735,3.8735,0,0,0,0,6.64,3.5946,3.5946,0,0,0,1.8887.52,6.2033,6.2033,0,0,0,.96-.08,5.6763,5.6763,0,0,0,.8955-.208v-2.08h-1.5039a.9591.9591,0,0,1-.6963-.2725.987.987,0,0,1,0-1.376.9626.9626,0,0,1,.6963-.2714h2.624A.917.917,0,0,1,253.9109,74.2733Z"/><path d="M261.9754,79.913a4.75,4.75,0,0,1-1.68-.9756,1.1261,1.1261,0,0,1-.4326-.8486.9.9,0,0,1,.2725-.6475.88.88,0,0,1,.6562-.28.8484.8484,0,0,1,.5439.1914,4.6746,4.6746,0,0,0,1.2481.7686,3.9093,3.9093,0,0,0,1.4394.24,2.88,2.88,0,0,0,1.544-.4,1.1584,1.1584,0,0,0,.6484-.9922,1.2733,1.2733,0,0,0-.6406-1.1279,5.4313,5.4313,0,0,0-2.0312-.6162q-3.504-.5112-3.5039-3.2637a2.9512,2.9512,0,0,1,.5273-1.7519,3.3372,3.3372,0,0,1,1.44-1.1358,5.0866,5.0866,0,0,1,2.0323-.3925,5.8,5.8,0,0,1,1.8955.3046,4.5951,4.5951,0,0,1,1.48.8,1.07,1.07,0,0,1,.4639.8477.9006.9006,0,0,1-.2725.6484.8632.8632,0,0,1-.64.2793.7066.7066,0,0,1-.4326-.1435,4.2229,4.2229,0,0,0-1.1592-.6162,3.8447,3.8447,0,0,0-1.3359-.2793,2.7514,2.7514,0,0,0-1.5606.3759,1.1937,1.1937,0,0,0,.0166,2.0235,5.3659,5.3659,0,0,0,1.7832.5762,9.2408,9.2408,0,0,1,2.2.6162,2.8026,2.8026,0,0,1,1.24,1.0234,3.149,3.149,0,0,1,.4161,1.7207,2.8707,2.8707,0,0,1-.5684,1.7676,3.65,3.65,0,0,1-1.5117,1.168,5.0621,5.0621,0,0,1-2.0323.4082A6.6785,6.6785,0,0,1,261.9754,79.913Z"/><path d="M277.576,70.3768l-3.3438,4.7842v3.9043a.9567.9567,0,0,1-.2724.6953.88.88,0,0,1-.6563.28.9222.9222,0,0,1-.68-.28.9437.9437,0,0,1-.28-.6953V74.9374l-3.3282-4.416a1.2636,1.2636,0,0,1-.2871-.753.8776.8776,0,0,1,.3272-.6953,1.059,1.059,0,0,1,.6963-.28.9681.9681,0,0,1,.7841.4482l2.8165,3.8877,2.64-3.8555a.9655.9655,0,0,1,.8-.48.9188.9188,0,0,1,.6719.288.9571.9571,0,0,1,.2881.7041A1.07,1.07,0,0,1,277.576,70.3768Z"/><path d="M280.2635,79.913a4.75,4.75,0,0,1-1.68-.9756,1.1261,1.1261,0,0,1-.4326-.8486.9.9,0,0,1,.2724-.6475.8807.8807,0,0,1,.6563-.28.8486.8486,0,0,1,.5439.1914,4.6746,4.6746,0,0,0,1.2481.7686,3.9089,3.9089,0,0,0,1.4394.24,2.88,2.88,0,0,0,1.544-.4,1.1584,1.1584,0,0,0,.6484-.9922,1.2733,1.2733,0,0,0-.6406-1.1279,5.4313,5.4313,0,0,0-2.0313-.6162q-3.5038-.5112-3.5039-3.2637a2.9513,2.9513,0,0,1,.5274-1.7519,3.3372,3.3372,0,0,1,1.44-1.1358,5.0864,5.0864,0,0,1,2.0322-.3925,5.8,5.8,0,0,1,1.8955.3046,4.5957,4.5957,0,0,1,1.48.8,1.07,1.07,0,0,1,.4639.8477.9006.9006,0,0,1-.2725.6484.8632.8632,0,0,1-.64.2793.7066.7066,0,0,1-.4326-.1435,4.2229,4.2229,0,0,0-1.1592-.6162,3.8447,3.8447,0,0,0-1.336-.2793,2.7512,2.7512,0,0,0-1.56.3759,1.1937,1.1937,0,0,0,.0166,2.0235,5.3651,5.3651,0,0,0,1.7832.5762,9.2408,9.2408,0,0,1,2.2.6162,2.8026,2.8026,0,0,1,1.24,1.0234,3.149,3.149,0,0,1,.416,1.7207,2.8706,2.8706,0,0,1-.5683,1.7676,3.65,3.65,0,0,1-1.5117,1.168,5.0621,5.0621,0,0,1-2.0323.4082A6.678,6.678,0,0,1,280.2635,79.913Z"/><path d="M296.2469,69.0966a.8809.8809,0,0,1,.2724.6718.8523.8523,0,0,1-.2724.6641,1.0021,1.0021,0,0,1-.7041.2481h-2.5117v8.3847a.9075.9075,0,0,1-.3037.6953,1.0672,1.0672,0,0,1-.752.28,1.01,1.01,0,0,1-.7363-.28.9318.9318,0,0,1-.2881-.6953V70.6806h-2.5117a.9851.9851,0,0,1-.7041-.2559.8769.8769,0,0,1-.2715-.6719.85.85,0,0,1,.2793-.6562.996.996,0,0,1,.6963-.2559h7.1035A.9891.9891,0,0,1,296.2469,69.0966Z"/><path d="M305.1512,78.4813a.8887.8887,0,0,1,.2793.6475.85.85,0,0,1-.2793.6562.9938.9938,0,0,1-.6963.2559h-5.36a.9574.9574,0,0,1-.9755-.9756v-9.248a.9575.9575,0,0,1,.9755-.9766h5.36a.9747.9747,0,0,1,.6963.2647.8915.8915,0,0,1,.2793.68.8361.8361,0,0,1-.2715.6475,1.0019,1.0019,0,0,1-.7041.2481H300.119v2.7207h3.6162a.9757.9757,0,0,1,.6953.2636.8926.8926,0,0,1,.28.68.836.836,0,0,1-.2724.6485,1.004,1.004,0,0,1-.7031.248H300.119v2.96h4.3359A.9477.9477,0,0,1,305.1512,78.4813Z"/><path d="M317.5994,69.1054a.9172.9172,0,0,1,.2959.6953v9.2646a.9463.9463,0,0,1-.9922.9756,1,1,0,0,1-.7285-.2725.9364.9364,0,0,1-.2793-.7031V72.6171l-2.6406,4.0322a1.3752,1.3752,0,0,1-.3672.3115.745.745,0,0,1-.4326.1045.711.711,0,0,1-.416-.1045,1.364,1.364,0,0,1-.3682-.3115l-2.64-4.1768v6.5928a.9869.9869,0,0,1-.2559.7031.8792.8792,0,0,1-.6719.2725.8473.8473,0,0,1-.6562-.28.9894.9894,0,0,1-.2559-.6953V69.8007a.9251.9251,0,0,1,.2959-.6875.9826.9826,0,0,1,.7119-.2881,1.0659,1.0659,0,0,1,.4805.12.93.93,0,0,1,.3672.3115l3.4883,5.36,3.584-5.36a.9721.9721,0,0,1,.3437-.3115.8982.8982,0,0,1,.44-.12A.9826.9826,0,0,1,317.5994,69.1054Z"/></g></svg>